
<svg id="illustration-service" xmlns="http://www.w3.org/2000/svg" xmlns:xlink="http://www.w3.org/1999/xlink" viewBox="0 0 515 475" shape-rendering="geometricPrecision" text-rendering="geometricPrecision" style="background-color:transparent"><defs><linearGradient id="illustration-service-s-path1-fill" x1="175.724" y1="179.313" x2="175.724" y2="17.8639" spreadMethod="pad" gradientUnits="userSpaceOnUse" gradientTransform="translate(0 0)"><stop id="illustration-service-s-path1-fill-0" offset="0%" stop-color="#ecf3fb"/><stop id="illustration-service-s-path1-fill-1" offset="100%" stop-color="#fff"/></linearGradient><linearGradient id="illustration-service-s-path1-stroke" x1="175.724" y1="179.313" x2="175.724" y2="17.8639" spreadMethod="pad" gradientUnits="userSpaceOnUse" gradientTransform="translate(0 0)"><stop id="illustration-service-s-path1-stroke-0" offset="0%" stop-color="#e7eef8"/><stop id="illustration-service-s-path1-stroke-1" offset="100%" stop-color="#eaa0e1"/></linearGradient><radialGradient id="illustration-service-s-path3-fill" cx="0" cy="0" r="1" spreadMethod="pad" gradientUnits="userSpaceOnUse" gradientTransform="matrix(52.2988 0 0 52.2988 158.782 92.1151)"><stop id="illustration-service-s-path3-fill-0" offset="13.5417%" stop-color="#b658bb"/><stop id="illustration-service-s-path3-fill-1" offset="100%" stop-color="#1341a9"/></radialGradient><linearGradient id="illustration-service-s-path4-fill" x1="338.724" y1="178.449" x2="338.724" y2="17.0001" spreadMethod="pad" gradientUnits="userSpaceOnUse" gradientTransform="translate(0 0)"><stop id="illustration-service-s-path4-fill-0" offset="0%" stop-color="#ecf3fb"/><stop id="illustration-service-s-path4-fill-1" offset="100%" stop-color="#fff"/></linearGradient><linearGradient id="illustration-service-s-path4-stroke" x1="338.724" y1="178.449" x2="338.724" y2="17.0001" spreadMethod="pad" gradientUnits="userSpaceOnUse" gradientTransform="translate(0 0)"><stop id="illustration-service-s-path4-stroke-0" offset="0%" stop-color="#e7eef8"/><stop id="illustration-service-s-path4-stroke-1" offset="100%" stop-color="#eaa0e1"/></linearGradient><radialGradient id="illustration-service-s-path6-fill" cx="0" cy="0" r="1" spreadMethod="pad" gradientUnits="userSpaceOnUse" gradientTransform="matrix(47.069 0 0 47.069 322.449 90.4487)"><stop id="illustration-service-s-path6-fill-0" offset="13.5417%" stop-color="#b658bb"/><stop id="illustration-service-s-path6-fill-1" offset="100%" stop-color="#1341a9"/></radialGradient><linearGradient id="illustration-service-s-path7-fill" x1="176.276" y1="457.864" x2="176.276" y2="296.415" spreadMethod="pad" gradientUnits="userSpaceOnUse" gradientTransform="translate(0 0)"><stop id="illustration-service-s-path7-fill-0" offset="0%" stop-color="#ecf3fb"/><stop id="illustration-service-s-path7-fill-1" offset="100%" stop-color="#fff"/></linearGradient><linearGradient id="illustration-service-s-path7-stroke" x1="176.276" y1="457.864" x2="176.276" y2="296.415" spreadMethod="pad" gradientUnits="userSpaceOnUse" gradientTransform="translate(0 0)"><stop id="illustration-service-s-path7-stroke-0" offset="0%" stop-color="#e7eef8"/><stop id="illustration-service-s-path7-stroke-1" offset="100%" stop-color="#eaa0e1"/></linearGradient><radialGradient id="illustration-service-s-path9-stroke" cx="0" cy="0" r="1" spreadMethod="pad" gradientUnits="userSpaceOnUse" gradientTransform="matrix(56.4828 0 0 56.4828 158 376)"><stop id="illustration-service-s-path9-stroke-0" offset="13.5417%" stop-color="#b658bb"/><stop id="illustration-service-s-path9-stroke-1" offset="100%" stop-color="#1341a9"/></radialGradient><linearGradient id="illustration-service-s-path10-fill" x1="339.466" y1="457.864" x2="339.466" y2="296.415" spreadMethod="pad" gradientUnits="userSpaceOnUse" gradientTransform="translate(0 0)"><stop id="illustration-service-s-path10-fill-0" offset="0%" stop-color="#ecf3fb"/><stop id="illustration-service-s-path10-fill-1" offset="100%" stop-color="#fff"/></linearGradient><linearGradient id="illustration-service-s-path10-stroke" x1="339.466" y1="457.864" x2="339.466" y2="296.415" spreadMethod="pad" gradientUnits="userSpaceOnUse" gradientTransform="translate(0 0)"><stop id="illustration-service-s-path10-stroke-0" offset="0%" stop-color="#e7eef8"/><stop id="illustration-service-s-path10-stroke-1" offset="100%" stop-color="#eaa0e1"/></linearGradient><radialGradient id="illustration-service-s-path12-fill" cx="0" cy="0" r="1" spreadMethod="pad" gradientUnits="userSpaceOnUse" gradientTransform="matrix(58.8362 0 0 54.9138 326.5 362.5)"><stop id="illustration-service-s-path12-fill-0" offset="13.5417%" stop-color="#b658bb"/><stop id="illustration-service-s-path12-fill-1" offset="100%" stop-color="#1341a9"/></radialGradient><linearGradient id="illustration-service-s-path13-fill" x1="420.725" y1="317.353" x2="420.725" y2="155.904" spreadMethod="pad" gradientUnits="userSpaceOnUse" gradientTransform="translate(0 0)"><stop id="illustration-service-s-path13-fill-0" offset="0%" stop-color="#ecf3fb"/><stop id="illustration-service-s-path13-fill-1" offset="100%" stop-color="#fff"/></linearGradient><linearGradient id="illustration-service-s-path13-stroke" x1="420.725" y1="317.353" x2="420.725" y2="155.904" spreadMethod="pad" gradientUnits="userSpaceOnUse" gradientTransform="translate(0 0)"><stop id="illustration-service-s-path13-stroke-0" offset="0%" stop-color="#e7eef8"/><stop id="illustration-service-s-path13-stroke-1" offset="100%" stop-color="#eaa0e1"/></linearGradient><radialGradient id="illustration-service-s-path15-fill" cx="0" cy="0" r="1" spreadMethod="pad" gradientUnits="userSpaceOnUse" gradientTransform="matrix(52.2989 0 0 47.0928 404.333 233.013)"><stop id="illustration-service-s-path15-fill-0" offset="13.5417%" stop-color="#b658bb"/><stop id="illustration-service-s-path15-fill-1" offset="100%" stop-color="#1341a9"/></radialGradient><linearGradient id="illustration-service-s-path16-fill" x1="94.7239" y1="317.353" x2="94.7239" y2="155.904" spreadMethod="pad" gradientUnits="userSpaceOnUse" gradientTransform="translate(0 0)"><stop id="illustration-service-s-path16-fill-0" offset="0%" stop-color="#ecf3fb"/><stop id="illustration-service-s-path16-fill-1" offset="100%" stop-color="#fff"/></linearGradient><linearGradient id="illustration-service-s-path16-stroke" x1="94.7239" y1="317.353" x2="94.7239" y2="155.904" spreadMethod="pad" gradientUnits="userSpaceOnUse" gradientTransform="translate(0 0)"><stop id="illustration-service-s-path16-stroke-0" offset="0%" stop-color="#e7eef8"/><stop id="illustration-service-s-path16-stroke-1" offset="100%" stop-color="#eaa0e1"/></linearGradient><radialGradient id="illustration-service-s-path18-stroke" cx="0" cy="0" r="1" spreadMethod="pad" gradientUnits="userSpaceOnUse" gradientTransform="matrix(52.3402 0 0 47.0906 76.3203 237)"><stop id="illustration-service-s-path18-stroke-0" offset="13.5417%" stop-color="#b658bb"/><stop id="illustration-service-s-path18-stroke-1" offset="100%" stop-color="#1341a9"/></radialGradient><radialGradient id="illustration-service-s-path19-stroke" cx="0" cy="0" r="1" spreadMethod="pad" gradientUnits="userSpaceOnUse" gradientTransform="matrix(32.6809 0 0 33.0529 86.7539 232)"><stop id="illustration-service-s-path19-stroke-0" offset="13.5417%" stop-color="#b658bb"/><stop id="illustration-service-s-path19-stroke-1" offset="100%" stop-color="#1341a9"/></radialGradient></defs><g id="illustration-service-s-g1"><path id="illustration-service-s-path1" d="M175.724,178.242c1.985,0,3.843-.526,6-1.503c2.126-.963,4.611-2.398,7.837-4.261l.047-.027l43.141-24.907.047-.027c3.226-1.863,5.711-3.298,7.608-4.657c1.924-1.379,3.31-2.726,4.302-4.445.993-1.719,1.466-3.592,1.698-5.948.229-2.323.229-5.192.229-8.917v-.054-49.8154-.0542c0-3.7253,0-6.5944-.229-8.9173-.232-2.3559-.705-4.2287-1.698-5.9478s-2.378-3.0654-4.302-4.4445c-1.897-1.3597-4.382-2.7942-7.608-4.6568l-.047-.0272-43.141-24.9077-.048-.0274c-3.226-1.8625-5.71-3.2969-7.836-4.26-2.157-.9769-4.015-1.5033-6-1.5033s-3.844.5264-6,1.5033c-2.126.9631-4.611,2.3977-7.837,4.2603l-.047.0271-43.141,24.9076-.048.0273c-3.226,1.8626-5.71,3.2971-7.607,4.6568-1.925,1.3791-3.31,2.7254-4.302,4.4445-.993,1.7191-1.466,3.5919-1.699,5.9478-.229,2.3229-.228,5.1921-.228,8.9175v.054v49.8154.054c0,3.725-.001,6.594.228,8.917.233,2.356.706,4.229,1.699,5.948.992,1.719,2.377,3.066,4.302,4.445c1.897,1.359,4.381,2.794,7.608,4.657l.047.027l43.141,24.907.047.027c3.226,1.863,5.711,3.298,7.837,4.261c2.156.977,4.015,1.503,6,1.503Z" fill="url(#illustration-service-s-path1-fill)" stroke="url(#illustration-service-s-path1-stroke)" stroke-width="2"/><path id="illustration-service-s-path2" d="M140.312,110.849c1.632,0,2.916.39,3.852,1.17s1.404,1.854,1.404,3.222-.468,2.442-1.404,3.222-2.22,1.17-3.852,1.17h-3.114v3.816h-1.8v-12.6h4.914Zm-.054,7.218c1.14,0,2.01-.24,2.61-.72.6-.492.9-1.194.9-2.106s-.3-1.608-.9-2.088c-.6-.492-1.47-.738-2.61-.738h-3.06v5.652h3.06Zm9.2-2.556c.3-.552.744-.972,1.332-1.26s1.302-.432,2.142-.432v1.674c-.096-.012-.228-.018-.396-.018-.936,0-1.674.282-2.214.846-.528.552-.792,1.344-.792,2.376v4.752h-1.728v-9.54h1.656v1.602Zm14.138,3.222c0,.132-.012.306-.036.522h-7.74c.108.84.474,1.518,1.098,2.034.636.504,1.422.756,2.358.756c1.14,0,2.058-.384,2.754-1.152l.954,1.116c-.432.504-.972.888-1.62,1.152-.636.264-1.35.396-2.142.396-1.008,0-1.902-.204-2.682-.612-.78-.42-1.386-1.002-1.818-1.746-.42-.744-.63-1.584-.63-2.52c0-.924.204-1.758.612-2.502.42-.744.99-1.32,1.71-1.728.732-.42,1.554-.63,2.466-.63s1.722.21,2.43.63c.72.408,1.278.984,1.674,1.728.408.744.612,1.596.612,2.556Zm-4.716-3.456c-.828,0-1.524.252-2.088.756-.552.504-.876,1.164-.972,1.98h6.12c-.096-.804-.426-1.458-.99-1.962-.552-.516-1.242-.774-2.07-.774Zm11.273,8.28c-.972,0-1.842-.21-2.61-.63-.756-.42-1.35-.996-1.782-1.728-.432-.744-.648-1.584-.648-2.52s.216-1.77.648-2.502c.432-.744,1.026-1.32,1.782-1.728.768-.42,1.638-.63,2.61-.63.864,0,1.632.174,2.304.522.684.348,1.212.852,1.584,1.512l-1.314.846c-.3-.456-.672-.798-1.116-1.026s-.936-.342-1.476-.342c-.624,0-1.188.138-1.692.414-.492.276-.882.672-1.17,1.188-.276.504-.414,1.086-.414,1.746c0,.672.138,1.266.414,1.782.288.504.678.894,1.17,1.17.504.276,1.068.414,1.692.414.54,0,1.032-.114,1.476-.342s.816-.57,1.116-1.026l1.314.828c-.372.66-.9,1.17-1.584,1.53-.672.348-1.44.522-2.304.522Zm6.126-9.648h1.728v9.54h-1.728v-9.54Zm.864-1.836c-.336,0-.618-.108-.846-.324-.216-.216-.324-.48-.324-.792s.108-.576.324-.792c.228-.228.51-.342.846-.342s.612.108.828.324c.228.204.342.462.342.774c0,.324-.114.6-.342.828-.216.216-.492.324-.828.324Zm6.899,11.484c-.78,0-1.53-.102-2.25-.306-.72-.216-1.284-.486-1.692-.81l.72-1.368c.42.3.93.54,1.53.72s1.206.27,1.818.27c1.512,0,2.268-.432,2.268-1.296c0-.288-.102-.516-.306-.684s-.462-.288-.774-.36c-.3-.084-.732-.174-1.296-.27-.768-.12-1.398-.258-1.89-.414-.48-.156-.894-.42-1.242-.792s-.522-.894-.522-1.566c0-.864.36-1.554,1.08-2.07.72-.528,1.686-.792,2.898-.792.636,0,1.272.078,1.908.234s1.158.366,1.566.63l-.738,1.368c-.78-.504-1.698-.756-2.754-.756-.732,0-1.29.12-1.674.36s-.576.558-.576.954c0,.312.108.558.324.738s.48.312.792.396c.324.084.774.18,1.35.288.768.132,1.386.276,1.854.432.48.144.888.396,1.224.756s.504.864.504,1.512c0,.864-.372,1.554-1.116,2.07-.732.504-1.734.756-3.006.756Zm6.281-9.648h1.728v9.54h-1.728v-9.54Zm.864-1.836c-.336,0-.618-.108-.846-.324-.216-.216-.324-.48-.324-.792s.108-.576.324-.792c.228-.228.51-.342.846-.342s.612.108.828.324c.228.204.342.462.342.774c0,.324-.114.6-.342.828-.216.216-.492.324-.828.324Zm8.25,11.484c-.948,0-1.8-.21-2.556-.63s-1.35-.996-1.782-1.728c-.42-.744-.63-1.584-.63-2.52s.21-1.77.63-2.502c.432-.744,1.026-1.32,1.782-1.728.756-.42,1.608-.63,2.556-.63s1.794.21,2.538.63c.756.408,1.344.984,1.764,1.728.432.732.648,1.566.648,2.502s-.216,1.776-.648,2.52c-.42.732-1.008,1.308-1.764,1.728-.744.42-1.59.63-2.538.63Zm0-1.512c.612,0,1.158-.138,1.638-.414.492-.288.876-.684,1.152-1.188.276-.516.414-1.104.414-1.764s-.138-1.242-.414-1.746c-.276-.516-.66-.912-1.152-1.188-.48-.276-1.026-.414-1.638-.414s-1.164.138-1.656.414c-.48.276-.864.672-1.152,1.188-.276.504-.414,1.086-.414,1.746s.138,1.248.414,1.764c.288.504.672.9,1.152,1.188.492.276,1.044.414,1.656.414Zm12.434-8.226c1.212,0,2.172.354,2.88,1.062.72.696,1.08,1.722,1.08,3.078v5.49h-1.728v-5.292c0-.924-.222-1.62-.666-2.088s-1.08-.702-1.908-.702c-.936,0-1.674.276-2.214.828-.54.54-.81,1.32-.81,2.34v4.914h-1.728v-9.54h1.656v1.44c.348-.492.816-.87,1.404-1.134.6-.264,1.278-.396,2.034-.396Z" fill="#18265a"/><g id="illustration-service-s-g2" clip-path="url(#illustration-service-u-clip0_337_9630)"><g id="illustration-service-s-g3"><path id="illustration-service-s-path3" d="M176.991,60.5401v.1117l.111.0125c3.353.3759,6.479,1.8801,8.865,4.2661s3.89,5.512,4.266,8.8653l.012.111h.112.092c.409,0,.801.1625,1.09.4516s.452.6812.452,1.0901-.163.801-.452,1.0901-.681.4516-1.09.4516h-.092-.112l-.012.111c-.376,3.3533-1.88,6.4793-4.266,8.8653s-5.512,3.8903-8.865,4.2661l-.111.0125v.1117.0917c0,.4089-.163.801-.452,1.0901s-.681.4516-1.09.4516-.801-.1625-1.09-.4516-.452-.6812-.452-1.0901v-.0917-.1117l-.111-.0125c-3.353-.3758-6.479-1.8801-8.865-4.2661s-3.89-5.512-4.266-8.8653l-.013-.111h-.111-.092c-.409,0-.801-.1625-1.09-.4516s-.452-.6812-.452-1.0901.163-.801.452-1.0901.681-.4516,1.09-.4516h.092.111l.013-.111c.376-3.3533,1.88-6.4793,4.266-8.8653s5.512-3.8902,8.865-4.2661l.111-.0125v-.1117-.0917c0-.4089.163-.801.452-1.0901s.681-.4516,1.09-.4516.801.1625,1.09.4516.452.6812.452,1.0901v.0917Zm-13.09,13.3666h1.548c.393.0005.771.1509,1.056.4207.286.2697.458.6384.481,1.0307s-.105.7785-.357,1.0798c-.251.3004-.607.4938-.996.541l-.188.0112h-1.546-.145l.021.1429c.354,2.4463,1.468,4.7195,3.183,6.4991c1.716,1.7796,3.947,2.9756,6.378,3.4193l.003.0004.423.0683.145.0234v-.1468-1.5482c.001-.3929.151-.7708.421-1.0566s.638-.4576,1.031-.4807c.392-.023.778.1046,1.079.3568.301.2515.494.6078.541.9966l.012.1875v1.5463.1444l.142-.0207c2.447-.3543,4.72-1.4677,6.5-3.1832c1.779-1.7155,2.975-3.9464,3.419-6.3781v-.0025l.069-.4233.023-.1449h-.147-1.548c-.393-.0005-.771-.1509-1.057-.4207-.285-.2697-.457-.6384-.48-1.0306s.104-.7786.357-1.0799c.251-.3004.607-.4938.996-.5409l.188-.0113h1.546.144l-.02-.1429c-.355-2.4462-1.468-4.7195-3.184-6.4991-1.715-1.7795-3.946-2.9756-6.378-3.4193v0l-.002-.0004-.424-.0683-.019.1217v0h-.125v.0017.1064v1.4418c-.001.3929-.151.7708-.421,1.0566-.27.2857-.638.4576-1.031.4807-.392.023-.778-.1046-1.08-.3568-.3-.2515-.493-.6078-.541-.9966l-.011-.1875v-1.5463-.1444l-.143.0207c-2.446.3543-4.719,1.4677-6.499,3.1832-1.779,1.7155-2.975,3.9464-3.419,6.3781v0l-.001.0025-.068.4233-.023.1449h.147Zm11.548-.8333c.63,0,1.234.2502,1.679.6956.446.4454.696,1.0495.696,1.6794s-.25,1.234-.696,1.6794c-.445.4454-1.049.6956-1.679.6956s-1.234-.2502-1.679-.6956c-.446-.4454-.696-1.0495-.696-1.6794s.25-1.234.696-1.6794c.445-.4454,1.049-.6956,1.679-.6956Z" fill="url(#illustration-service-s-path3-fill)" stroke="#ecf3fb" stroke-width="0.25"/></g><clipPath id="illustration-service-u-clip0_337_9630"><rect id="illustration-service-s-rect1" width="40" height="40" rx="0" ry="0" transform="translate(155.449 55.4487)" fill="#fff"/></clipPath></g></g><g id="illustration-service-s-g4" transform="translate(0 0.000001)"><path id="illustration-service-s-path4" d="M338.724,177.378c1.985,0,3.843-.526,6-1.503c2.126-.963,4.611-2.398,7.837-4.26l.047-.028l43.141-24.907.047-.027c3.226-1.863,5.711-3.297,7.608-4.657c1.924-1.379,3.31-2.726,4.302-4.445.993-1.719,1.466-3.592,1.698-5.948.229-2.322.229-5.191.229-8.917v-.054-49.8152-.0542c0-3.7253,0-6.5944-.229-8.9172-.232-2.356-.705-4.2288-1.698-5.9479s-2.378-3.0654-4.302-4.4445c-1.897-1.3597-4.382-2.7942-7.608-4.6568l-.047-.0272-43.141-24.9076-.048-.0274c-3.226-1.8625-5.71-3.297-7.836-4.2601-2.157-.9768-4.015-1.5033-6-1.5033s-3.844.5265-6,1.5033c-2.126.9632-4.611,2.3977-7.837,4.2604l-.047.0271L281.699,48.769l-.048.0272c-3.226,1.8626-5.71,3.2971-7.607,4.6568-1.925,1.3791-3.31,2.7255-4.302,4.4445-.993,1.7191-1.466,3.5919-1.699,5.9479-.229,2.3229-.228,5.192-.228,8.9175v.0539v49.8152.054c0,3.725-.001,6.595.228,8.918.233,2.355.706,4.228,1.699,5.947.992,1.719,2.377,3.066,4.302,4.445c1.897,1.36,4.381,2.794,7.608,4.657l.047.027l43.141,24.907.047.028c3.226,1.862,5.711,3.297,7.837,4.26c2.156.977,4.015,1.503,6,1.503Z" fill="url(#illustration-service-s-path4-fill)" stroke="url(#illustration-service-s-path4-stroke)" stroke-width="2"/><path id="illustration-service-s-path5" d="M299.414,123.593c-.948,0-1.866-.144-2.754-.432-.876-.3-1.566-.684-2.07-1.152l.666-1.404c.48.432,1.092.786,1.836,1.062.756.264,1.53.396,2.322.396c1.044,0,1.824-.174,2.34-.522.516-.36.774-.834.774-1.422c0-.432-.144-.78-.432-1.044-.276-.276-.624-.486-1.044-.63-.408-.144-.99-.306-1.746-.486-.948-.228-1.716-.456-2.304-.684-.576-.228-1.074-.576-1.494-1.044-.408-.48-.612-1.122-.612-1.926c0-.672.174-1.278.522-1.818.36-.54.9-.972,1.62-1.296s1.614-.486,2.682-.486c.744,0,1.476.096,2.196.288s1.338.468,1.854.828l-.594,1.44c-.528-.336-1.092-.588-1.692-.756-.6-.18-1.188-.27-1.764-.27-1.02,0-1.788.186-2.304.558-.504.372-.756.852-.756,1.44c0,.432.144.786.432,1.062.288.264.642.474,1.062.63.432.144,1.014.3,1.746.468.948.228,1.71.456,2.286.684s1.068.576,1.476,1.044c.42.468.63,1.098.63,1.89c0,.66-.18,1.266-.54,1.818-.36.54-.906.972-1.638,1.296-.732.312-1.632.468-2.7.468Zm7.256-9.684h1.728v9.54h-1.728v-9.54Zm.864-1.836c-.336,0-.618-.108-.846-.324-.216-.216-.324-.48-.324-.792s.108-.576.324-.792c.228-.228.51-.342.846-.342s.612.108.828.324c.228.204.342.462.342.774c0,.324-.114.6-.342.828-.216.216-.492.324-.828.324Zm16.097,1.746c1.2,0,2.148.348,2.844,1.044.708.696,1.062,1.728,1.062,3.096v5.49h-1.728v-5.292c0-.924-.216-1.62-.648-2.088-.42-.468-1.026-.702-1.818-.702-.876,0-1.572.276-2.088.828-.516.54-.774,1.32-.774,2.34v4.914h-1.728v-5.292c0-.924-.216-1.62-.648-2.088-.42-.468-1.026-.702-1.818-.702-.876,0-1.572.276-2.088.828-.516.54-.774,1.32-.774,2.34v4.914h-1.728v-9.54h1.656v1.422c.348-.492.804-.864,1.368-1.116.564-.264,1.206-.396,1.926-.396.744,0,1.404.15,1.98.45s1.02.738,1.332,1.314c.36-.552.858-.984,1.494-1.296.648-.312,1.374-.468,2.178-.468Zm12.144,0c.924,0,1.752.204,2.484.612s1.302.978,1.71,1.71c.42.732.63,1.578.63,2.538s-.21,1.812-.63,2.556c-.408.732-.978,1.302-1.71,1.71s-1.56.612-2.484.612c-.684,0-1.314-.132-1.89-.396-.564-.264-1.044-.648-1.44-1.152v4.932h-1.728v-13.032h1.656v1.512c.384-.528.87-.924,1.458-1.188.588-.276,1.236-.414,1.944-.414Zm-.144,8.226c.612,0,1.158-.138,1.638-.414.492-.288.876-.684,1.152-1.188.288-.516.432-1.104.432-1.764s-.144-1.242-.432-1.746c-.276-.516-.66-.912-1.152-1.188-.48-.276-1.026-.414-1.638-.414-.6,0-1.146.144-1.638.432-.48.276-.864.666-1.152,1.17-.276.504-.414,1.086-.414,1.746s.138,1.248.414,1.764c.276.504.66.9,1.152,1.188.492.276,1.038.414,1.638.414Zm7.356-11.952h1.728v13.356h-1.728v-13.356Zm5.027,3.816h1.728v9.54h-1.728v-9.54Zm.864-1.836c-.336,0-.618-.108-.846-.324-.216-.216-.324-.48-.324-.792s.108-.576.324-.792c.228-.228.51-.342.846-.342s.612.108.828.324c.228.204.342.462.342.774c0,.324-.114.6-.342.828-.216.216-.492.324-.828.324Zm8.321,11.484c-.972,0-1.842-.21-2.61-.63-.756-.42-1.35-.996-1.782-1.728-.432-.744-.648-1.584-.648-2.52s.216-1.77.648-2.502c.432-.744,1.026-1.32,1.782-1.728.768-.42,1.638-.63,2.61-.63.864,0,1.632.174,2.304.522.684.348,1.212.852,1.584,1.512l-1.314.846c-.3-.456-.672-.798-1.116-1.026s-.936-.342-1.476-.342c-.624,0-1.188.138-1.692.414-.492.276-.882.672-1.17,1.188-.276.504-.414,1.086-.414,1.746c0,.672.138,1.266.414,1.782.288.504.678.894,1.17,1.17.504.276,1.068.414,1.692.414.54,0,1.032-.114,1.476-.342s.816-.57,1.116-1.026l1.314.828c-.372.66-.9,1.17-1.584,1.53-.672.348-1.44.522-2.304.522Zm6.125-9.648h1.728v9.54h-1.728v-9.54Zm.864-1.836c-.336,0-.618-.108-.846-.324-.216-.216-.324-.48-.324-.792s.108-.576.324-.792c.228-.228.51-.342.846-.342s.612.108.828.324c.228.204.342.462.342.774c0,.324-.114.6-.342.828-.216.216-.492.324-.828.324Zm9.528,10.818c-.252.216-.564.384-.936.504-.372.108-.756.162-1.152.162-.96,0-1.704-.258-2.232-.774s-.792-1.254-.792-2.214v-5.238h-1.62v-1.422h1.62v-2.088h1.728v2.088h2.736v1.422h-2.736v5.166c0,.516.126.912.378,1.188.264.276.636.414,1.116.414.528,0,.978-.15,1.35-.45l.54,1.242Zm10.355-8.982l-4.626,10.494c-.408.972-.888,1.656-1.44,2.052-.54.396-1.194.594-1.962.594-.468,0-.924-.078-1.368-.234-.432-.144-.792-.36-1.08-.648l.738-1.296c.492.468,1.062.702,1.71.702.42,0,.768-.114,1.044-.342.288-.216.546-.594.774-1.134l.306-.666-4.212-9.522h1.8l3.33,7.632l3.294-7.632h1.692Z" fill="#18265a"/><path id="illustration-service-s-path6" d="M322.449,65.8654c0-1.4366.571-2.8143,1.587-3.8302c1.015-1.0158,2.393-1.5865,3.83-1.5865h19.166c1.437,0,2.815.5707,3.831,1.5865c1.015,1.0159,1.586,2.3936,1.586,3.8302v19.1667c0,1.4366-.571,2.8143-1.586,3.8301-1.016,1.0158-2.394,1.5865-3.831,1.5865h-19.166c-1.437,0-2.815-.5707-3.83-1.5865-1.016-1.0158-1.587-2.3935-1.587-3.8301v-19.1667Zm5.417-2.9167c-.774,0-1.516.3073-2.063.8543s-.854,1.2888-.854,2.0624v8.3333h11.25v-11.25h-8.333Zm8.333,13.75h-11.25v8.3334c0,1.61,1.307,2.9166,2.917,2.9166h8.333v-11.25Zm2.5,0v11.25h8.333c.774,0,1.516-.3073,2.063-.8542s.854-1.2889.854-2.0624v-8.3334h-11.25Zm11.25-2.5v-8.3333c0-.7736-.307-1.5154-.854-2.0624s-1.289-.8543-2.063-.8543h-8.333v11.25h11.25Z" fill="url(#illustration-service-s-path6-fill)"/></g><g id="illustration-service-s-g5" transform="translate(.000001 0.000001)"><path id="illustration-service-s-path7" d="M176.276,456.793c1.985,0,3.843-.526,6-1.503c2.126-.963,4.611-2.398,7.837-4.26l.047-.028l43.141-24.907.047-.027c3.226-1.863,5.711-3.298,7.608-4.657c1.924-1.379,3.309-2.726,4.302-4.445.992-1.719,1.466-3.592,1.698-5.948.229-2.322.229-5.192.229-8.917v-.054-49.815-.054c0-3.726,0-6.595-.229-8.918-.232-2.356-.706-4.228-1.698-5.948-.993-1.719-2.378-3.065-4.302-4.444-1.897-1.36-4.382-2.794-7.608-4.657l-.047-.027-43.141-24.908-.048-.027c-3.226-1.863-5.71-3.297-7.836-4.26-2.157-.977-4.015-1.503-6-1.503s-3.844.526-6,1.503c-2.126.963-4.611,2.398-7.837,4.26l-.047.027-43.142,24.908-.047.027c-3.226,1.863-5.711,3.297-7.608,4.657-1.924,1.379-3.309,2.725-4.302,4.444-.992,1.72-1.465,3.592-1.698,5.948-.229,2.323-.229,5.192-.229,8.918v.054v49.815.054c0,3.725,0,6.595.229,8.917.233,2.356.706,4.229,1.698,5.948.993,1.719,2.378,3.066,4.302,4.445c1.898,1.36,4.382,2.794,7.609,4.657l.046.027l43.142,24.907.046.027c3.227,1.863,5.712,3.298,7.838,4.261c2.156.977,4.015,1.503,6,1.503Z" fill="url(#illustration-service-s-path7-fill)" stroke="url(#illustration-service-s-path7-stroke)" stroke-width="2"/><path id="illustration-service-s-path8" d="M129.358,389.849h1.8v12.6h-1.8v-12.6Zm10.414,2.97c1.212,0,2.172.354,2.88,1.062.72.696,1.08,1.722,1.08,3.078v5.49h-1.728v-5.292c0-.924-.222-1.62-.666-2.088s-1.08-.702-1.908-.702c-.936,0-1.674.276-2.214.828-.54.54-.81,1.32-.81,2.34v4.914h-1.728v-9.54h1.656v1.44c.348-.492.816-.87,1.404-1.134.6-.264,1.278-.396,2.034-.396Zm12.252,0c1.212,0,2.172.354,2.88,1.062.72.696,1.08,1.722,1.08,3.078v5.49h-1.728v-5.292c0-.924-.222-1.62-.666-2.088s-1.08-.702-1.908-.702c-.936,0-1.674.276-2.214.828-.54.54-.81,1.32-.81,2.34v4.914h-1.728v-9.54h1.656v1.44c.348-.492.816-.87,1.404-1.134.6-.264,1.278-.396,2.034-.396Zm11.297,9.738c-.948,0-1.8-.21-2.556-.63s-1.35-.996-1.782-1.728c-.42-.744-.63-1.584-.63-2.52s.21-1.77.63-2.502c.432-.744,1.026-1.32,1.782-1.728.756-.42,1.608-.63,2.556-.63s1.794.21,2.538.63c.756.408,1.344.984,1.764,1.728.432.732.648,1.566.648,2.502s-.216,1.776-.648,2.52c-.42.732-1.008,1.308-1.764,1.728-.744.42-1.59.63-2.538.63Zm0-1.512c.612,0,1.158-.138,1.638-.414.492-.288.876-.684,1.152-1.188.276-.516.414-1.104.414-1.764s-.138-1.242-.414-1.746c-.276-.516-.66-.912-1.152-1.188-.48-.276-1.026-.414-1.638-.414s-1.164.138-1.656.414c-.48.276-.864.672-1.152,1.188-.276.504-.414,1.086-.414,1.746s.138,1.248.414,1.764c.288.504.672.9,1.152,1.188.492.276,1.044.414,1.656.414Zm15.518-8.136l-4.176,9.54h-1.764l-4.176-9.54h1.8l3.276,7.65l3.348-7.65h1.692Zm4.788-.09c1.32,0,2.328.324,3.024.972.708.648,1.062,1.614,1.062,2.898v5.76h-1.638v-1.26c-.288.444-.702.786-1.242,1.026-.528.228-1.158.342-1.89.342-1.068,0-1.926-.258-2.574-.774-.636-.516-.954-1.194-.954-2.034s.306-1.512.918-2.016c.612-.516,1.584-.774,2.916-.774h2.736v-.342c0-.744-.216-1.314-.648-1.71s-1.068-.594-1.908-.594c-.564,0-1.116.096-1.656.288-.54.18-.996.426-1.368.738l-.72-1.296c.492-.396,1.08-.696,1.764-.9.684-.216,1.41-.324,2.178-.324Zm-.396,8.406c.66,0,1.23-.144,1.71-.432.48-.3.828-.72,1.044-1.26v-1.332h-2.664c-1.464,0-2.196.492-2.196,1.476c0,.48.186.858.558,1.134s.888.414,1.548.414Zm13.043.666c-.252.216-.564.384-.936.504-.372.108-.756.162-1.152.162-.96,0-1.704-.258-2.232-.774s-.792-1.254-.792-2.214v-5.238h-1.62v-1.422h1.62v-2.088h1.728v2.088h2.736v1.422h-2.736v5.166c0,.516.126.912.378,1.188.264.276.636.414,1.116.414.528,0,.978-.15,1.35-.45l.54,1.242Zm2.09-8.982h1.728v9.54h-1.728v-9.54Zm.864-1.836c-.336,0-.618-.108-.846-.324-.216-.216-.324-.48-.324-.792s.108-.576.324-.792c.228-.228.51-.342.846-.342s.612.108.828.324c.228.204.342.462.342.774c0,.324-.114.6-.342.828-.216.216-.492.324-.828.324Zm8.249,11.484c-.948,0-1.8-.21-2.556-.63s-1.35-.996-1.782-1.728c-.42-.744-.63-1.584-.63-2.52s.21-1.77.63-2.502c.432-.744,1.026-1.32,1.782-1.728.756-.42,1.608-.63,2.556-.63s1.794.21,2.538.63c.756.408,1.344.984,1.764,1.728.432.732.648,1.566.648,2.502s-.216,1.776-.648,2.52c-.42.732-1.008,1.308-1.764,1.728-.744.42-1.59.63-2.538.63Zm0-1.512c.612,0,1.158-.138,1.638-.414.492-.288.876-.684,1.152-1.188.276-.516.414-1.104.414-1.764s-.138-1.242-.414-1.746c-.276-.516-.66-.912-1.152-1.188-.48-.276-1.026-.414-1.638-.414s-1.164.138-1.656.414c-.48.276-.864.672-1.152,1.188-.276.504-.414,1.086-.414,1.746s.138,1.248.414,1.764c.288.504.672.9,1.152,1.188.492.276,1.044.414,1.656.414Zm12.434-8.226c1.212,0,2.172.354,2.88,1.062.72.696,1.08,1.722,1.08,3.078v5.49h-1.728v-5.292c0-.924-.222-1.62-.666-2.088s-1.08-.702-1.908-.702c-.936,0-1.674.276-2.214.828-.54.54-.81,1.32-.81,2.34v4.914h-1.728v-9.54h1.656v1.44c.348-.492.816-.87,1.404-1.134.6-.264,1.278-.396,2.034-.396Z" fill="#18265a"/><g id="illustration-service-s-g6" clip-path="url(#illustration-service-u-clip1_337_9630)"><g id="illustration-service-s-g7"><path id="illustration-service-s-path9" d="M171.326,368h9.346M176,340v2m12.728,3.272l-1.414,1.414M194,358h-2m-32,0h-2m6.686-11.314l-1.414-1.414m5.656,19.8c-1.398-1.399-2.35-3.181-2.736-5.12-.386-1.94-.187-3.951.569-5.778.757-1.827,2.039-3.389,3.684-4.487c1.644-1.099,3.577-1.685,5.555-1.685s3.911.586,5.555,1.685c1.645,1.098,2.927,2.66,3.684,4.487.756,1.827.955,3.838.569,5.778-.386,1.939-1.338,3.721-2.736,5.12l-1.096,1.094c-.627.626-1.124,1.37-1.463,2.189s-.513,1.697-.513,2.583v1.062c0,1.061-.421,2.078-1.172,2.828-.75.75-1.767,1.172-2.828,1.172s-2.078-.422-2.828-1.172c-.751-.75-1.172-1.767-1.172-2.828v-1.062c0-1.79-.712-3.508-1.976-4.772l-1.096-1.094Z" fill="none" stroke="url(#illustration-service-s-path9-stroke)" stroke-width="2.5" stroke-linecap="round" stroke-linejoin="round"/></g><clipPath id="illustration-service-u-clip1_337_9630"><rect id="illustration-service-s-rect2" width="40" height="40" rx="0" ry="0" transform="translate(156 338)" fill="#fff"/></clipPath></g></g><g id="illustration-service-s-g8" transform="translate(.000001 0.000001)"><path id="illustration-service-s-path10" d="M339.466,456.793c1.985,0,3.844-.526,6-1.503c2.126-.963,4.611-2.398,7.837-4.26l.047-.028l43.141-24.907.047-.027c3.227-1.863,5.711-3.298,7.608-4.657c1.925-1.379,3.31-2.726,4.302-4.445.993-1.719,1.466-3.592,1.698-5.948.229-2.322.229-5.192.229-8.917v-.054-49.815-.054c0-3.726,0-6.595-.229-8.918-.232-2.356-.705-4.228-1.698-5.948-.992-1.719-2.377-3.065-4.302-4.444-1.897-1.36-4.381-2.794-7.607-4.657l-.048-.027-43.141-24.908-.047-.027c-3.226-1.863-5.711-3.297-7.837-4.26-2.156-.977-4.015-1.503-6-1.503s-3.843.526-6,1.503c-2.126.963-4.611,2.398-7.837,4.26l-.047.027-43.141,24.908-.047.027c-3.226,1.863-5.711,3.297-7.608,4.657-1.924,1.379-3.31,2.725-4.302,4.444-.993,1.72-1.466,3.592-1.698,5.948-.229,2.323-.229,5.192-.229,8.918v.054v49.815.054c0,3.725,0,6.595.229,8.917.232,2.356.705,4.229,1.698,5.948.992,1.719,2.378,3.066,4.302,4.445c1.897,1.36,4.382,2.794,7.608,4.657l.047.027l43.141,24.907.047.027c3.226,1.863,5.711,3.298,7.837,4.261c2.157.977,4.015,1.503,6,1.503Z" fill="url(#illustration-service-s-path10-fill)" stroke="url(#illustration-service-s-path10-stroke)" stroke-width="2"/><path id="illustration-service-s-path11" d="M302,391.593c-1.26,0-2.4-.276-3.42-.828-1.008-.564-1.8-1.332-2.376-2.304-.576-.984-.864-2.088-.864-3.312s.288-2.322.864-3.294c.576-.984,1.374-1.752,2.394-2.304c1.02-.564,2.16-.846,3.42-.846.984,0,1.884.168,2.7.504.816.324,1.512.81,2.088,1.458l-1.17,1.134c-.948-.996-2.13-1.494-3.546-1.494-.936,0-1.782.21-2.538.63s-1.35,1.002-1.782,1.746c-.42.732-.63,1.554-.63,2.466s.21,1.74.63,2.484c.432.732,1.026,1.308,1.782,1.728s1.602.63,2.538.63c1.404,0,2.586-.504,3.546-1.512l1.17,1.134c-.576.648-1.278,1.14-2.106,1.476-.816.336-1.716.504-2.7.504Zm15.715-9.684v9.54h-1.638v-1.44c-.348.492-.81.876-1.386,1.152-.564.264-1.182.396-1.854.396-1.272,0-2.274-.348-3.006-1.044-.732-.708-1.098-1.746-1.098-3.114v-5.49h1.728v5.292c0,.924.222,1.626.666,2.106.444.468,1.08.702,1.908.702.912,0,1.632-.276,2.16-.828s.792-1.332.792-2.34v-4.932h1.728Zm6.025,9.648c-.78,0-1.53-.102-2.25-.306-.72-.216-1.284-.486-1.692-.81l.72-1.368c.42.3.93.54,1.53.72s1.206.27,1.818.27c1.512,0,2.268-.432,2.268-1.296c0-.288-.102-.516-.306-.684s-.462-.288-.774-.36c-.3-.084-.732-.174-1.296-.27-.768-.12-1.398-.258-1.89-.414-.48-.156-.894-.42-1.242-.792s-.522-.894-.522-1.566c0-.864.36-1.554,1.08-2.07.72-.528,1.686-.792,2.898-.792.636,0,1.272.078,1.908.234s1.158.366,1.566.63l-.738,1.368c-.78-.504-1.698-.756-2.754-.756-.732,0-1.29.12-1.674.36s-.576.558-.576.954c0,.312.108.558.324.738s.48.312.792.396c.324.084.774.18,1.35.288.768.132,1.386.276,1.854.432.48.144.888.396,1.224.756s.504.864.504,1.512c0,.864-.372,1.554-1.116,2.07-.732.504-1.734.756-3.006.756Zm11.646-.666c-.252.216-.564.384-.936.504-.372.108-.756.162-1.152.162-.96,0-1.704-.258-2.232-.774s-.792-1.254-.792-2.214v-5.238h-1.62v-1.422h1.62v-2.088h1.728v2.088h2.736v1.422h-2.736v5.166c0,.516.126.912.378,1.188.264.276.636.414,1.116.414.528,0,.978-.15,1.35-.45l.54,1.242Zm5.859.666c-.948,0-1.8-.21-2.556-.63s-1.35-.996-1.782-1.728c-.42-.744-.63-1.584-.63-2.52s.21-1.77.63-2.502c.432-.744,1.026-1.32,1.782-1.728.756-.42,1.608-.63,2.556-.63s1.794.21,2.538.63c.756.408,1.344.984,1.764,1.728.432.732.648,1.566.648,2.502s-.216,1.776-.648,2.52c-.42.732-1.008,1.308-1.764,1.728-.744.42-1.59.63-2.538.63Zm0-1.512c.612,0,1.158-.138,1.638-.414.492-.288.876-.684,1.152-1.188.276-.516.414-1.104.414-1.764s-.138-1.242-.414-1.746c-.276-.516-.66-.912-1.152-1.188-.48-.276-1.026-.414-1.638-.414s-1.164.138-1.656.414c-.48.276-.864.672-1.152,1.188-.276.504-.414,1.086-.414,1.746s.138,1.248.414,1.764c.288.504.672.9,1.152,1.188.492.276,1.044.414,1.656.414Zm19.273-8.226c1.2,0,2.148.348,2.844,1.044.708.696,1.062,1.728,1.062,3.096v5.49h-1.728v-5.292c0-.924-.216-1.62-.648-2.088-.42-.468-1.026-.702-1.818-.702-.876,0-1.572.276-2.088.828-.516.54-.774,1.32-.774,2.34v4.914h-1.728v-5.292c0-.924-.216-1.62-.648-2.088-.42-.468-1.026-.702-1.818-.702-.876,0-1.572.276-2.088.828-.516.54-.774,1.32-.774,2.34v4.914h-1.728v-9.54h1.656v1.422c.348-.492.804-.864,1.368-1.116.564-.264,1.206-.396,1.926-.396.744,0,1.404.15,1.98.45s1.02.738,1.332,1.314c.36-.552.858-.984,1.494-1.296.648-.312,1.374-.468,2.178-.468Zm15.761,4.914c0,.132-.012.306-.036.522h-7.74c.108.84.474,1.518,1.098,2.034.636.504,1.422.756,2.358.756c1.14,0,2.058-.384,2.754-1.152l.954,1.116c-.432.504-.972.888-1.62,1.152-.636.264-1.35.396-2.142.396-1.008,0-1.902-.204-2.682-.612-.78-.42-1.386-1.002-1.818-1.746-.42-.744-.63-1.584-.63-2.52c0-.924.204-1.758.612-2.502.42-.744.99-1.32,1.71-1.728.732-.42,1.554-.63,2.466-.63s1.722.21,2.43.63c.72.408,1.278.984,1.674,1.728.408.744.612,1.596.612,2.556Zm-4.716-3.456c-.828,0-1.524.252-2.088.756-.552.504-.876,1.164-.972,1.98h6.12c-.096-.804-.426-1.458-.99-1.962-.552-.516-1.242-.774-2.07-.774Zm8.771.234c.3-.552.744-.972,1.332-1.26s1.302-.432,2.142-.432v1.674c-.096-.012-.228-.018-.396-.018-.936,0-1.674.282-2.214.846-.528.552-.792,1.344-.792,2.376v4.752h-1.728v-9.54h1.656v1.602Zm-66.311,32.082c-1.26,0-2.4-.276-3.42-.828-1.008-.564-1.8-1.332-2.376-2.304-.576-.984-.864-2.088-.864-3.312s.288-2.322.864-3.294c.576-.984,1.374-1.752,2.394-2.304c1.02-.564,2.16-.846,3.42-.846.984,0,1.884.168,2.7.504.816.324,1.512.81,2.088,1.458l-1.17,1.134c-.948-.996-2.13-1.494-3.546-1.494-.936,0-1.782.21-2.538.63s-1.35,1.002-1.782,1.746c-.42.732-.63,1.554-.63,2.466s.21,1.74.63,2.484c.432.732,1.026,1.308,1.782,1.728s1.602.63,2.538.63c1.404,0,2.586-.504,3.546-1.512l1.17,1.134c-.576.648-1.278,1.14-2.106,1.476-.816.336-1.716.504-2.7.504Zm15.34-4.86c0,.132-.012.306-.036.522h-7.74c.108.84.474,1.518,1.098,2.034.636.504,1.422.756,2.358.756c1.14,0,2.058-.384,2.754-1.152l.954,1.116c-.432.504-.972.888-1.62,1.152-.636.264-1.35.396-2.142.396-1.008,0-1.902-.204-2.682-.612-.78-.42-1.386-1.002-1.818-1.746-.42-.744-.63-1.584-.63-2.52c0-.924.204-1.758.612-2.502.42-.744.99-1.32,1.71-1.728.732-.42,1.554-.63,2.466-.63s1.722.21,2.43.63c.72.408,1.278.984,1.674,1.728.408.744.612,1.596.612,2.556Zm-4.716-3.456c-.828,0-1.524.252-2.088.756-.552.504-.876,1.164-.972,1.98h6.12c-.096-.804-.426-1.458-.99-1.962-.552-.516-1.242-.774-2.07-.774Zm12.209-1.458c1.212,0,2.172.354,2.88,1.062.72.696,1.08,1.722,1.08,3.078v5.49h-1.728v-5.292c0-.924-.222-1.62-.666-2.088s-1.08-.702-1.908-.702c-.936,0-1.674.276-2.214.828-.54.54-.81,1.32-.81,2.34v4.914h-1.728v-9.54h1.656v1.44c.348-.492.816-.87,1.404-1.134.6-.264,1.278-.396,2.034-.396Zm12.522,9.072c-.252.216-.564.384-.936.504-.372.108-.756.162-1.152.162-.96,0-1.704-.258-2.232-.774s-.792-1.254-.792-2.214v-5.238h-1.62v-1.422h1.62v-2.088h1.728v2.088h2.736v1.422h-2.736v5.166c0,.516.126.912.378,1.188.264.276.636.414,1.116.414.528,0,.978-.15,1.35-.45l.54,1.242Zm3.745-7.38c.3-.552.744-.972,1.332-1.26s1.302-.432,2.142-.432v1.674c-.096-.012-.228-.018-.396-.018-.936,0-1.674.282-2.214.846-.528.552-.792,1.344-.792,2.376v4.752h-1.728v-9.54h1.656v1.602Zm5.604-1.602h1.728v9.54h-1.728v-9.54Zm.864-1.836c-.336,0-.618-.108-.846-.324-.216-.216-.324-.48-.324-.792s.108-.576.324-.792c.228-.228.51-.342.846-.342s.612.108.828.324c.228.204.342.462.342.774c0,.324-.114.6-.342.828-.216.216-.492.324-.828.324Zm8.321,11.484c-.972,0-1.842-.21-2.61-.63-.756-.42-1.35-.996-1.782-1.728-.432-.744-.648-1.584-.648-2.52s.216-1.77.648-2.502c.432-.744,1.026-1.32,1.782-1.728.768-.42,1.638-.63,2.61-.63.864,0,1.632.174,2.304.522.684.348,1.212.852,1.584,1.512l-1.314.846c-.3-.456-.672-.798-1.116-1.026s-.936-.342-1.476-.342c-.624,0-1.188.138-1.692.414-.492.276-.882.672-1.17,1.188-.276.504-.414,1.086-.414,1.746c0,.672.138,1.266.414,1.782.288.504.678.894,1.17,1.17.504.276,1.068.414,1.692.414.54,0,1.032-.114,1.476-.342s.816-.57,1.116-1.026l1.314.828c-.372.66-.9,1.17-1.584,1.53-.672.348-1.44.522-2.304.522Z" fill="#18265a"/><path id="illustration-service-s-path12" d="M339,330c1.236,0,2.445.367,3.472,1.053c1.028.687,1.829,1.663,2.302,2.805s.597,2.399.356,3.611c-.241,1.213-.837,2.326-1.711,3.2s-1.987,1.47-3.2,1.711c-1.212.241-2.469.117-3.611-.356s-2.118-1.274-2.805-2.302c-.686-1.027-1.053-2.236-1.053-3.472c0-1.658.658-3.247,1.831-4.419C335.753,330.658,337.342,330,339,330Zm0-2.5c-1.731,0-3.422.513-4.861,1.475-1.439.961-2.561,2.328-3.223,3.927-.662,1.598-.835,3.358-.498,5.055.338,1.697,1.171,3.256,2.395,4.48s2.783,2.057,4.48,2.395c1.697.337,3.457.164,5.055-.498c1.599-.662,2.966-1.784,3.927-3.223.962-1.439,1.475-3.13,1.475-4.861c0-2.321-.922-4.546-2.563-6.187s-3.866-2.563-6.187-2.563Zm12.5,35h-2.5v-6.25c0-1.658-.658-3.247-1.831-4.419-1.172-1.173-2.761-1.831-4.419-1.831h-7.5c-1.658,0-3.247.658-4.419,1.831-1.173,1.172-1.831,2.761-1.831,4.419v6.25h-2.5v-6.25c0-2.321.922-4.546,2.563-6.187s3.866-2.563,6.187-2.563h7.5c2.321,0,4.546.922,6.187,2.563s2.563,3.866,2.563,6.187v6.25Zm3.75-17.275l-3.237-3.237-1.763,1.762l5,5L364,340l-1.763-1.762-6.987,6.987Z" fill="url(#illustration-service-s-path12-fill)"/></g><g id="illustration-service-s-g9" transform="translate(.000001 0)"><path id="illustration-service-s-path13" d="M420.725,316.282c1.985,0,3.843-.526,6-1.503c2.126-.963,4.611-2.398,7.837-4.261l.047-.027l43.141-24.907.047-.027c3.226-1.863,5.711-3.298,7.608-4.657c1.924-1.379,3.31-2.726,4.302-4.445.993-1.719,1.466-3.592,1.698-5.948.229-2.323.229-5.192.229-8.917v-.054-49.815-.055c0-3.725,0-6.594-.229-8.917-.232-2.356-.705-4.229-1.698-5.948-.992-1.719-2.378-3.065-4.302-4.444-1.897-1.36-4.382-2.794-7.608-4.657l-.047-.027-43.141-24.908-.048-.027c-3.226-1.863-5.71-3.297-7.836-4.26-2.157-.977-4.015-1.504-6-1.504s-3.844.527-6,1.504c-2.126.963-4.611,2.397-7.837,4.26l-.047.027L363.7,187.673l-.048.027c-3.226,1.863-5.71,3.297-7.607,4.657-1.925,1.379-3.31,2.725-4.302,4.444-.993,1.719-1.466,3.592-1.698,5.948-.229,2.323-.229,5.192-.229,8.918v.054v49.815.054c0,3.725,0,6.594.229,8.917.232,2.356.705,4.229,1.698,5.948.992,1.719,2.377,3.066,4.302,4.445c1.897,1.359,4.382,2.794,7.608,4.657l.047.027l43.141,24.907.047.027c3.226,1.863,5.711,3.298,7.837,4.261c2.156.977,4.015,1.503,6,1.503Z" fill="url(#illustration-service-s-path13-fill)" stroke="url(#illustration-service-s-path13-stroke)" stroke-width="2"/><path id="illustration-service-s-path14" d="M392.641,249.849c1.632,0,2.916.39,3.852,1.17s1.404,1.854,1.404,3.222-.468,2.442-1.404,3.222-2.22,1.17-3.852,1.17h-3.114v3.816h-1.8v-12.6h4.914Zm-.054,7.218c1.14,0,2.01-.24,2.61-.72.6-.492.9-1.194.9-2.106s-.3-1.608-.9-2.088c-.6-.492-1.47-.738-2.61-.738h-3.06v5.652h3.06Zm11.088-4.248c1.32,0,2.328.324,3.024.972.708.648,1.062,1.614,1.062,2.898v5.76h-1.638v-1.26c-.288.444-.702.786-1.242,1.026-.528.228-1.158.342-1.89.342-1.068,0-1.926-.258-2.574-.774-.636-.516-.954-1.194-.954-2.034s.306-1.512.918-2.016c.612-.516,1.584-.774,2.916-.774h2.736v-.342c0-.744-.216-1.314-.648-1.71s-1.068-.594-1.908-.594c-.564,0-1.116.096-1.656.288-.54.18-.996.426-1.368.738l-.72-1.296c.492-.396,1.08-.696,1.764-.9.684-.216,1.41-.324,2.178-.324Zm-.396,8.406c.66,0,1.23-.144,1.71-.432.48-.3.828-.72,1.044-1.26v-1.332h-2.664c-1.464,0-2.196.492-2.196,1.476c0,.48.186.858.558,1.134s.888.414,1.548.414Zm10.416,1.332c-.78,0-1.53-.102-2.25-.306-.72-.216-1.284-.486-1.692-.81l.72-1.368c.42.3.93.54,1.53.72s1.206.27,1.818.27c1.512,0,2.268-.432,2.268-1.296c0-.288-.102-.516-.306-.684s-.462-.288-.774-.36c-.3-.084-.732-.174-1.296-.27-.768-.12-1.398-.258-1.89-.414-.48-.156-.894-.42-1.242-.792s-.522-.894-.522-1.566c0-.864.36-1.554,1.08-2.07.72-.528,1.686-.792,2.898-.792.636,0,1.272.078,1.908.234s1.158.366,1.566.63l-.738,1.368c-.78-.504-1.698-.756-2.754-.756-.732,0-1.29.12-1.674.36s-.576.558-.576.954c0,.312.108.558.324.738s.48.312.792.396c.324.084.774.18,1.35.288.768.132,1.386.276,1.854.432.48.144.888.396,1.224.756s.504.864.504,1.512c0,.864-.372,1.554-1.116,2.07-.732.504-1.734.756-3.006.756Zm9.018,0c-.78,0-1.53-.102-2.25-.306-.72-.216-1.284-.486-1.692-.81l.72-1.368c.42.3.93.54,1.53.72s1.206.27,1.818.27c1.512,0,2.268-.432,2.268-1.296c0-.288-.102-.516-.306-.684s-.462-.288-.774-.36c-.3-.084-.732-.174-1.296-.27-.768-.12-1.398-.258-1.89-.414-.48-.156-.894-.42-1.242-.792s-.522-.894-.522-1.566c0-.864.36-1.554,1.08-2.07.72-.528,1.686-.792,2.898-.792.636,0,1.272.078,1.908.234s1.158.366,1.566.63l-.738,1.368c-.78-.504-1.698-.756-2.754-.756-.732,0-1.29.12-1.674.36s-.576.558-.576.954c0,.312.108.558.324.738s.48.312.792.396c.324.084.774.18,1.35.288.768.132,1.386.276,1.854.432.48.144.888.396,1.224.756s.504.864.504,1.512c0,.864-.372,1.554-1.116,2.07-.732.504-1.734.756-3.006.756Zm6.281-9.648h1.728v9.54h-1.728v-9.54Zm.864-1.836c-.336,0-.618-.108-.846-.324-.216-.216-.324-.48-.324-.792s.108-.576.324-.792c.228-.228.51-.342.846-.342s.612.108.828.324c.228.204.342.462.342.774c0,.324-.114.6-.342.828-.216.216-.492.324-.828.324Zm8.25,11.484c-.948,0-1.8-.21-2.556-.63s-1.35-.996-1.782-1.728c-.42-.744-.63-1.584-.63-2.52s.21-1.77.63-2.502c.432-.744,1.026-1.32,1.782-1.728.756-.42,1.608-.63,2.556-.63s1.794.21,2.538.63c.756.408,1.344.984,1.764,1.728.432.732.648,1.566.648,2.502s-.216,1.776-.648,2.52c-.42.732-1.008,1.308-1.764,1.728-.744.42-1.59.63-2.538.63Zm0-1.512c.612,0,1.158-.138,1.638-.414.492-.288.876-.684,1.152-1.188.276-.516.414-1.104.414-1.764s-.138-1.242-.414-1.746c-.276-.516-.66-.912-1.152-1.188-.48-.276-1.026-.414-1.638-.414s-1.164.138-1.656.414c-.48.276-.864.672-1.152,1.188-.276.504-.414,1.086-.414,1.746s.138,1.248.414,1.764c.288.504.672.9,1.152,1.188.492.276,1.044.414,1.656.414Zm12.434-8.226c1.212,0,2.172.354,2.88,1.062.72.696,1.08,1.722,1.08,3.078v5.49h-1.728v-5.292c0-.924-.222-1.62-.666-2.088s-1.08-.702-1.908-.702c-.936,0-1.674.276-2.214.828-.54.54-.81,1.32-.81,2.34v4.914h-1.728v-9.54h1.656v1.44c.348-.492.816-.87,1.404-1.134.6-.264,1.278-.396,2.034-.396Z" fill="#18265a"/><path id="illustration-service-s-path15" d="M421,233c-1.075-.953-2.29-1.945-3.575-3h-.017c-4.525-3.7-9.653-7.887-11.918-12.903-.744-1.597-1.139-3.334-1.157-5.097-.002-1.197.234-2.382.696-3.486s1.14-2.104,1.994-2.943c.854-.838,1.867-1.498,2.979-1.939c1.112-.442,2.301-.657,3.498-.632c1.968.003,3.893.572,5.546,1.638.727.472,1.385,1.042,1.954,1.695.573-.65,1.23-1.22,1.955-1.695c1.653-1.066,3.578-1.635,5.545-1.638c1.196-.025,2.386.19,3.498.632c1.112.441,2.125,1.101,2.979,1.939.854.839,1.532,1.839,1.993,2.943.462,1.104.699,2.289.696,3.486-.017,1.765-.411,3.505-1.156,5.105-2.265,5.017-7.392,9.202-11.917,12.895l-.017.013c-1.286,1.049-2.5,2.04-3.575,3L421,233Zm-7.5-26.667c-1.553-.019-3.05.575-4.167,1.654-.532.523-.954,1.148-1.241,1.837-.286.689-.431,1.429-.426,2.176.019,1.283.31,2.55.854,3.713c1.069,2.165,2.512,4.124,4.261,5.787c1.652,1.667,3.552,3.28,5.195,4.637.455.375.919.753,1.382,1.131l.292.239c.445.363.905.74,1.35,1.11l.021-.02.01-.009h.01l.015-.011h.017l.03-.025.068-.055.012-.01.018-.014h.01l.015-.013l1.107-.908.29-.239c.468-.381.932-.76,1.387-1.135c1.643-1.356,3.545-2.968,5.196-4.643c1.751-1.662,3.193-3.621,4.262-5.785.553-1.173.85-2.453.867-3.75.003-.744-.143-1.482-.429-2.169-.287-.687-.708-1.31-1.24-1.831-1.114-1.084-2.612-1.683-4.166-1.667-.938-.008-1.867.183-2.726.559-.859.377-1.628.931-2.258,1.626l-2.516,2.9-2.517-2.9c-.629-.695-1.399-1.249-2.258-1.626-.859-.376-1.787-.567-2.725-.559Z" fill="url(#illustration-service-s-path15-fill)"/></g><g id="illustration-service-s-g10"><path id="illustration-service-s-path16" d="M94.7239,316.282c1.9851,0,3.8436-.526,6.0001-1.503c2.126-.963,4.611-2.398,7.837-4.261l.047-.027l43.141-24.907.047-.027c3.226-1.863,5.711-3.298,7.608-4.657c1.924-1.379,3.31-2.726,4.302-4.445.993-1.719,1.466-3.592,1.698-5.948.229-2.323.229-5.192.229-8.917v-.054-49.815-.055c0-3.725,0-6.594-.229-8.917-.232-2.356-.705-4.229-1.698-5.948-.992-1.719-2.378-3.065-4.302-4.444-1.897-1.36-4.381-2.794-7.608-4.657l-.047-.027-43.141-24.908-.048-.027c-3.225-1.863-5.71-3.297-7.836-4.26-2.1565-.977-4.015-1.504-6.0001-1.504-1.985,0-3.8436.527-6,1.504-2.1261.963-4.6108,2.397-7.8371,4.26l-.0469.027-43.1412,24.908-.0472.027c-3.2261,1.863-5.7108,3.297-7.6079,4.657-1.9242,1.379-3.3094,2.725-4.3019,4.444s-1.4659,3.592-1.6981,5.948c-.229,2.323-.229,5.192-.229,8.918v.054v49.815.054c0,3.725,0,6.594.229,8.917.2322,2.356.7056,4.229,1.6981,5.948s2.3777,3.066,4.3019,4.445c1.8972,1.359,4.382,2.794,7.6083,4.657l.0468.027l43.1412,24.907.0468.027c3.2263,1.863,5.7111,3.298,7.8372,4.261c2.1565.977,4.015,1.503,6,1.503Z" fill="url(#illustration-service-s-path16-fill)" stroke="url(#illustration-service-s-path16-stroke)" stroke-width="2"/><path id="illustration-service-s-path17" d="M57.8246,249.849h1.8v12.6h-1.8v-12.6Zm10.4142,2.97c1.212,0,2.172.354,2.88,1.062.72.696,1.08,1.722,1.08,3.078v5.49h-1.728v-5.292c0-.924-.222-1.62-.666-2.088s-1.08-.702-1.908-.702c-.936,0-1.674.276-2.214.828-.54.54-.81,1.32-.81,2.34v4.914h-1.728v-9.54h1.656v1.44c.348-.492.816-.87,1.404-1.134.6-.264,1.278-.396,2.034-.396Zm12.522,9.072c-.252.216-.564.384-.936.504-.372.108-.756.162-1.152.162-.96,0-1.704-.258-2.232-.774s-.792-1.254-.792-2.214v-5.238h-1.62v-1.422h1.62v-2.088h1.728v2.088h2.736v1.422h-2.736v5.166c0,.516.126.912.378,1.188.264.276.636.414,1.116.414.528,0,.978-.15,1.35-.45l.54,1.242Zm10.3947-4.158c0,.132-.012.306-.036.522h-7.74c.108.84.474,1.518,1.098,2.034.636.504,1.422.756,2.358.756c1.14,0,2.058-.384,2.754-1.152l.954,1.116c-.432.504-.972.888-1.62,1.152-.636.264-1.35.396-2.142.396-1.008,0-1.902-.204-2.682-.612-.78-.42-1.386-1.002-1.818-1.746-.42-.744-.63-1.584-.63-2.52c0-.924.204-1.758.612-2.502.42-.744.99-1.32,1.71-1.728.732-.42,1.554-.63,2.466-.63s1.722.21,2.43.63c.72.408,1.278.984,1.674,1.728.408.744.612,1.596.612,2.556Zm-4.716-3.456c-.828,0-1.524.252-2.088.756-.552.504-.876,1.164-.972,1.98h6.12c-.096-.804-.426-1.458-.99-1.962-.552-.516-1.242-.774-2.07-.774Zm16.2415-1.368v8.244c0,1.668-.414,2.898-1.242,3.69-.828.804-2.064,1.206-3.708,1.206-.9,0-1.758-.126-2.574-.378-.816-.24-1.476-.588-1.98-1.044l.828-1.332c.444.384.99.684,1.638.9.66.228,1.338.342,2.034.342c1.116,0,1.938-.264,2.466-.792.54-.528.81-1.332.81-2.412v-.756c-.408.492-.912.864-1.512,1.116-.588.24-1.23.36-1.926.36-.912,0-1.74-.192-2.484-.576-.732-.396-1.308-.942-1.728-1.638-.42-.708-.63-1.512-.63-2.412s.21-1.698.63-2.394c.42-.708.996-1.254,1.728-1.638.744-.384,1.572-.576,2.484-.576.72,0,1.386.132,1.998.396.624.264,1.134.654,1.53,1.17v-1.476h1.638Zm-4.968,7.632c.624,0,1.182-.132,1.674-.396.504-.264.894-.63,1.17-1.098.288-.48.432-1.02.432-1.62c0-.924-.306-1.668-.918-2.232-.612-.576-1.398-.864-2.358-.864-.972,0-1.764.288-2.376.864-.612.564-.918,1.308-.918,2.232c0,.6.138,1.14.414,1.62.288.468.678.834,1.17,1.098.504.264,1.074.396,1.71.396Zm9.926-6.03c.3-.552.744-.972,1.332-1.26s1.302-.432,2.142-.432v1.674c-.096-.012-.228-.018-.396-.018-.936,0-1.674.282-2.214.846-.528.552-.792,1.344-.792,2.376v4.752h-1.728v-9.54h1.656v1.602Zm5.603-1.602h1.728v9.54h-1.728v-9.54Zm.864-1.836c-.336,0-.618-.108-.846-.324-.216-.216-.324-.48-.324-.792s.108-.576.324-.792c.228-.228.51-.342.846-.342s.612.108.828.324c.228.204.342.462.342.774c0,.324-.114.6-.342.828-.216.216-.492.324-.828.324Zm9.528,10.818c-.252.216-.564.384-.936.504-.372.108-.756.162-1.152.162-.96,0-1.704-.258-2.232-.774s-.792-1.254-.792-2.214v-5.238h-1.62v-1.422h1.62v-2.088h1.728v2.088h2.736v1.422h-2.736v5.166c0,.516.126.912.378,1.188.264.276.636.414,1.116.414.528,0,.978-.15,1.35-.45l.54,1.242Zm10.355-8.982l-4.626,10.494c-.408.972-.888,1.656-1.44,2.052-.54.396-1.194.594-1.962.594-.468,0-.924-.078-1.368-.234-.432-.144-.792-.36-1.08-.648l.738-1.296c.492.468,1.062.702,1.71.702.42,0,.768-.114,1.044-.342.288-.216.546-.594.774-1.134l.306-.666-4.212-9.522h1.8l3.33,7.632l3.294-7.632h1.692Z" fill="#18265a"/><g id="illustration-service-s-g11" clip-path="url(#illustration-service-u-clip2_337_9630)"><g id="illustration-service-s-g12"><path id="illustration-service-s-path18" d="M107.033,209.633c-.836-.839-1.829-1.505-2.923-1.959s-2.267-.688-3.452-.688c-1.184,0-2.3569.234-3.4509.688s-2.0875,1.12-2.9236,1.959l-1.2834,1.3-1.2833-1.3c-.8361-.839-1.8297-1.505-2.9236-1.959s-2.2669-.688-3.4514-.688-2.3574.234-3.4514.688-2.0875,1.12-2.9236,1.959c-3.5333,3.533-3.75,9.5.7,14.033L93.0001,237l13.3329-13.334c4.45-4.533,4.234-10.5.7-14.033Z" fill="none" stroke="url(#illustration-service-s-path18-stroke)" stroke-width="2.5" stroke-linecap="round" stroke-linejoin="round"/><path id="illustration-service-s-path19" d="M93.0002,210.933l-5.2167,5.233c-.6595.665-1.0296,1.564-1.0296,2.5c0,.937.3701,1.836,1.0296,2.5v0c.6649.66,1.5635,1.03,2.5,1.03s1.8351-.37,2.5-1.03l3.7667-3.683c.9361-.926,2.1998-1.446,3.5168-1.446s2.58.52,3.516,1.446l4,4M103,227l-3.3332-3.334M98.0002,232l-3.3334-3.334" fill="none" stroke="url(#illustration-service-s-path19-stroke)" stroke-width="2.5" stroke-linecap="round" stroke-linejoin="round"/></g><clipPath id="illustration-service-u-clip2_337_9630"><rect id="illustration-service-s-rect3" width="40" height="40" rx="0" ry="0" transform="translate(73 198)" fill="#fff"/></clipPath></g></g><rect id="illustration-service-s-rect4" width="72" height="94" rx="0" ry="0" transform="translate(223 189)" fill="none"/>
<script><![CDATA[
!function(t,e){"object"==typeof exports&&"undefined"!=typeof module?module.exports=e():"function"==typeof define&&define.amd?define(e):((t="undefined"!=typeof globalThis?globalThis:t||self).__SVGATOR_PLAYER__=t.__SVGATOR_PLAYER__||{},t.__SVGATOR_PLAYER__["91c80d77"]=e())}(this,(function(){"use strict";function t(t,e){var n=Object.keys(t);if(Object.getOwnPropertySymbols){var r=Object.getOwnPropertySymbols(t);e&&(r=r.filter((function(e){return Object.getOwnPropertyDescriptor(t,e).enumerable}))),n.push.apply(n,r)}return n}function e(e){for(var n=1;n<arguments.length;n++){var r=null!=arguments[n]?arguments[n]:{};n%2?t(Object(r),!0).forEach((function(t){u(e,t,r[t])})):Object.getOwnPropertyDescriptors?Object.defineProperties(e,Object.getOwnPropertyDescriptors(r)):t(Object(r)).forEach((function(t){Object.defineProperty(e,t,Object.getOwnPropertyDescriptor(r,t))}))}return e}function n(t){return(n="function"==typeof Symbol&&"symbol"==typeof Symbol.iterator?function(t){return typeof t}:function(t){return t&&"function"==typeof Symbol&&t.constructor===Symbol&&t!==Symbol.prototype?"symbol":typeof t})(t)}function r(t,e){if(!(t instanceof e))throw new TypeError("Cannot call a class as a function")}function i(t,e){for(var n=0;n<e.length;n++){var r=e[n];r.enumerable=r.enumerable||!1,r.configurable=!0,"value"in r&&(r.writable=!0),Object.defineProperty(t,r.key,r)}}function o(t,e,n){return e&&i(t.prototype,e),n&&i(t,n),t}function u(t,e,n){return e in t?Object.defineProperty(t,e,{value:n,enumerable:!0,configurable:!0,writable:!0}):t[e]=n,t}function a(t){return(a=Object.setPrototypeOf?Object.getPrototypeOf:function(t){return t.__proto__||Object.getPrototypeOf(t)})(t)}function s(t,e){return(s=Object.setPrototypeOf||function(t,e){return t.__proto__=e,t})(t,e)}function l(){if("undefined"==typeof Reflect||!Reflect.construct)return!1;if(Reflect.construct.sham)return!1;if("function"==typeof Proxy)return!0;try{return Boolean.prototype.valueOf.call(Reflect.construct(Boolean,[],(function(){}))),!0}catch(t){return!1}}function f(t,e,n){return(f=l()?Reflect.construct:function(t,e,n){var r=[null];r.push.apply(r,e);var i=new(Function.bind.apply(t,r));return n&&s(i,n.prototype),i}).apply(null,arguments)}function c(t,e){if(e&&("object"==typeof e||"function"==typeof e))return e;if(void 0!==e)throw new TypeError("Derived constructors may only return object or undefined");return function(t){if(void 0===t)throw new ReferenceError("this hasn't been initialised - super() hasn't been called");return t}(t)}function h(t,e,n){return(h="undefined"!=typeof Reflect&&Reflect.get?Reflect.get:function(t,e,n){var r=function(t,e){for(;!Object.prototype.hasOwnProperty.call(t,e)&&null!==(t=a(t)););return t}(t,e);if(r){var i=Object.getOwnPropertyDescriptor(r,e);return i.get?i.get.call(n):i.value}})(t,e,n||t)}function v(t){return function(t){if(Array.isArray(t))return y(t)}(t)||function(t){if("undefined"!=typeof Symbol&&null!=t[Symbol.iterator]||null!=t["@@iterator"])return Array.from(t)}(t)||function(t,e){if(!t)return;if("string"==typeof t)return y(t,e);var n=Object.prototype.toString.call(t).slice(8,-1);"Object"===n&&t.constructor&&(n=t.constructor.name);if("Map"===n||"Set"===n)return Array.from(t);if("Arguments"===n||/^(?:Ui|I)nt(?:8|16|32)(?:Clamped)?Array$/.test(n))return y(t,e)}(t)||function(){throw new TypeError("Invalid attempt to spread non-iterable instance.\nIn order to be iterable, non-array objects must have a [Symbol.iterator]() method.")}()}function y(t,e){(null==e||e>t.length)&&(e=t.length);for(var n=0,r=new Array(e);n<e;n++)r[n]=t[n];return r}Number.isInteger||(Number.isInteger=function(t){return"number"==typeof t&&isFinite(t)&&Math.floor(t)===t}),Number.EPSILON||(Number.EPSILON=2220446049250313e-31);var d=g(Math.pow(10,-6));function g(t){var e=arguments.length>1&&void 0!==arguments[1]?arguments[1]:6;if(Number.isInteger(t))return t;var n=Math.pow(10,e);return Math.round((+t+Number.EPSILON)*n)/n}function p(t,e){var n=arguments.length>2&&void 0!==arguments[2]?arguments[2]:d;return Math.abs(t-e)<n}var m=Math.PI/180;function b(t){return t}function k(t,e,n){var r=1-n;return 3*n*r*(t*r+e*n)+n*n*n}function w(){var t=arguments.length>0&&void 0!==arguments[0]?arguments[0]:0,e=arguments.length>1&&void 0!==arguments[1]?arguments[1]:0,n=arguments.length>2&&void 0!==arguments[2]?arguments[2]:1,r=arguments.length>3&&void 0!==arguments[3]?arguments[3]:1;return t<0||t>1||n<0||n>1?null:p(t,e)&&p(n,r)?b:function(i){if(i<=0)return t>0?i*e/t:0===e&&n>0?i*r/n:0;if(i>=1)return n<1?1+(i-1)*(r-1)/(n-1):1===n&&t<1?1+(i-1)*(e-1)/(t-1):1;for(var o,u=0,a=1;u<a;){var s=k(t,n,o=(u+a)/2);if(p(i,s))break;s<i?u=o:a=o}return k(e,r,o)}}function x(){return 1}function A(t){return 1===t?1:0}function _(){var t=arguments.length>0&&void 0!==arguments[0]?arguments[0]:1,e=arguments.length>1&&void 0!==arguments[1]?arguments[1]:0;if(1===t){if(0===e)return A;if(1===e)return x}var n=1/t;return function(t){return t>=1?1:(t+=e*n)-t%n}}var O=Math.sin,S=Math.cos,E=Math.acos,P=Math.asin,M=Math.tan,j=Math.atan2,B=Math.PI/180,T=180/Math.PI,I=Math.sqrt,R=function(){function t(){var e=arguments.length>0&&void 0!==arguments[0]?arguments[0]:1,n=arguments.length>1&&void 0!==arguments[1]?arguments[1]:0,i=arguments.length>2&&void 0!==arguments[2]?arguments[2]:0,o=arguments.length>3&&void 0!==arguments[3]?arguments[3]:1,u=arguments.length>4&&void 0!==arguments[4]?arguments[4]:0,a=arguments.length>5&&void 0!==arguments[5]?arguments[5]:0;r(this,t),this.m=[e,n,i,o,u,a],this.i=null,this.w=null,this.s=null}return o(t,[{key:"determinant",get:function(){var t=this.m;return t[0]*t[3]-t[1]*t[2]}},{key:"isIdentity",get:function(){if(null===this.i){var t=this.m;this.i=1===t[0]&&0===t[1]&&0===t[2]&&1===t[3]&&0===t[4]&&0===t[5]}return this.i}},{key:"point",value:function(t,e){var n=this.m;return{x:n[0]*t+n[2]*e+n[4],y:n[1]*t+n[3]*e+n[5]}}},{key:"translateSelf",value:function(){var t=arguments.length>0&&void 0!==arguments[0]?arguments[0]:0,e=arguments.length>1&&void 0!==arguments[1]?arguments[1]:0;if(!t&&!e)return this;var n=this.m;return n[4]+=n[0]*t+n[2]*e,n[5]+=n[1]*t+n[3]*e,this.w=this.s=this.i=null,this}},{key:"rotateSelf",value:function(){var t=arguments.length>0&&void 0!==arguments[0]?arguments[0]:0;if(t%=360){var e=O(t*=B),n=S(t),r=this.m,i=r[0],o=r[1];r[0]=i*n+r[2]*e,r[1]=o*n+r[3]*e,r[2]=r[2]*n-i*e,r[3]=r[3]*n-o*e,this.w=this.s=this.i=null}return this}},{key:"scaleSelf",value:function(){var t=arguments.length>0&&void 0!==arguments[0]?arguments[0]:1,e=arguments.length>1&&void 0!==arguments[1]?arguments[1]:1;if(1!==t||1!==e){var n=this.m;n[0]*=t,n[1]*=t,n[2]*=e,n[3]*=e,this.w=this.s=this.i=null}return this}},{key:"skewSelf",value:function(t,e){if(e%=360,(t%=360)||e){var n=this.m,r=n[0],i=n[1],o=n[2],u=n[3];t&&(t=M(t*B),n[2]+=r*t,n[3]+=i*t),e&&(e=M(e*B),n[0]+=o*e,n[1]+=u*e),this.w=this.s=this.i=null}return this}},{key:"resetSelf",value:function(){var t=arguments.length>0&&void 0!==arguments[0]?arguments[0]:1,e=arguments.length>1&&void 0!==arguments[1]?arguments[1]:0,n=arguments.length>2&&void 0!==arguments[2]?arguments[2]:0,r=arguments.length>3&&void 0!==arguments[3]?arguments[3]:1,i=arguments.length>4&&void 0!==arguments[4]?arguments[4]:0,o=arguments.length>5&&void 0!==arguments[5]?arguments[5]:0,u=this.m;return u[0]=t,u[1]=e,u[2]=n,u[3]=r,u[4]=i,u[5]=o,this.w=this.s=this.i=null,this}},{key:"recomposeSelf",value:function(){var t=arguments.length>0&&void 0!==arguments[0]?arguments[0]:null,e=arguments.length>1&&void 0!==arguments[1]?arguments[1]:null,n=arguments.length>2&&void 0!==arguments[2]?arguments[2]:null,r=arguments.length>3&&void 0!==arguments[3]?arguments[3]:null,i=arguments.length>4&&void 0!==arguments[4]?arguments[4]:null;return this.isIdentity||this.resetSelf(),t&&(t.x||t.y)&&this.translateSelf(t.x,t.y),e&&this.rotateSelf(e),n&&(n.x&&this.skewSelf(n.x,0),n.y&&this.skewSelf(0,n.y)),!r||1===r.x&&1===r.y||this.scaleSelf(r.x,r.y),i&&(i.x||i.y)&&this.translateSelf(i.x,i.y),this}},{key:"decompose",value:function(){var t=arguments.length>0&&void 0!==arguments[0]?arguments[0]:0,e=arguments.length>1&&void 0!==arguments[1]?arguments[1]:0,n=this.m,r=n[0]*n[0]+n[1]*n[1],i=[[n[0],n[1]],[n[2],n[3]]],o=I(r);if(0===o)return{origin:{x:g(n[4]),y:g(n[5])},translate:{x:g(t),y:g(e)},scale:{x:0,y:0},skew:{x:0,y:0},rotate:0};i[0][0]/=o,i[0][1]/=o;var u=n[0]*n[3]-n[1]*n[2]<0;u&&(o=-o);var a=i[0][0]*i[1][0]+i[0][1]*i[1][1];i[1][0]-=i[0][0]*a,i[1][1]-=i[0][1]*a;var s=I(i[1][0]*i[1][0]+i[1][1]*i[1][1]);if(0===s)return{origin:{x:g(n[4]),y:g(n[5])},translate:{x:g(t),y:g(e)},scale:{x:g(o),y:0},skew:{x:0,y:0},rotate:0};i[1][0]/=s,i[1][1]/=s,a/=s;var l=0;return i[1][1]<0?(l=E(i[1][1])*T,i[0][1]<0&&(l=360-l)):l=P(i[0][1])*T,u&&(l=-l),a=j(a,I(i[0][0]*i[0][0]+i[0][1]*i[0][1]))*T,u&&(a=-a),{origin:{x:g(n[4]),y:g(n[5])},translate:{x:g(t),y:g(e)},scale:{x:g(o),y:g(s)},skew:{x:g(a),y:0},rotate:g(l)}}},{key:"clone",value:function(){var t=this.m;return new this.constructor(t[0],t[1],t[2],t[3],t[4],t[5])}},{key:"toString",value:function(){var t=arguments.length>0&&void 0!==arguments[0]?arguments[0]:" ";if(null===this.s){var e=this.m.map((function(t){return g(t)}));1===e[0]&&0===e[1]&&0===e[2]&&1===e[3]?this.s="translate("+e[4]+t+e[5]+")":this.s="matrix("+e.join(t)+")"}return this.s}}],[{key:"create",value:function(t){return t?Array.isArray(t)?f(this,v(t)):t instanceof this?t.clone():(new this).recomposeSelf(t.origin,t.rotate,t.skew,t.scale,t.translate):new this}}]),t}();function N(t,e,n){return t>=.5?n:e}function F(t,e,n){return 0===t||e===n?e:t*(n-e)+e}function C(t,e,n){var r=F(t,e,n);return r<=0?0:r}function L(t,e,n){var r=F(t,e,n);return r<=0?0:r>=1?1:r}function D(t,e,n){return 0===t?e:1===t?n:{x:F(t,e.x,n.x),y:F(t,e.y,n.y)}}function q(t,e,n){return 0===t?e:1===t?n:{x:C(t,e.x,n.x),y:C(t,e.y,n.y)}}function V(t,e,n){var r=function(t,e,n){return Math.round(F(t,e,n))}(t,e,n);return r<=0?0:r>=255?255:r}function z(t,e,n){return 0===t?e:1===t?n:{r:V(t,e.r,n.r),g:V(t,e.g,n.g),b:V(t,e.b,n.b),a:F(t,null==e.a?1:e.a,null==n.a?1:n.a)}}function Y(t,e,n){var r=e.length;if(r!==n.length)return N(t,e,n);for(var i=new Array(r),o=0;o<r;o++)i[o]=F(t,e[o],n[o]);return i}function G(t,e){for(var n=[],r=0;r<t;r++)n.push(e);return n}function U(t,e){if(--e<=0)return t;var n=(t=Object.assign([],t)).length;do{for(var r=0;r<n;r++)t.push(t[r])}while(--e>0);return t}var $,W=function(){function t(e){r(this,t),this.list=e,this.length=e.length}return o(t,[{key:"setAttribute",value:function(t,e){for(var n=this.list,r=0;r<this.length;r++)n[r].setAttribute(t,e)}},{key:"removeAttribute",value:function(t){for(var e=this.list,n=0;n<this.length;n++)e[n].removeAttribute(t)}},{key:"style",value:function(t,e){for(var n=this.list,r=0;r<this.length;r++)n[r].style[t]=e}}]),t}(),H=/-./g,Q=function(t,e){return e.toUpperCase()};function X(t){return"function"==typeof t?t:N}function J(t){return t?"function"==typeof t?t:Array.isArray(t)?function(t){var e=arguments.length>1&&void 0!==arguments[1]?arguments[1]:b;if(!Array.isArray(t))return e;switch(t.length){case 1:return _(t[0])||e;case 2:return _(t[0],t[1])||e;case 4:return w(t[0],t[1],t[2],t[3])||e}return e}(t,null):function(t,e){var n=arguments.length>2&&void 0!==arguments[2]?arguments[2]:b;switch(t){case"linear":return b;case"steps":return _(e.steps||1,e.jump||0)||n;case"bezier":case"cubic-bezier":return w(e.x1||0,e.y1||0,e.x2||0,e.y2||0)||n}return n}(t.type,t.value,null):null}function K(t,e,n){var r=arguments.length>3&&void 0!==arguments[3]&&arguments[3],i=e.length-1;if(t<=e[0].t)return r?[0,0,e[0].v]:e[0].v;if(t>=e[i].t)return r?[i,1,e[i].v]:e[i].v;var o,u=e[0],a=null;for(o=1;o<=i;o++){if(!(t>e[o].t)){a=e[o];break}u=e[o]}return null==a?r?[i,1,e[i].v]:e[i].v:u.t===a.t?r?[o,1,a.v]:a.v:(t=(t-u.t)/(a.t-u.t),u.e&&(t=u.e(t)),r?[o,t,n(t,u.v,a.v)]:n(t,u.v,a.v))}function Z(t,e){var n=arguments.length>2&&void 0!==arguments[2]?arguments[2]:null;return t&&t.length?"function"!=typeof e?null:("function"!=typeof n&&(n=null),function(r){var i=K(r,t,e);return null!=i&&n&&(i=n(i)),i}):null}function tt(t,e){return t.t-e.t}function et(t,e,r,i,o){var u,a="@"===r[0],s="#"===r[0],l=$[r],f=N;switch(a?(u=r.substr(1),r=u.replace(H,Q)):s&&(r=r.substr(1)),n(l)){case"function":if(f=l(i,o,K,J,r,a,e,t),s)return f;break;case"string":f=Z(i,X(l));break;case"object":if((f=Z(i,X(l.i),l.f))&&"function"==typeof l.u)return l.u(e,f,r,a,t)}return f?function(t,e,n){if(arguments.length>3&&void 0!==arguments[3]&&arguments[3])return t instanceof W?function(r){return t.style(e,n(r))}:function(r){return t.style[e]=n(r)};if(Array.isArray(e)){var r=e.length;return function(i){var o=n(i);if(null==o)for(var u=0;u<r;u++)t[u].removeAttribute(e);else for(var a=0;a<r;a++)t[a].setAttribute(e,o)}}return function(r){var i=n(r);null==i?t.removeAttribute(e):t.setAttribute(e,i)}}(e,r,f,a):null}function nt(t,e,r,i){if(!i||"object"!==n(i))return null;var o=null,u=null;return Array.isArray(i)?u=function(t){if(!t||!t.length)return null;for(var e=0;e<t.length;e++)t[e].e&&(t[e].e=J(t[e].e));return t.sort(tt)}(i):(u=i.keys,o=i.data||null),u?et(t,e,r,u,o):null}function rt(t,e,n){if(!n)return null;var r=[];for(var i in n)if(n.hasOwnProperty(i)){var o=nt(t,e,i,n[i]);o&&r.push(o)}return r.length?r:null}function it(t,e){if(!e.settings.duration||e.settings.duration<0)return null;var n,r,i,o,u,a=function(t,e){if(!e)return null;var n=[];if(Array.isArray(e))for(var r=e.length,i=0;i<r;i++){var o=e[i];if(2===o.length){var u=null;if("string"==typeof o[0])u=t.getElementById(o[0]);else if(Array.isArray(o[0])){u=[];for(var a=0;a<o[0].length;a++)if("string"==typeof o[0][a]){var s=t.getElementById(o[0][a]);s&&u.push(s)}u=u.length?1===u.length?u[0]:new W(u):null}if(u){var l=rt(t,u,o[1]);l&&(n=n.concat(l))}}}else for(var f in e)if(e.hasOwnProperty(f)){var c=t.getElementById(f);if(c){var h=rt(t,c,e[f]);h&&(n=n.concat(h))}}return n.length?n:null}(t,e.elements);return a?(n=a,r=e.settings,i=r.duration,o=n.length,u=null,function(t,e){var a=r.iterations||1/0,s=(r.alternate&&a%2==0)^r.direction>0?i:0,l=t%i,f=1+(t-l)/i;e*=r.direction,r.alternate&&f%2==0&&(e=-e);var c=!1;if(f>a)l=s,c=!0,-1===r.fill&&(l=r.direction>0?0:i);else if(e<0&&(l=i-l),l===u)return!1;u=l;for(var h=0;h<o;h++)n[h](l);return c}):null}function ot(t,e){if($=e,!t||!t.root||!Array.isArray(t.animations))return null;var n=function(t){for(var e=document.getElementsByTagName("svg"),n=0;n<e.length;n++)if(e[n].id===t.root&&!e[n].svgatorAnimation)return e[n].svgatorAnimation=!0,e[n];return null}(t);if(!n)return null;var r=t.animations.map((function(t){return it(n,t)})).filter((function(t){return!!t}));return r.length?{svg:n,animations:r,animationSettings:t.animationSettings,options:t.options||void 0}:null}function ut(t){return+("0x"+(t.replace(/[^0-9a-fA-F]+/g,"")||27))}function at(t,e,n){return!t||!n||e>t.length?t:t.substring(0,e)+at(t.substring(e+1),n,n)}function st(t){var e=arguments.length>1&&void 0!==arguments[1]?arguments[1]:27;return!t||t%e?t%e:st(t/e,e)}function lt(t,e,n){if(t&&t.length){var r=ut(n),i=ut(e),o=st(r)+5,u=at(t,st(r,5),o);return u=u.replace(/\x7c$/g,"==").replace(/\x2f$/g,"="),u=function(t,e,n){var r=+("0x"+t.substring(0,4));t=t.substring(4);for(var i=e%r+n%27,o=[],u=0;u<t.length;u+=2)if("|"!==t[u]){var a=+("0x"+t[u]+t[u+1])-i;o.push(a)}else{var s=+("0x"+t.substring(u+1,u+1+4))-i;u+=3,o.push(s)}return String.fromCharCode.apply(String,o)}(u=(u=atob(u)).replace(/[\x41-\x5A]/g,""),i,r),u=JSON.parse(u)}}var ft=[{key:"alternate",def:!1},{key:"fill",def:1},{key:"iterations",def:0},{key:"direction",def:1},{key:"speed",def:1},{key:"fps",def:100}],ct=function(){function t(e,n){var i=this,o=arguments.length>2&&void 0!==arguments[2]?arguments[2]:null;r(this,t),this._id=0,this._running=!1,this._rollingBack=!1,this._animations=e,this._settings=n,(!o||o<"2022-05-02")&&delete this._settings.speed,ft.forEach((function(t){i._settings[t.key]=i._settings[t.key]||t.def})),this.duration=n.duration,this.offset=n.offset||0,this.rollbackStartOffset=0}return o(t,[{key:"alternate",get:function(){return this._settings.alternate}},{key:"fill",get:function(){return this._settings.fill}},{key:"iterations",get:function(){return this._settings.iterations}},{key:"direction",get:function(){return this._settings.direction}},{key:"speed",get:function(){return this._settings.speed}},{key:"fps",get:function(){return this._settings.fps}},{key:"maxFiniteDuration",get:function(){return this.iterations>0?this.iterations*this.duration:this.duration}},{key:"_apply",value:function(t){for(var e=arguments.length>1&&void 0!==arguments[1]?arguments[1]:{},n=this._animations,r=n.length,i=0,o=0;o<r;o++)e[o]?i++:(e[o]=n[o](t,1),e[o]&&i++);return i}},{key:"_rollback",value:function(t){var e=this,n=1/0,r=null;this.rollbackStartOffset=t,this._rollingBack=!0,this._running=!0;this._id=window.requestAnimationFrame((function i(o){if(e._rollingBack){null==r&&(r=o);var u=Math.round(t-(o-r)*e.speed);if(u>e.duration&&n!==1/0){var a=!!e.alternate&&u/e.duration%2>1,s=u%e.duration;u=(s+=a?e.duration:0)||e.duration}var l=(e.fps?1e3/e.fps:0)*e.speed,f=Math.max(0,u);f<=n-l&&(e.offset=f,n=f,e._apply(f));var c=e.iterations>0&&-1===e.fill&&u>=e.maxFiniteDuration;(u<=0||e.offset<u||c)&&e.stop(),e._id=window.requestAnimationFrame(i)}}))}},{key:"_start",value:function(){var t=this,e=arguments.length>0&&void 0!==arguments[0]?arguments[0]:0,n=-1/0,r=null,i={};this._running=!0;var o=function o(u){null==r&&(r=u);var a=Math.round((u-r)*t.speed+e),s=(t.fps?1e3/t.fps:0)*t.speed;if(a>=n+s&&!t._rollingBack&&(t.offset=a,n=a,t._apply(a,i)===t._animations.length))return void t.pause(!0);t._id=window.requestAnimationFrame(o)};this._id=window.requestAnimationFrame(o)}},{key:"_pause",value:function(){this._id&&window.cancelAnimationFrame(this._id),this._running=!1}},{key:"play",value:function(){if(!this._running)return this._rollingBack?this._rollback(this.offset):this._start(this.offset)}},{key:"stop",value:function(){this._pause(),this.offset=0,this.rollbackStartOffset=0,this._rollingBack=!1,this._apply(0)}},{key:"reachedToEnd",value:function(){return this.iterations>0&&this.offset>=this.iterations*this.duration}},{key:"restart",value:function(){var t=arguments.length>0&&void 0!==arguments[0]&&arguments[0];this.stop(t),this.play(t)}},{key:"pause",value:function(){this._pause()}},{key:"reverse",value:function(){this.direction=-this.direction}}],[{key:"build",value:function(t,e){delete t.animationSettings,t.options=lt(t.options,t.root,"91c80d77"),t.animations.map((function(e){e.settings=lt(e.s,t.root,"91c80d77"),delete e.s,t.animationSettings||(t.animationSettings=e.settings)}));var n=t.version;if(!(t=ot(t,e)))return null;var r=t.options||{},i=new this(t.animations,t.animationSettings,n);return{el:t.svg,options:r,player:i}}},{key:"push",value:function(t){return this.build(t)}},{key:"init",value:function(){var t=this,e=window.__SVGATOR_PLAYER__&&window.__SVGATOR_PLAYER__["91c80d77"];Array.isArray(e)&&e.splice(0).forEach((function(e){return t.build(e)}))}}]),t}();!function(){for(var t=0,e=["ms","moz","webkit","o"],n=0;n<e.length&&!window.requestAnimationFrame;++n)window.requestAnimationFrame=window[e[n]+"RequestAnimationFrame"],window.cancelAnimationFrame=window[e[n]+"CancelAnimationFrame"]||window[e[n]+"CancelRequestAnimationFrame"];window.requestAnimationFrame||(window.requestAnimationFrame=function(e){var n=Date.now(),r=Math.max(0,16-(n-t)),i=window.setTimeout((function(){e(n+r)}),r);return t=n+r,i},window.cancelAnimationFrame=window.clearTimeout)}();var ht=function(t,e){var n=!1,r=null;return function(i){n&&clearTimeout(n),n=setTimeout((function(){return function(){for(var i=0,o=window.innerHeight,u=0,a=window.innerWidth,s=t.parentNode;s instanceof Element;){var l=window.getComputedStyle(s);if("visible"!==l.overflowY||"visible"!==l.overflowX){var f=s.getBoundingClientRect();"visible"!==l.overflowY&&(i=Math.max(i,f.top),o=Math.min(o,f.bottom)),"visible"!==l.overflowX&&(u=Math.max(u,f.left),a=Math.min(a,f.right))}if(s===s.parentNode)break;s=s.parentNode}n=!1;var c=t.getBoundingClientRect(),h=Math.min(c.height,Math.max(0,i-c.top)),v=Math.min(c.height,Math.max(0,c.bottom-o)),y=Math.min(c.width,Math.max(0,u-c.left)),d=Math.min(c.width,Math.max(0,c.right-a)),g=(c.height-h-v)/c.height,p=(c.width-y-d)/c.width,m=Math.round(g*p*100);null!==r&&r===m||(r=m,e(m))}()}),100)}},vt=function(){function t(e,n,i){r(this,t),n=Math.max(1,n||1),n=Math.min(n,100),this.el=e,this._handlers=[],this.onThresholdChange=i&&i.call?i:function(){},this.thresholdPercent=n||1,this.currentVisibility=null,this.visibilityCalculator=ht(e,this.onVisibilityUpdate.bind(this)),this.bindScrollWatchers(),this.visibilityCalculator()}return o(t,[{key:"bindScrollWatchers",value:function(){for(var t=this.el.parentNode;t&&(this._handlers.push({element:t,event:"scroll",handler:this.visibilityCalculator}),t.addEventListener("scroll",this.visibilityCalculator),t!==t.parentNode&&t!==document);)t=t.parentNode}},{key:"onVisibilityUpdate",value:function(t){var e=this.currentVisibility>=this.thresholdPercent,n=t>=this.thresholdPercent;if(null===this.currentVisibility||e!==n)return this.currentVisibility=t,void this.onThresholdChange(n);this.currentVisibility=t}},{key:"destruct",value:function(){this._handlers.forEach((function(t){t.element.removeEventListener(t.event,t.handler)}))}}]),t}();function yt(t){return g(t)+""}function dt(t){var e=arguments.length>1&&void 0!==arguments[1]?arguments[1]:" ";return t&&t.length?t.map(yt).join(e):""}function gt(t){return yt(t.x)+","+yt(t.y)}function pt(t){if(!t)return"transparent";if(null==t.a||t.a>=1){var e=function(t){return 1===(t=parseInt(t).toString(16)).length?"0"+t:t},n=function(t){return t.charAt(0)===t.charAt(1)},r=e(t.r),i=e(t.g),o=e(t.b);return n(r)&&n(i)&&n(o)&&(r=r.charAt(0),i=i.charAt(0),o=o.charAt(0)),"#"+r+i+o}return"rgba("+t.r+","+t.g+","+t.b+","+t.a+")"}function mt(t){return t?"url(#"+t+")":"none"}var bt={f:null,i:q,u:function(t,e){return function(n){var r=e(n);t.setAttribute("rx",yt(r.x)),t.setAttribute("ry",yt(r.y))}}},kt={f:null,i:function(t,e,n){return 0===t?e:1===t?n:{width:C(t,e.width,n.width),height:C(t,e.height,n.height)}},u:function(t,e){return function(n){var r=e(n);t.setAttribute("width",yt(r.width)),t.setAttribute("height",yt(r.height))}}};Object.freeze({M:2,L:2,Z:0,H:1,V:1,C:6,Q:4,T:2,S:4,A:7});var wt={},xt=null;function At(t){var e=function(){if(xt)return xt;if("object"!==("undefined"==typeof document?"undefined":n(document))||!document.createElementNS)return{};var t=document.createElementNS("http://www.w3.org/2000/svg","svg");return t&&t.style?(t.style.position="absolute",t.style.opacity="0.01",t.style.zIndex="-9999",t.style.left="-9999px",t.style.width="1px",t.style.height="1px",xt={svg:t}):{}}().svg;if(!e)return function(t){return null};var r=document.createElementNS(e.namespaceURI,"path");r.setAttributeNS(null,"d",t),r.setAttributeNS(null,"fill","none"),r.setAttributeNS(null,"stroke","none"),e.appendChild(r);var i=r.getTotalLength();return function(t){var e=r.getPointAtLength(i*t);return{x:e.x,y:e.y}}}function _t(t){return wt[t]?wt[t]:wt[t]=At(t)}function Ot(t,e,n,r){if(!t||!r)return!1;var i=["M",t.x,t.y];if(e&&n&&(i.push("C"),i.push(e.x),i.push(e.y),i.push(n.x),i.push(n.y)),e?!n:n){var o=e||n;i.push("Q"),i.push(o.x),i.push(o.y)}return e||n||i.push("L"),i.push(r.x),i.push(r.y),i.join(" ")}function St(t,e,n,r){var i=arguments.length>4&&void 0!==arguments[4]?arguments[4]:1,o=Ot(t,e,n,r),u=_t(o);try{return u(i)}catch(t){return null}}function Et(t,e,n){return t+(e-t)*n}function Pt(t,e,n){var r=arguments.length>3&&void 0!==arguments[3]&&arguments[3],i={x:Et(t.x,e.x,n),y:Et(t.y,e.y,n)};return r&&(i.a=Mt(t,e)),i}function Mt(t,e){return Math.atan2(e.y-t.y,e.x-t.x)}function jt(t,e,n,r){var i=1-r;return i*i*t+2*i*r*e+r*r*n}function Bt(t,e,n,r){return 2*(1-r)*(e-t)+2*r*(n-e)}function Tt(t,e,n,r){var i=arguments.length>4&&void 0!==arguments[4]&&arguments[4],o=St(t,e,null,n,r);return o||(o={x:jt(t.x,e.x,n.x,r),y:jt(t.y,e.y,n.y,r)}),i&&(o.a=It(t,e,n,r)),o}function It(t,e,n,r){return Math.atan2(Bt(t.y,e.y,n.y,r),Bt(t.x,e.x,n.x,r))}function Rt(t,e,n,r,i){var o=i*i;return i*o*(r-t+3*(e-n))+3*o*(t+n-2*e)+3*i*(e-t)+t}function Nt(t,e,n,r,i){var o=1-i;return 3*(o*o*(e-t)+2*o*i*(n-e)+i*i*(r-n))}function Ft(t,e,n,r,i){var o=arguments.length>5&&void 0!==arguments[5]&&arguments[5],u=St(t,e,n,r,i);return u||(u={x:Rt(t.x,e.x,n.x,r.x,i),y:Rt(t.y,e.y,n.y,r.y,i)}),o&&(u.a=Ct(t,e,n,r,i)),u}function Ct(t,e,n,r,i){return Math.atan2(Nt(t.y,e.y,n.y,r.y,i),Nt(t.x,e.x,n.x,r.x,i))}function Lt(t,e,n){var r=arguments.length>3&&void 0!==arguments[3]&&arguments[3];if(qt(e)){if(Vt(n))return Tt(e,n.start,n,t,r)}else if(qt(n)){if(zt(e))return Tt(e,e.end,n,t,r)}else{if(zt(e))return Vt(n)?Ft(e,e.end,n.start,n,t,r):Tt(e,e.end,n,t,r);if(Vt(n))return Tt(e,n.start,n,t,r)}return Pt(e,n,t,r)}function Dt(t,e,n){var r=Lt(t,e,n,!0);return r.a=function(t){return arguments.length>1&&void 0!==arguments[1]&&arguments[1]?t+Math.PI:t}(r.a)/m,r}function qt(t){return!t.type||"corner"===t.type}function Vt(t){return null!=t.start&&!qt(t)}function zt(t){return null!=t.end&&!qt(t)}var Yt=new R;var Gt={f:function(t){return t?t.join(" "):""},i:function(t,e,r){if(0===t)return e;if(1===t)return r;var i=e.length;if(i!==r.length)return N(t,e,r);for(var o,u=new Array(i),a=0;a<i;a++){if((o=n(e[a]))!==n(r[a]))return N(t,e,r);if("number"===o)u[a]=F(t,e[a],r[a]);else{if(e[a]!==r[a])return N(t,e,r);u[a]=e[a]}}return u}},Ut={f:null,i:Y,u:function(t,e){return function(n){var r=e(n);t.setAttribute("x1",yt(r[0])),t.setAttribute("y1",yt(r[1])),t.setAttribute("x2",yt(r[2])),t.setAttribute("y2",yt(r[3]))}}},$t={f:yt,i:F},Wt={f:yt,i:L},Ht={f:function(t){var e=arguments.length>1&&void 0!==arguments[1]?arguments[1]:" ";return t&&t.length>0&&(t=t.map((function(t){return g(t,4)}))),dt(t,e)},i:function(t,e,n){var r,i,o,u=e.length,a=n.length;if(u!==a)if(0===u)e=G(u=a,0);else if(0===a)a=u,n=G(u,0);else{var s=(o=(r=u)*(i=a)/function(t,e){for(var n;e;)n=e,e=t%e,t=n;return t||1}(r,i))<0?-o:o;e=U(e,Math.floor(s/u)),n=U(n,Math.floor(s/a)),u=a=s}for(var l=[],f=0;f<u;f++)l.push(g(C(t,e[f],n[f])));return l}};function Qt(t,e,n){return t.map((function(t){return function(t,e,n){var r=t.v;if(!r||"g"!==r.t||r.s||!r.v||!r.r)return t;var i=n.getElementById(r.r),o=i&&i.querySelectorAll("stop")||[];return r.s=r.v.map((function(t,e){var n=o[e]&&o[e].getAttribute("offset");return{c:t,o:n=g(parseInt(n)/100)}})),delete r.v,t}(t,0,n)}))}var Xt={gt:"gradientTransform",c:{x:"cx",y:"cy"},rd:"r",f:{x:"x1",y:"y1"},to:{x:"x2",y:"y2"}};function Jt(t,e,r,i,o,u,a,s){return Qt(t,0,s),e=function(t,e,n){for(var r,i,o,u=t.length-1,a={},s=0;s<=u;s++)(r=t[s]).e&&(r.e=e(r.e)),r.v&&"g"===(i=r.v).t&&i.r&&(o=n.getElementById(i.r))&&(a[i.r]={e:o,s:o.querySelectorAll("stop")});return a}(t,i,s),function(i){var o=r(i,t,Kt);if(!o)return"none";if("c"===o.t)return pt(o.v);if("g"===o.t){if(!e[o.r])return mt(o.r);var u=e[o.r];return function(t,e){for(var n=t.s,r=n.length;r<e.length;r++){var i=n[n.length-1].cloneNode();i.id=ee(i.id),t.e.appendChild(i),n=t.s=t.e.querySelectorAll("stop")}for(var o=0,u=n.length,a=e.length-1;o<u;o++)n[o].setAttribute("stop-color",pt(e[Math.min(o,a)].c)),n[o].setAttribute("offset",e[Math.min(o,a)].o)}(u,o.s),Object.keys(Xt).forEach((function(t){if(void 0!==o[t])if("object"!==n(Xt[t])){var e,r="gt"===t?(e=o[t],Array.isArray(e)?"matrix("+e.join(" ")+")":""):o[t],i=Xt[t];u.e.setAttribute(i,r)}else Object.keys(Xt[t]).forEach((function(e){if(void 0!==o[t][e]){var n=o[t][e],r=Xt[t][e];u.e.setAttribute(r,n)}}))})),mt(o.r)}return"none"}}function Kt(t,n,r){if(0===t)return n;if(1===t)return r;if(n&&r){var i=n.t;if(i===r.t)switch(n.t){case"c":return{t:i,v:z(t,n.v,r.v)};case"g":if(n.r===r.r){var o={t:i,s:Zt(t,n.s,r.s),r:n.r};return n.gt&&r.gt&&(o.gt=Y(t,n.gt,r.gt)),n.c?(o.c=D(t,n.c,r.c),o.rd=C(t,n.rd,r.rd)):n.f&&(o.f=D(t,n.f,r.f),o.to=D(t,n.to,r.to)),o}}if("c"===n.t&&"g"===r.t||"c"===r.t&&"g"===n.t){var u="c"===n.t?n:r,a="g"===n.t?e({},n):e({},r),s=a.s.map((function(t){return{c:u.v,o:t.o}}));return a.s="c"===n.t?Zt(t,s,a.s):Zt(t,a.s,s),a}}return N(t,n,r)}function Zt(t,e,n){if(e.length===n.length)return e.map((function(e,r){return te(t,e,n[r])}));for(var r=Math.max(e.length,n.length),i=[],o=0;o<r;o++){var u=te(t,e[Math.min(o,e.length-1)],n[Math.min(o,n.length-1)]);i.push(u)}return i}function te(t,e,n){return{o:L(t,e.o,n.o||0),c:z(t,e.c,n.c||{})}}function ee(t){return t.replace(/-fill-([0-9]+)$/,(function(t,e){return"-fill-"+(+e+1)}))}var ne={blur:q,brightness:C,contrast:C,"drop-shadow":function(t,e,n){return 0===t?e:1===t?n:{blur:q(t,e.blur,n.blur),offset:D(t,e.offset,n.offset),color:z(t,e.color,n.color)}},grayscale:C,"hue-rotate":F,invert:C,opacity:C,saturate:C,sepia:C};function re(t,e,n){if(0===t)return e;if(1===t)return n;var r=e.length;if(r!==n.length)return N(t,e,n);for(var i,o=[],u=0;u<r;u++){if(e[u].type!==n[u].type)return e;if(!(i=ne[e[u].type]))return N(t,e,n);o.push({type:e.type,value:i(t,e[u].value,n[u].value)})}return o}var ie={blur:function(t){return t?function(e){t.setAttribute("stdDeviation",gt(e))}:null},brightness:function(t,e,n){return(t=ue(n,e))?function(e){e=yt(e),t.map((function(t){return t.setAttribute("slope",e)}))}:null},contrast:function(t,e,n){return(t=ue(n,e))?function(e){var n=yt((1-e)/2);e=yt(e),t.map((function(t){t.setAttribute("slope",e),t.setAttribute("intercept",n)}))}:null},"drop-shadow":function(t,e,n){var r=n.getElementById(e+"-blur");if(!r)return null;var i=n.getElementById(e+"-offset");if(!i)return null;var o=n.getElementById(e+"-flood");return o?function(t){r.setAttribute("stdDeviation",gt(t.blur)),i.setAttribute("dx",yt(t.offset.x)),i.setAttribute("dy",yt(t.offset.y)),o.setAttribute("flood-color",pt(t.color))}:null},grayscale:function(t){return t?function(e){t.setAttribute("values",dt(function(t){return[.2126+.7874*(t=1-t),.7152-.7152*t,.0722-.0722*t,0,0,.2126-.2126*t,.7152+.2848*t,.0722-.0722*t,0,0,.2126-.2126*t,.7152-.7152*t,.0722+.9278*t,0,0,0,0,0,1,0]}(e)))}:null},"hue-rotate":function(t){return t?function(e){return t.setAttribute("values",yt(e))}:null},invert:function(t,e,n){return(t=ue(n,e))?function(e){e=yt(e)+" "+yt(1-e),t.map((function(t){return t.setAttribute("tableValues",e)}))}:null},opacity:function(t,e,n){return(t=n.getElementById(e+"-A"))?function(e){return t.setAttribute("tableValues","0 "+yt(e))}:null},saturate:function(t){return t?function(e){return t.setAttribute("values",yt(e))}:null},sepia:function(t){return t?function(e){return t.setAttribute("values",dt(function(t){return[.393+.607*(t=1-t),.769-.769*t,.189-.189*t,0,0,.349-.349*t,.686+.314*t,.168-.168*t,0,0,.272-.272*t,.534-.534*t,.131+.869*t,0,0,0,0,0,1,0]}(e)))}:null}};var oe=["R","G","B"];function ue(t,e){var n=oe.map((function(n){return t.getElementById(e+"-"+n)||null}));return-1!==n.indexOf(null)?null:n}var ae={fill:Jt,"fill-opacity":Wt,stroke:Jt,"stroke-opacity":Wt,"stroke-width":$t,"stroke-dashoffset":{f:yt,i:F},"stroke-dasharray":Ht,opacity:Wt,transform:function(t,e,r,i){if(!(t=function(t,e){if(!t||"object"!==n(t))return null;var r=!1;for(var i in t)t.hasOwnProperty(i)&&(t[i]&&t[i].length?(t[i].forEach((function(t){t.e&&(t.e=e(t.e))})),r=!0):delete t[i]);return r?t:null}(t,i)))return null;var o=function(n,i,o){var u=arguments.length>3&&void 0!==arguments[3]?arguments[3]:null;return t[n]?r(i,t[n],o):e&&e[n]?e[n]:u};return e&&e.a&&t.o?function(e){var n=r(e,t.o,Dt);return Yt.recomposeSelf(n,o("r",e,F,0)+n.a,o("k",e,D),o("s",e,D),o("t",e,D)).toString()}:function(t){return Yt.recomposeSelf(o("o",t,Lt,null),o("r",t,F,0),o("k",t,D),o("s",t,D),o("t",t,D)).toString()}},"#filter":function(t,e,n,r,i,o,u,a){if(!e.items||!t||!t.length)return null;var s=function(t,e){var n=(t=t.map((function(t){return t&&ie[t[0]]?(e.getElementById(t[1]),ie[t[0]](e.getElementById(t[1]),t[1],e)):null}))).length;return function(e){for(var r=0;r<n;r++)t[r]&&t[r](e[r].value)}}(e.items,a);return s?(t=function(t,e){return t.map((function(t){return t.e=e(t.e),t}))}(t,r),function(e){s(n(e,t,re))}):null},"#line":Ut,points:{f:dt,i:Y},d:Gt,r:$t,"#size":kt,"#radius":bt,_:function(t,e){if(Array.isArray(t))for(var n=0;n<t.length;n++)this[t[n]]=e;else this[t]=e}},se={currentTime:"offset",duration:"duration",hasEnded:function(){return this.reachedToEnd()},isAlternate:"alternate",isPlaying:"_running",isRollingBack:"_rollingBack",state:function(t,e){return e.isPlaying?e.isRollingBack?"rollback":"playing":e.hasEnded?"ended":"paused"},totalTime:"maxFiniteDuration",iterations:"iterations",direction:"direction",fill:"fill",isReversed:function(t,e){return-1===e.direction},isBackwards:function(t,e){return-1===e.fill},isInfinite:function(t,e){return 0===e.iterations},speed:"speed",fps:"fps"},le={destruct:"destruct",pause:"pause",play:function(t,e){return fe(t,e.hasEnded?"restart":"play",e)},restart:"restart",reverse:function(t,e){return fe(t,"reverse",e,[!0])},seek:"seek",seekBy:"seekBy",seekTo:"seekTo",stop:"stop",toggle:"toggle",togglePlay:"toggle",set:"set"};function fe(t,e,n){var r=arguments.length>3&&void 0!==arguments[3]?arguments[3]:[];return function(){var i,o=Array.prototype.slice.call(arguments);return o.unshift.apply(o,v(r)),(i=t[e]).call.apply(i,[t].concat(v(o))),n}}var ce=function t(e){r(this,t);var n={},i=["on","off"],o={get:function(t,e,r){return se[e]?"function"==typeof se[e]?se[e].call(t,t,r):t[se[e]]:le[e]?"function"==typeof le[e]?le[e].call(t,t,r):fe(t,le[e],r):-1!==i.indexOf(e)?n[e]:"ready"===e?function(t){return t&&t.call(r,r),r}:void 0},set:function(t,e,r){return-1!==i.indexOf(e)&&(n[e]=r)},ownKeys:function(t){return Object.keys(se)},has:function(t,e){return void 0!==se[e]}};if("function"==typeof Proxy)return new Proxy(e,o);var u=Object.keys(se).concat(Object.keys(le)).concat(i),a={};return u.forEach((function(t){var n={enumerable:!1,configurable:!1,get:function(){return o.get(e,t,a)}};-1!==i.indexOf(t)&&(n.set=function(n){return o.set(e,t,n)}),Object.defineProperty(a,t,n)})),a};function he(t){t||(t=this);var e={};this.on=function(t,n){var r=arguments.length>2&&void 0!==arguments[2]&&arguments[2];return"function"==typeof n&&(t.split(/[, ]+/g).forEach((function(t){return e[t]=e[t]||[],r?e[t].unshift(n):e[t].push(n)})),!0)},this.off=function(t,n){for(var r in e)if(e.hasOwnProperty(r)&&r.substr(0,t.length)===t)if(n)for(var i=0;i<e[r].length;i++)e[r][i]===n&&(e[r][i]=null);else e[r]=null},this.trigger=function(){var n,r=Array.prototype.slice.call(arguments),i=r[0],o=r.slice(1);t:for(var u in e)if(e.hasOwnProperty(u)&&e[u]&&(u===i||u.substr(0,i.length+1)===i+"."))for(var a=0;a<(e[u]||[]).length;a++)if(e[u][a]&&!1===(n=e[u][a].apply(t,o)))break t;return n}}var ve=!0,ye=["iterations","speed","fps","direction","fill","alternate"],de=function(t){!function(t,e){if("function"!=typeof e&&null!==e)throw new TypeError("Super expression must either be null or a function");t.prototype=Object.create(e&&e.prototype,{constructor:{value:t,writable:!0,configurable:!0}}),e&&s(t,e)}(u,t);var e,n,i=(e=u,n=l(),function(){var t,r=a(e);if(n){var i=a(this).constructor;t=Reflect.construct(r,arguments,i)}else t=r.apply(this,arguments);return c(this,t)});function u(t,e){var n,o=arguments.length>2&&void 0!==arguments[2]?arguments[2]:null;return r(this,u),(n=i.call(this,t,e,o))._handlers=[],n}return o(u,[{key:"_adjustOffset",value:function(){var t=arguments.length>0&&void 0!==arguments[0]&&arguments[0],e=this.alternate?2*this.duration:this.duration;if(t){if(!this._rollingBack&&0===this.offset)return void(this.offset=e);this._rollingBack&&(this.offset,this.maxFiniteDuration)}!this._rollingBack||this.rollbackStartOffset<=this.duration?0!==this.iterations&&(this.offset=Math.min(this.offset,this.maxFiniteDuration)):(this.offset=this.rollbackStartOffset-(this.rollbackStartOffset-this.offset)%e,this.rollbackStartOffset=0)}},{key:"reverse",value:function(){var t=arguments.length>0&&void 0!==arguments[0]&&arguments[0];if(!this._running)return this._adjustOffset(t),this._rollingBack=!this._rollingBack,t&&this.play(!1),void this.trigger("reverse",this.offset);this.pause(!1,!1),this._adjustOffset(),this._rollingBack=!this._rollingBack,this.play(!1),this.trigger("reverse",this.offset)}},{key:"play",value:function(){var t=arguments.length>0&&void 0!==arguments[0]?arguments[0]:ve,e=h(a(u.prototype),"play",this).call(this);return t===ve&&this.trigger("play",this.offset),e}},{key:"pause",value:function(){var t=arguments.length>0&&void 0!==arguments[0]&&arguments[0],e=arguments.length>1&&void 0!==arguments[1]?arguments[1]:ve,n=h(a(u.prototype),"pause",this).call(this);return e===ve&&this.trigger(t?"end":"pause",this.offset),n}},{key:"restart",value:function(){var t=h(a(u.prototype),"restart",this).call(this,!1);return this.trigger("restart",this.offset),t}},{key:"stop",value:function(){var t=arguments.length>0&&void 0!==arguments[0]?arguments[0]:ve,e=h(a(u.prototype),"stop",this).call(this);return t===ve&&this.trigger("stop",this.offset),e}},{key:"_apply",value:function(t){var e=this,n=arguments.length>2&&void 0!==arguments[2]?arguments[2]:ve,r=h(a(u.prototype),"_apply",this).call(this,t);if(n===ve){var i=function(){return e.trigger("keyframe",t)};window.requestAnimationFrame(i)}return r}},{key:"seekTo",value:function(t){var e,n,r,i=this._running;i&&this.pause(!1,!1),this.offset=this.iterations>0?(e=t,n=0,r=this.maxFiniteDuration,e<n?n:e>r?r:e):Math.max(t,0),this._apply(this.offset),i&&this.play(!1)}},{key:"seek",value:function(t){return this.seekTo(Math.round(t/100*this.maxFiniteDuration))}},{key:"seekBy",value:function(t){return this.seekTo(this.offset+t)}},{key:"toggle",value:function(){return this._running?this.pause():this.reachedToEnd()?this.restart():this.play()}},{key:"set",value:function(t,e){if(ye.includes(t)){var n=this._running;n&&this.pause(!1,!1),this._settings[t]=e,n?this.play(!1):this._apply(this.offset,{},!1)}}},{key:"destruct",value:function(){var t=this;this.stop(),this._handlers.forEach((function(t){t.element?t.element.removeEventListener(t.event,t.handler):t.callback&&t.callback.call&&t.callback.call()}));var e=function(){},n=Object.getOwnPropertyNames(Object.getPrototypeOf(this));n.push.apply(n,v(Object.getOwnPropertyNames(this))),n.forEach((function(n){"function"==typeof t[n]?t[n]=e:delete t[n]}))}}],[{key:"build",value:function(t){var e=h(a(u),"build",this).call(this,t,ae);if(!e)return null;var n=e.el,r=e.options,i=e.player,o=new ce(i),s=new he(o);o.on=s.on,o.off=s.off,i.trigger=s.trigger;var l=n.svgatorPlayer&&n.svgatorPlayer.ready&&n.svgatorPlayer.ready.call&&n.svgatorPlayer.ready.call();n.svgatorPlayer=o,function(t,e,n){if("click"===n.start){var r=function(){switch(n.click){case"freeze":return!t._running&&t.reachedToEnd()?t.restart():t.toggle();case"restart":return t.offset>0?t.restart():t.play();case"reverse":return t._running?t.reverse():t.reachedToEnd()?1===t.fill?t.reverse(!0):t.restart():t.play();case"none":default:if(t._running)return;return t.reachedToEnd()?t.restart():t.play()}};return t._handlers.push({element:e,event:"click",handler:r}),void e.addEventListener("click",r)}if("hover"===n.start){var i=function(){return t.reachedToEnd()?t.restart():t._rollingBack?t.reverse():t.play()};t._handlers.push({element:e,event:"mouseenter",handler:i}),e.addEventListener("mouseenter",i);var o=function(){switch(n.hover){case"freeze":return t.pause();case"reset":return t.stop();case"reverse":if(t.reverse(),t._running)return;return t.play();case"none":default:return}};return t._handlers.push({element:e,event:"mouseleave",handler:o}),void e.addEventListener("mouseleave",o)}if("scroll"===n.start){var u=new vt(e,n.scroll||25,(function(e){e?t.reachedToEnd()?t.restart():t.play():t.pause()}));return void t._handlers.push({callback:function(){return u.destruct()}})}if("programmatic"===n.start)return;t.play()}(i,n,r),function(t,e,n){var r;"function"==typeof Event?r=new Event("ready"):(r=document.createEvent("Event")).initEvent("ready",!0,!0);if(t.dispatchEvent(r),!n||!n.length)return;n.forEach((function(t){return e.ready(t)}))}(n,n.svgatorPlayer,l)}}]),u}(ct);return de.init(),de}));
(function(s,i,o,w,a,b){(a=document.getElementById(i.root)).svgatorPlayer={ready:(function(a){b=[];return function(c){return c?(b.push(c),a.svgatorPlayer):b}})(a)};w[o]=w[o]||{};w[o][s]=w[o][s]||[];w[o][s].push(i);})('91c80d77',{"root":"illustration-service","version":"2022-05-04","animations":[{"elements":{"illustration-service-s-g1":{"transform":{"data":{"t":{"x":-175.723999,"y":-98.588202}},"keys":{"o":[{"t":0,"v":{"x":175.723999,"y":98.588202,"type":"corner"}},{"t":1000,"v":{"x":171.723999,"y":94.588202,"type":"corner"}},{"t":2000,"v":{"x":175.723999,"y":98.588202,"type":"corner"}}]}}},"illustration-service-s-g4":{"transform":{"data":{"t":{"x":-338.723999,"y":-97.724302}},"keys":{"o":[{"t":0,"v":{"x":338.723999,"y":97.724303,"type":"corner"}},{"t":1000,"v":{"x":342.723999,"y":93.724303,"type":"corner"}},{"t":2000,"v":{"x":338.723999,"y":97.724303,"type":"corner"}}]}}},"illustration-service-s-g5":{"transform":{"data":{"t":{"x":-176.275497,"y":-377.139495}},"keys":{"o":[{"t":0,"v":{"x":176.275498,"y":377.139496,"type":"corner"}},{"t":1000,"v":{"x":172.275498,"y":381.139496,"type":"corner"}},{"t":2000,"v":{"x":176.275498,"y":377.139496,"type":"corner"}}]}}},"illustration-service-s-g8":{"transform":{"data":{"t":{"x":-339.466003,"y":-377.139495}},"keys":{"o":[{"t":0,"v":{"x":339.466004,"y":377.139496,"type":"corner"}},{"t":1000,"v":{"x":343.466004,"y":381.139496,"type":"corner"}},{"t":2000,"v":{"x":339.466004,"y":377.139496,"type":"corner"}}]}}},"illustration-service-s-g9":{"transform":{"data":{"t":{"x":-420.725006,"y":-236.628006}},"keys":{"o":[{"t":0,"v":{"x":420.725007,"y":236.628006,"type":"corner"}},{"t":1000,"v":{"x":424.725007,"y":236.628006,"type":"corner"}},{"t":2000,"v":{"x":420.725007,"y":236.628006,"type":"corner"}}]}}},"illustration-service-s-g10":{"transform":{"data":{"t":{"x":-94.723795,"y":-236.628006}},"keys":{"o":[{"t":0,"v":{"x":94.723795,"y":236.628006,"type":"corner"}},{"t":1000,"v":{"x":90.723795,"y":236.628006,"type":"corner"}},{"t":2000,"v":{"x":94.723795,"y":236.628006,"type":"corner"}}]}}}},"s":"MDSA1ZEc5MjM5NW2I4Yzg5Nzg4VYjgwODY4NTMR5NTFWNDk0NzIQ3NDc0MzM5UHjdiODA4OTdjHN2FQOGI4MDgW2ODUzOTUxNDTg0MzM5ODA4YKjdjODk3ODhiOODA4Njg1UDhOhMzk1MTQ3NDGMzOUU3ZDgwOADM4MzM5NTE0LOE80MzM5NzgJ4MzhiN2M4OTQg1Nzg4YjdjMYzlGNTE3ZDc4DODM4YUI3YzQTzMzk4YTg3N2OM3YzdiMzk1MDTQ4NDMzOTdkPODc4YTM5NTEB0ODQ3NDc5NAL|"}],"options":"MDDAxODhmRDM2OBDc4ODc1ODY4SODM2NGUzNjgE0Ujg2ODM3YjTg2NzU4MTgxNXzU4ODdkWTc3CMzY5MQ|"},'__SVGATOR_PLAYER__',window)
]]></script>
</svg>
