
<svg id="e4ED5R9PUm61" xmlns="http://www.w3.org/2000/svg" xmlns:xlink="http://www.w3.org/1999/xlink" viewBox="0 0 515 475" shape-rendering="geometricPrecision" text-rendering="geometricPrecision" style="background-color:transparent"><defs><linearGradient id="e4ED5R9PUm63-fill" x1="175.724" y1="179.313" x2="175.724" y2="17.8639" spreadMethod="pad" gradientUnits="userSpaceOnUse" gradientTransform="translate(0 0)"><stop id="e4ED5R9PUm63-fill-0" offset="0%" stop-color="#ecf3fb"/><stop id="e4ED5R9PUm63-fill-1" offset="100%" stop-color="#fff"/></linearGradient><linearGradient id="e4ED5R9PUm63-stroke" x1="175.724" y1="179.313" x2="175.724" y2="17.8639" spreadMethod="pad" gradientUnits="userSpaceOnUse" gradientTransform="translate(0 0)"><stop id="e4ED5R9PUm63-stroke-0" offset="0%" stop-color="#e7eef8"/><stop id="e4ED5R9PUm63-stroke-1" offset="100%" stop-color="#eaa0e1"/></linearGradient><radialGradient id="e4ED5R9PUm67-fill" cx="0" cy="0" r="1" spreadMethod="pad" gradientUnits="userSpaceOnUse" gradientTransform="matrix(52.2988 0 0 52.2988 158.782 92.1151)"><stop id="e4ED5R9PUm67-fill-0" offset="13.5417%" stop-color="#b658bb"/><stop id="e4ED5R9PUm67-fill-1" offset="100%" stop-color="#1341a9"/></radialGradient><linearGradient id="e4ED5R9PUm611-fill" x1="338.724" y1="178.449" x2="338.724" y2="17.0001" spreadMethod="pad" gradientUnits="userSpaceOnUse" gradientTransform="translate(0 0)"><stop id="e4ED5R9PUm611-fill-0" offset="0%" stop-color="#ecf3fb"/><stop id="e4ED5R9PUm611-fill-1" offset="100%" stop-color="#fff"/></linearGradient><linearGradient id="e4ED5R9PUm611-stroke" x1="338.724" y1="178.449" x2="338.724" y2="17.0001" spreadMethod="pad" gradientUnits="userSpaceOnUse" gradientTransform="translate(0 0)"><stop id="e4ED5R9PUm611-stroke-0" offset="0%" stop-color="#e7eef8"/><stop id="e4ED5R9PUm611-stroke-1" offset="100%" stop-color="#eaa0e1"/></linearGradient><radialGradient id="e4ED5R9PUm613-fill" cx="0" cy="0" r="1" spreadMethod="pad" gradientUnits="userSpaceOnUse" gradientTransform="matrix(47.069 0 0 47.069 322.449 90.4487)"><stop id="e4ED5R9PUm613-fill-0" offset="13.5417%" stop-color="#b658bb"/><stop id="e4ED5R9PUm613-fill-1" offset="100%" stop-color="#1341a9"/></radialGradient><linearGradient id="e4ED5R9PUm615-fill" x1="176.276" y1="457.864" x2="176.276" y2="296.415" spreadMethod="pad" gradientUnits="userSpaceOnUse" gradientTransform="translate(0 0)"><stop id="e4ED5R9PUm615-fill-0" offset="0%" stop-color="#ecf3fb"/><stop id="e4ED5R9PUm615-fill-1" offset="100%" stop-color="#fff"/></linearGradient><linearGradient id="e4ED5R9PUm615-stroke" x1="176.276" y1="457.864" x2="176.276" y2="296.415" spreadMethod="pad" gradientUnits="userSpaceOnUse" gradientTransform="translate(0 0)"><stop id="e4ED5R9PUm615-stroke-0" offset="0%" stop-color="#e7eef8"/><stop id="e4ED5R9PUm615-stroke-1" offset="100%" stop-color="#eaa0e1"/></linearGradient><radialGradient id="e4ED5R9PUm619-stroke" cx="0" cy="0" r="1" spreadMethod="pad" gradientUnits="userSpaceOnUse" gradientTransform="matrix(56.4828 0 0 56.4828 158 376)"><stop id="e4ED5R9PUm619-stroke-0" offset="13.5417%" stop-color="#b658bb"/><stop id="e4ED5R9PUm619-stroke-1" offset="100%" stop-color="#1341a9"/></radialGradient><linearGradient id="e4ED5R9PUm623-fill" x1="339.466" y1="457.864" x2="339.466" y2="296.415" spreadMethod="pad" gradientUnits="userSpaceOnUse" gradientTransform="translate(0 0)"><stop id="e4ED5R9PUm623-fill-0" offset="0%" stop-color="#ecf3fb"/><stop id="e4ED5R9PUm623-fill-1" offset="100%" stop-color="#fff"/></linearGradient><linearGradient id="e4ED5R9PUm623-stroke" x1="339.466" y1="457.864" x2="339.466" y2="296.415" spreadMethod="pad" gradientUnits="userSpaceOnUse" gradientTransform="translate(0 0)"><stop id="e4ED5R9PUm623-stroke-0" offset="0%" stop-color="#e7eef8"/><stop id="e4ED5R9PUm623-stroke-1" offset="100%" stop-color="#eaa0e1"/></linearGradient><radialGradient id="e4ED5R9PUm625-fill" cx="0" cy="0" r="1" spreadMethod="pad" gradientUnits="userSpaceOnUse" gradientTransform="matrix(58.8362 0 0 54.9138 326.5 362.5)"><stop id="e4ED5R9PUm625-fill-0" offset="13.5417%" stop-color="#b658bb"/><stop id="e4ED5R9PUm625-fill-1" offset="100%" stop-color="#1341a9"/></radialGradient><linearGradient id="e4ED5R9PUm627-fill" x1="420.725" y1="317.353" x2="420.725" y2="155.904" spreadMethod="pad" gradientUnits="userSpaceOnUse" gradientTransform="translate(0 0)"><stop id="e4ED5R9PUm627-fill-0" offset="0%" stop-color="#ecf3fb"/><stop id="e4ED5R9PUm627-fill-1" offset="100%" stop-color="#fff"/></linearGradient><linearGradient id="e4ED5R9PUm627-stroke" x1="420.725" y1="317.353" x2="420.725" y2="155.904" spreadMethod="pad" gradientUnits="userSpaceOnUse" gradientTransform="translate(0 0)"><stop id="e4ED5R9PUm627-stroke-0" offset="0%" stop-color="#e7eef8"/><stop id="e4ED5R9PUm627-stroke-1" offset="100%" stop-color="#eaa0e1"/></linearGradient><radialGradient id="e4ED5R9PUm629-fill" cx="0" cy="0" r="1" spreadMethod="pad" gradientUnits="userSpaceOnUse" gradientTransform="matrix(52.2989 0 0 47.0928 404.333 233.013)"><stop id="e4ED5R9PUm629-fill-0" offset="13.5417%" stop-color="#b658bb"/><stop id="e4ED5R9PUm629-fill-1" offset="100%" stop-color="#1341a9"/></radialGradient><linearGradient id="e4ED5R9PUm631-fill" x1="94.7239" y1="317.353" x2="94.7239" y2="155.904" spreadMethod="pad" gradientUnits="userSpaceOnUse" gradientTransform="translate(0 0)"><stop id="e4ED5R9PUm631-fill-0" offset="0%" stop-color="#ecf3fb"/><stop id="e4ED5R9PUm631-fill-1" offset="100%" stop-color="#fff"/></linearGradient><linearGradient id="e4ED5R9PUm631-stroke" x1="94.7239" y1="317.353" x2="94.7239" y2="155.904" spreadMethod="pad" gradientUnits="userSpaceOnUse" gradientTransform="translate(0 0)"><stop id="e4ED5R9PUm631-stroke-0" offset="0%" stop-color="#e7eef8"/><stop id="e4ED5R9PUm631-stroke-1" offset="100%" stop-color="#eaa0e1"/></linearGradient><radialGradient id="e4ED5R9PUm635-stroke" cx="0" cy="0" r="1" spreadMethod="pad" gradientUnits="userSpaceOnUse" gradientTransform="matrix(52.3402 0 0 47.0906 76.3203 237)"><stop id="e4ED5R9PUm635-stroke-0" offset="13.5417%" stop-color="#b658bb"/><stop id="e4ED5R9PUm635-stroke-1" offset="100%" stop-color="#1341a9"/></radialGradient><radialGradient id="e4ED5R9PUm636-stroke" cx="0" cy="0" r="1" spreadMethod="pad" gradientUnits="userSpaceOnUse" gradientTransform="matrix(32.6809 0 0 33.0529 86.7539 232)"><stop id="e4ED5R9PUm636-stroke-0" offset="13.5417%" stop-color="#b658bb"/><stop id="e4ED5R9PUm636-stroke-1" offset="100%" stop-color="#1341a9"/></radialGradient></defs><g id="e4ED5R9PUm62"><path d="M175.724,178.242c1.985,0,3.843-.526,6-1.503c2.126-.963,4.611-2.398,7.837-4.261l.047-.027l43.141-24.907.047-.027c3.226-1.863,5.711-3.298,7.608-4.657c1.924-1.379,3.31-2.726,4.302-4.445.993-1.719,1.466-3.592,1.698-5.948.229-2.323.229-5.192.229-8.917v-.054-49.8154-.0542c0-3.7253,0-6.5944-.229-8.9173-.232-2.3559-.705-4.2287-1.698-5.9478s-2.378-3.0654-4.302-4.4445c-1.897-1.3597-4.382-2.7942-7.608-4.6568l-.047-.0272-43.141-24.9077-.048-.0274c-3.226-1.8625-5.71-3.2969-7.836-4.26-2.157-.9769-4.015-1.5033-6-1.5033s-3.844.5264-6,1.5033c-2.126.9631-4.611,2.3977-7.837,4.2603l-.047.0271-43.141,24.9076-.048.0273c-3.226,1.8626-5.71,3.2971-7.607,4.6568-1.925,1.3791-3.31,2.7254-4.302,4.4445-.993,1.7191-1.466,3.5919-1.699,5.9478-.229,2.3229-.228,5.1921-.228,8.9175v.054v49.8154.054c0,3.725-.001,6.594.228,8.917.233,2.356.706,4.229,1.699,5.948.992,1.719,2.377,3.066,4.302,4.445c1.897,1.359,4.381,2.794,7.608,4.657l.047.027l43.141,24.907.047.027c3.226,1.863,5.711,3.298,7.837,4.261c2.156.977,4.015,1.503,6,1.503Z" fill="url(#e4ED5R9PUm63-fill)" stroke="url(#e4ED5R9PUm63-stroke)" stroke-width="2"/><path d="M140.312,110.849c1.632,0,2.916.39,3.852,1.17s1.404,1.854,1.404,3.222-.468,2.442-1.404,3.222-2.22,1.17-3.852,1.17h-3.114v3.816h-1.8v-12.6h4.914Zm-.054,7.218c1.14,0,2.01-.24,2.61-.72.6-.492.9-1.194.9-2.106s-.3-1.608-.9-2.088c-.6-.492-1.47-.738-2.61-.738h-3.06v5.652h3.06Zm9.2-2.556c.3-.552.744-.972,1.332-1.26s1.302-.432,2.142-.432v1.674c-.096-.012-.228-.018-.396-.018-.936,0-1.674.282-2.214.846-.528.552-.792,1.344-.792,2.376v4.752h-1.728v-9.54h1.656v1.602Zm14.138,3.222c0,.132-.012.306-.036.522h-7.74c.108.84.474,1.518,1.098,2.034.636.504,1.422.756,2.358.756c1.14,0,2.058-.384,2.754-1.152l.954,1.116c-.432.504-.972.888-1.62,1.152-.636.264-1.35.396-2.142.396-1.008,0-1.902-.204-2.682-.612-.78-.42-1.386-1.002-1.818-1.746-.42-.744-.63-1.584-.63-2.52c0-.924.204-1.758.612-2.502.42-.744.99-1.32,1.71-1.728.732-.42,1.554-.63,2.466-.63s1.722.21,2.43.63c.72.408,1.278.984,1.674,1.728.408.744.612,1.596.612,2.556Zm-4.716-3.456c-.828,0-1.524.252-2.088.756-.552.504-.876,1.164-.972,1.98h6.12c-.096-.804-.426-1.458-.99-1.962-.552-.516-1.242-.774-2.07-.774Zm11.273,8.28c-.972,0-1.842-.21-2.61-.63-.756-.42-1.35-.996-1.782-1.728-.432-.744-.648-1.584-.648-2.52s.216-1.77.648-2.502c.432-.744,1.026-1.32,1.782-1.728.768-.42,1.638-.63,2.61-.63.864,0,1.632.174,2.304.522.684.348,1.212.852,1.584,1.512l-1.314.846c-.3-.456-.672-.798-1.116-1.026s-.936-.342-1.476-.342c-.624,0-1.188.138-1.692.414-.492.276-.882.672-1.17,1.188-.276.504-.414,1.086-.414,1.746c0,.672.138,1.266.414,1.782.288.504.678.894,1.17,1.17.504.276,1.068.414,1.692.414.54,0,1.032-.114,1.476-.342s.816-.57,1.116-1.026l1.314.828c-.372.66-.9,1.17-1.584,1.53-.672.348-1.44.522-2.304.522Zm6.126-9.648h1.728v9.54h-1.728v-9.54Zm.864-1.836c-.336,0-.618-.108-.846-.324-.216-.216-.324-.48-.324-.792s.108-.576.324-.792c.228-.228.51-.342.846-.342s.612.108.828.324c.228.204.342.462.342.774c0,.324-.114.6-.342.828-.216.216-.492.324-.828.324Zm6.899,11.484c-.78,0-1.53-.102-2.25-.306-.72-.216-1.284-.486-1.692-.81l.72-1.368c.42.3.93.54,1.53.72s1.206.27,1.818.27c1.512,0,2.268-.432,2.268-1.296c0-.288-.102-.516-.306-.684s-.462-.288-.774-.36c-.3-.084-.732-.174-1.296-.27-.768-.12-1.398-.258-1.89-.414-.48-.156-.894-.42-1.242-.792s-.522-.894-.522-1.566c0-.864.36-1.554,1.08-2.07.72-.528,1.686-.792,2.898-.792.636,0,1.272.078,1.908.234s1.158.366,1.566.63l-.738,1.368c-.78-.504-1.698-.756-2.754-.756-.732,0-1.29.12-1.674.36s-.576.558-.576.954c0,.312.108.558.324.738s.48.312.792.396c.324.084.774.18,1.35.288.768.132,1.386.276,1.854.432.48.144.888.396,1.224.756s.504.864.504,1.512c0,.864-.372,1.554-1.116,2.07-.732.504-1.734.756-3.006.756Zm6.281-9.648h1.728v9.54h-1.728v-9.54Zm.864-1.836c-.336,0-.618-.108-.846-.324-.216-.216-.324-.48-.324-.792s.108-.576.324-.792c.228-.228.51-.342.846-.342s.612.108.828.324c.228.204.342.462.342.774c0,.324-.114.6-.342.828-.216.216-.492.324-.828.324Zm8.25,11.484c-.948,0-1.8-.21-2.556-.63s-1.35-.996-1.782-1.728c-.42-.744-.63-1.584-.63-2.52s.21-1.77.63-2.502c.432-.744,1.026-1.32,1.782-1.728.756-.42,1.608-.63,2.556-.63s1.794.21,2.538.63c.756.408,1.344.984,1.764,1.728.432.732.648,1.566.648,2.502s-.216,1.776-.648,2.52c-.42.732-1.008,1.308-1.764,1.728-.744.42-1.59.63-2.538.63Zm0-1.512c.612,0,1.158-.138,1.638-.414.492-.288.876-.684,1.152-1.188.276-.516.414-1.104.414-1.764s-.138-1.242-.414-1.746c-.276-.516-.66-.912-1.152-1.188-.48-.276-1.026-.414-1.638-.414s-1.164.138-1.656.414c-.48.276-.864.672-1.152,1.188-.276.504-.414,1.086-.414,1.746s.138,1.248.414,1.764c.288.504.672.9,1.152,1.188.492.276,1.044.414,1.656.414Zm12.434-8.226c1.212,0,2.172.354,2.88,1.062.72.696,1.08,1.722,1.08,3.078v5.49h-1.728v-5.292c0-.924-.222-1.62-.666-2.088s-1.08-.702-1.908-.702c-.936,0-1.674.276-2.214.828-.54.54-.81,1.32-.81,2.34v4.914h-1.728v-9.54h1.656v1.44c.348-.492.816-.87,1.404-1.134.6-.264,1.278-.396,2.034-.396Z" fill="#18265a"/><g clip-path="url(#e4ED5R9PUm68)"><g><path d="M176.991,60.5401v.1117l.111.0125c3.353.3759,6.479,1.8801,8.865,4.2661s3.89,5.512,4.266,8.8653l.012.111h.112.092c.409,0,.801.1625,1.09.4516s.452.6812.452,1.0901-.163.801-.452,1.0901-.681.4516-1.09.4516h-.092-.112l-.012.111c-.376,3.3533-1.88,6.4793-4.266,8.8653s-5.512,3.8903-8.865,4.2661l-.111.0125v.1117.0917c0,.4089-.163.801-.452,1.0901s-.681.4516-1.09.4516-.801-.1625-1.09-.4516-.452-.6812-.452-1.0901v-.0917-.1117l-.111-.0125c-3.353-.3758-6.479-1.8801-8.865-4.2661s-3.89-5.512-4.266-8.8653l-.013-.111h-.111-.092c-.409,0-.801-.1625-1.09-.4516s-.452-.6812-.452-1.0901.163-.801.452-1.0901.681-.4516,1.09-.4516h.092.111l.013-.111c.376-3.3533,1.88-6.4793,4.266-8.8653s5.512-3.8902,8.865-4.2661l.111-.0125v-.1117-.0917c0-.4089.163-.801.452-1.0901s.681-.4516,1.09-.4516.801.1625,1.09.4516.452.6812.452,1.0901v.0917Zm-13.09,13.3666h1.548c.393.0005.771.1509,1.056.4207.286.2697.458.6384.481,1.0307s-.105.7785-.357,1.0798c-.251.3004-.607.4938-.996.541l-.188.0112h-1.546-.145l.021.1429c.354,2.4463,1.468,4.7195,3.183,6.4991c1.716,1.7796,3.947,2.9756,6.378,3.4193l.003.0004.423.0683.145.0234v-.1468-1.5482c.001-.3929.151-.7708.421-1.0566s.638-.4576,1.031-.4807c.392-.023.778.1046,1.079.3568.301.2515.494.6078.541.9966l.012.1875v1.5463.1444l.142-.0207c2.447-.3543,4.72-1.4677,6.5-3.1832c1.779-1.7155,2.975-3.9464,3.419-6.3781v-.0025l.069-.4233.023-.1449h-.147-1.548c-.393-.0005-.771-.1509-1.057-.4207-.285-.2697-.457-.6384-.48-1.0306s.104-.7786.357-1.0799c.251-.3004.607-.4938.996-.5409l.188-.0113h1.546.144l-.02-.1429c-.355-2.4462-1.468-4.7195-3.184-6.4991-1.715-1.7795-3.946-2.9756-6.378-3.4193v0l-.002-.0004-.424-.0683-.019.1217v0h-.125v.0017.1064v1.4418c-.001.3929-.151.7708-.421,1.0566-.27.2857-.638.4576-1.031.4807-.392.023-.778-.1046-1.08-.3568-.3-.2515-.493-.6078-.541-.9966l-.011-.1875v-1.5463-.1444l-.143.0207c-2.446.3543-4.719,1.4677-6.499,3.1832-1.779,1.7155-2.975,3.9464-3.419,6.3781v0l-.001.0025-.068.4233-.023.1449h.147Zm11.548-.8333c.63,0,1.234.2502,1.679.6956.446.4454.696,1.0495.696,1.6794s-.25,1.234-.696,1.6794c-.445.4454-1.049.6956-1.679.6956s-1.234-.2502-1.679-.6956c-.446-.4454-.696-1.0495-.696-1.6794s.25-1.234.696-1.6794c.445-.4454,1.049-.6956,1.679-.6956Z" fill="url(#e4ED5R9PUm67-fill)" stroke="#ecf3fb" stroke-width="0.25"/></g><clipPath id="e4ED5R9PUm68"><rect width="40" height="40" rx="0" ry="0" transform="translate(155.449 55.4487)" fill="#fff"/></clipPath></g></g><g id="e4ED5R9PUm610" transform="translate(0 0.000001)"><path d="M338.724,177.378c1.985,0,3.843-.526,6-1.503c2.126-.963,4.611-2.398,7.837-4.26l.047-.028l43.141-24.907.047-.027c3.226-1.863,5.711-3.297,7.608-4.657c1.924-1.379,3.31-2.726,4.302-4.445.993-1.719,1.466-3.592,1.698-5.948.229-2.322.229-5.191.229-8.917v-.054-49.8152-.0542c0-3.7253,0-6.5944-.229-8.9172-.232-2.356-.705-4.2288-1.698-5.9479s-2.378-3.0654-4.302-4.4445c-1.897-1.3597-4.382-2.7942-7.608-4.6568l-.047-.0272-43.141-24.9076-.048-.0274c-3.226-1.8625-5.71-3.297-7.836-4.2601-2.157-.9768-4.015-1.5033-6-1.5033s-3.844.5265-6,1.5033c-2.126.9632-4.611,2.3977-7.837,4.2604l-.047.0271L281.699,48.769l-.048.0272c-3.226,1.8626-5.71,3.2971-7.607,4.6568-1.925,1.3791-3.31,2.7255-4.302,4.4445-.993,1.7191-1.466,3.5919-1.699,5.9479-.229,2.3229-.228,5.192-.228,8.9175v.0539v49.8152.054c0,3.725-.001,6.595.228,8.918.233,2.355.706,4.228,1.699,5.947.992,1.719,2.377,3.066,4.302,4.445c1.897,1.36,4.381,2.794,7.608,4.657l.047.027l43.141,24.907.047.028c3.226,1.862,5.711,3.297,7.837,4.26c2.156.977,4.015,1.503,6,1.503Z" fill="url(#e4ED5R9PUm611-fill)" stroke="url(#e4ED5R9PUm611-stroke)" stroke-width="2"/><path d="M299.414,123.593c-.948,0-1.866-.144-2.754-.432-.876-.3-1.566-.684-2.07-1.152l.666-1.404c.48.432,1.092.786,1.836,1.062.756.264,1.53.396,2.322.396c1.044,0,1.824-.174,2.34-.522.516-.36.774-.834.774-1.422c0-.432-.144-.78-.432-1.044-.276-.276-.624-.486-1.044-.63-.408-.144-.99-.306-1.746-.486-.948-.228-1.716-.456-2.304-.684-.576-.228-1.074-.576-1.494-1.044-.408-.48-.612-1.122-.612-1.926c0-.672.174-1.278.522-1.818.36-.54.9-.972,1.62-1.296s1.614-.486,2.682-.486c.744,0,1.476.096,2.196.288s1.338.468,1.854.828l-.594,1.44c-.528-.336-1.092-.588-1.692-.756-.6-.18-1.188-.27-1.764-.27-1.02,0-1.788.186-2.304.558-.504.372-.756.852-.756,1.44c0,.432.144.786.432,1.062.288.264.642.474,1.062.63.432.144,1.014.3,1.746.468.948.228,1.71.456,2.286.684s1.068.576,1.476,1.044c.42.468.63,1.098.63,1.89c0,.66-.18,1.266-.54,1.818-.36.54-.906.972-1.638,1.296-.732.312-1.632.468-2.7.468Zm7.256-9.684h1.728v9.54h-1.728v-9.54Zm.864-1.836c-.336,0-.618-.108-.846-.324-.216-.216-.324-.48-.324-.792s.108-.576.324-.792c.228-.228.51-.342.846-.342s.612.108.828.324c.228.204.342.462.342.774c0,.324-.114.6-.342.828-.216.216-.492.324-.828.324Zm16.097,1.746c1.2,0,2.148.348,2.844,1.044.708.696,1.062,1.728,1.062,3.096v5.49h-1.728v-5.292c0-.924-.216-1.62-.648-2.088-.42-.468-1.026-.702-1.818-.702-.876,0-1.572.276-2.088.828-.516.54-.774,1.32-.774,2.34v4.914h-1.728v-5.292c0-.924-.216-1.62-.648-2.088-.42-.468-1.026-.702-1.818-.702-.876,0-1.572.276-2.088.828-.516.54-.774,1.32-.774,2.34v4.914h-1.728v-9.54h1.656v1.422c.348-.492.804-.864,1.368-1.116.564-.264,1.206-.396,1.926-.396.744,0,1.404.15,1.98.45s1.02.738,1.332,1.314c.36-.552.858-.984,1.494-1.296.648-.312,1.374-.468,2.178-.468Zm12.144,0c.924,0,1.752.204,2.484.612s1.302.978,1.71,1.71c.42.732.63,1.578.63,2.538s-.21,1.812-.63,2.556c-.408.732-.978,1.302-1.71,1.71s-1.56.612-2.484.612c-.684,0-1.314-.132-1.89-.396-.564-.264-1.044-.648-1.44-1.152v4.932h-1.728v-13.032h1.656v1.512c.384-.528.87-.924,1.458-1.188.588-.276,1.236-.414,1.944-.414Zm-.144,8.226c.612,0,1.158-.138,1.638-.414.492-.288.876-.684,1.152-1.188.288-.516.432-1.104.432-1.764s-.144-1.242-.432-1.746c-.276-.516-.66-.912-1.152-1.188-.48-.276-1.026-.414-1.638-.414-.6,0-1.146.144-1.638.432-.48.276-.864.666-1.152,1.17-.276.504-.414,1.086-.414,1.746s.138,1.248.414,1.764c.276.504.66.9,1.152,1.188.492.276,1.038.414,1.638.414Zm7.356-11.952h1.728v13.356h-1.728v-13.356Zm5.027,3.816h1.728v9.54h-1.728v-9.54Zm.864-1.836c-.336,0-.618-.108-.846-.324-.216-.216-.324-.48-.324-.792s.108-.576.324-.792c.228-.228.51-.342.846-.342s.612.108.828.324c.228.204.342.462.342.774c0,.324-.114.6-.342.828-.216.216-.492.324-.828.324Zm8.321,11.484c-.972,0-1.842-.21-2.61-.63-.756-.42-1.35-.996-1.782-1.728-.432-.744-.648-1.584-.648-2.52s.216-1.77.648-2.502c.432-.744,1.026-1.32,1.782-1.728.768-.42,1.638-.63,2.61-.63.864,0,1.632.174,2.304.522.684.348,1.212.852,1.584,1.512l-1.314.846c-.3-.456-.672-.798-1.116-1.026s-.936-.342-1.476-.342c-.624,0-1.188.138-1.692.414-.492.276-.882.672-1.17,1.188-.276.504-.414,1.086-.414,1.746c0,.672.138,1.266.414,1.782.288.504.678.894,1.17,1.17.504.276,1.068.414,1.692.414.54,0,1.032-.114,1.476-.342s.816-.57,1.116-1.026l1.314.828c-.372.66-.9,1.17-1.584,1.53-.672.348-1.44.522-2.304.522Zm6.125-9.648h1.728v9.54h-1.728v-9.54Zm.864-1.836c-.336,0-.618-.108-.846-.324-.216-.216-.324-.48-.324-.792s.108-.576.324-.792c.228-.228.51-.342.846-.342s.612.108.828.324c.228.204.342.462.342.774c0,.324-.114.6-.342.828-.216.216-.492.324-.828.324Zm9.528,10.818c-.252.216-.564.384-.936.504-.372.108-.756.162-1.152.162-.96,0-1.704-.258-2.232-.774s-.792-1.254-.792-2.214v-5.238h-1.62v-1.422h1.62v-2.088h1.728v2.088h2.736v1.422h-2.736v5.166c0,.516.126.912.378,1.188.264.276.636.414,1.116.414.528,0,.978-.15,1.35-.45l.54,1.242Zm10.355-8.982l-4.626,10.494c-.408.972-.888,1.656-1.44,2.052-.54.396-1.194.594-1.962.594-.468,0-.924-.078-1.368-.234-.432-.144-.792-.36-1.08-.648l.738-1.296c.492.468,1.062.702,1.71.702.42,0,.768-.114,1.044-.342.288-.216.546-.594.774-1.134l.306-.666-4.212-9.522h1.8l3.33,7.632l3.294-7.632h1.692Z" fill="#18265a"/><path d="M322.449,65.8654c0-1.4366.571-2.8143,1.587-3.8302c1.015-1.0158,2.393-1.5865,3.83-1.5865h19.166c1.437,0,2.815.5707,3.831,1.5865c1.015,1.0159,1.586,2.3936,1.586,3.8302v19.1667c0,1.4366-.571,2.8143-1.586,3.8301-1.016,1.0158-2.394,1.5865-3.831,1.5865h-19.166c-1.437,0-2.815-.5707-3.83-1.5865-1.016-1.0158-1.587-2.3935-1.587-3.8301v-19.1667Zm5.417-2.9167c-.774,0-1.516.3073-2.063.8543s-.854,1.2888-.854,2.0624v8.3333h11.25v-11.25h-8.333Zm8.333,13.75h-11.25v8.3334c0,1.61,1.307,2.9166,2.917,2.9166h8.333v-11.25Zm2.5,0v11.25h8.333c.774,0,1.516-.3073,2.063-.8542s.854-1.2889.854-2.0624v-8.3334h-11.25Zm11.25-2.5v-8.3333c0-.7736-.307-1.5154-.854-2.0624s-1.289-.8543-2.063-.8543h-8.333v11.25h11.25Z" fill="url(#e4ED5R9PUm613-fill)"/></g><g id="e4ED5R9PUm614" transform="translate(.000001 0.000001)"><path d="M176.276,456.793c1.985,0,3.843-.526,6-1.503c2.126-.963,4.611-2.398,7.837-4.26l.047-.028l43.141-24.907.047-.027c3.226-1.863,5.711-3.298,7.608-4.657c1.924-1.379,3.309-2.726,4.302-4.445.992-1.719,1.466-3.592,1.698-5.948.229-2.322.229-5.192.229-8.917v-.054-49.815-.054c0-3.726,0-6.595-.229-8.918-.232-2.356-.706-4.228-1.698-5.948-.993-1.719-2.378-3.065-4.302-4.444-1.897-1.36-4.382-2.794-7.608-4.657l-.047-.027-43.141-24.908-.048-.027c-3.226-1.863-5.71-3.297-7.836-4.26-2.157-.977-4.015-1.503-6-1.503s-3.844.526-6,1.503c-2.126.963-4.611,2.398-7.837,4.26l-.047.027-43.142,24.908-.047.027c-3.226,1.863-5.711,3.297-7.608,4.657-1.924,1.379-3.309,2.725-4.302,4.444-.992,1.72-1.465,3.592-1.698,5.948-.229,2.323-.229,5.192-.229,8.918v.054v49.815.054c0,3.725,0,6.595.229,8.917.233,2.356.706,4.229,1.698,5.948.993,1.719,2.378,3.066,4.302,4.445c1.898,1.36,4.382,2.794,7.609,4.657l.046.027l43.142,24.907.046.027c3.227,1.863,5.712,3.298,7.838,4.261c2.156.977,4.015,1.503,6,1.503Z" fill="url(#e4ED5R9PUm615-fill)" stroke="url(#e4ED5R9PUm615-stroke)" stroke-width="2"/><path d="M129.358,389.849h1.8v12.6h-1.8v-12.6Zm10.414,2.97c1.212,0,2.172.354,2.88,1.062.72.696,1.08,1.722,1.08,3.078v5.49h-1.728v-5.292c0-.924-.222-1.62-.666-2.088s-1.08-.702-1.908-.702c-.936,0-1.674.276-2.214.828-.54.54-.81,1.32-.81,2.34v4.914h-1.728v-9.54h1.656v1.44c.348-.492.816-.87,1.404-1.134.6-.264,1.278-.396,2.034-.396Zm12.252,0c1.212,0,2.172.354,2.88,1.062.72.696,1.08,1.722,1.08,3.078v5.49h-1.728v-5.292c0-.924-.222-1.62-.666-2.088s-1.08-.702-1.908-.702c-.936,0-1.674.276-2.214.828-.54.54-.81,1.32-.81,2.34v4.914h-1.728v-9.54h1.656v1.44c.348-.492.816-.87,1.404-1.134.6-.264,1.278-.396,2.034-.396Zm11.297,9.738c-.948,0-1.8-.21-2.556-.63s-1.35-.996-1.782-1.728c-.42-.744-.63-1.584-.63-2.52s.21-1.77.63-2.502c.432-.744,1.026-1.32,1.782-1.728.756-.42,1.608-.63,2.556-.63s1.794.21,2.538.63c.756.408,1.344.984,1.764,1.728.432.732.648,1.566.648,2.502s-.216,1.776-.648,2.52c-.42.732-1.008,1.308-1.764,1.728-.744.42-1.59.63-2.538.63Zm0-1.512c.612,0,1.158-.138,1.638-.414.492-.288.876-.684,1.152-1.188.276-.516.414-1.104.414-1.764s-.138-1.242-.414-1.746c-.276-.516-.66-.912-1.152-1.188-.48-.276-1.026-.414-1.638-.414s-1.164.138-1.656.414c-.48.276-.864.672-1.152,1.188-.276.504-.414,1.086-.414,1.746s.138,1.248.414,1.764c.288.504.672.9,1.152,1.188.492.276,1.044.414,1.656.414Zm15.518-8.136l-4.176,9.54h-1.764l-4.176-9.54h1.8l3.276,7.65l3.348-7.65h1.692Zm4.788-.09c1.32,0,2.328.324,3.024.972.708.648,1.062,1.614,1.062,2.898v5.76h-1.638v-1.26c-.288.444-.702.786-1.242,1.026-.528.228-1.158.342-1.89.342-1.068,0-1.926-.258-2.574-.774-.636-.516-.954-1.194-.954-2.034s.306-1.512.918-2.016c.612-.516,1.584-.774,2.916-.774h2.736v-.342c0-.744-.216-1.314-.648-1.71s-1.068-.594-1.908-.594c-.564,0-1.116.096-1.656.288-.54.18-.996.426-1.368.738l-.72-1.296c.492-.396,1.08-.696,1.764-.9.684-.216,1.41-.324,2.178-.324Zm-.396,8.406c.66,0,1.23-.144,1.71-.432.48-.3.828-.72,1.044-1.26v-1.332h-2.664c-1.464,0-2.196.492-2.196,1.476c0,.48.186.858.558,1.134s.888.414,1.548.414Zm13.043.666c-.252.216-.564.384-.936.504-.372.108-.756.162-1.152.162-.96,0-1.704-.258-2.232-.774s-.792-1.254-.792-2.214v-5.238h-1.62v-1.422h1.62v-2.088h1.728v2.088h2.736v1.422h-2.736v5.166c0,.516.126.912.378,1.188.264.276.636.414,1.116.414.528,0,.978-.15,1.35-.45l.54,1.242Zm2.09-8.982h1.728v9.54h-1.728v-9.54Zm.864-1.836c-.336,0-.618-.108-.846-.324-.216-.216-.324-.48-.324-.792s.108-.576.324-.792c.228-.228.51-.342.846-.342s.612.108.828.324c.228.204.342.462.342.774c0,.324-.114.6-.342.828-.216.216-.492.324-.828.324Zm8.249,11.484c-.948,0-1.8-.21-2.556-.63s-1.35-.996-1.782-1.728c-.42-.744-.63-1.584-.63-2.52s.21-1.77.63-2.502c.432-.744,1.026-1.32,1.782-1.728.756-.42,1.608-.63,2.556-.63s1.794.21,2.538.63c.756.408,1.344.984,1.764,1.728.432.732.648,1.566.648,2.502s-.216,1.776-.648,2.52c-.42.732-1.008,1.308-1.764,1.728-.744.42-1.59.63-2.538.63Zm0-1.512c.612,0,1.158-.138,1.638-.414.492-.288.876-.684,1.152-1.188.276-.516.414-1.104.414-1.764s-.138-1.242-.414-1.746c-.276-.516-.66-.912-1.152-1.188-.48-.276-1.026-.414-1.638-.414s-1.164.138-1.656.414c-.48.276-.864.672-1.152,1.188-.276.504-.414,1.086-.414,1.746s.138,1.248.414,1.764c.288.504.672.9,1.152,1.188.492.276,1.044.414,1.656.414Zm12.434-8.226c1.212,0,2.172.354,2.88,1.062.72.696,1.08,1.722,1.08,3.078v5.49h-1.728v-5.292c0-.924-.222-1.62-.666-2.088s-1.08-.702-1.908-.702c-.936,0-1.674.276-2.214.828-.54.54-.81,1.32-.81,2.34v4.914h-1.728v-9.54h1.656v1.44c.348-.492.816-.87,1.404-1.134.6-.264,1.278-.396,2.034-.396Z" fill="#18265a"/><g clip-path="url(#e4ED5R9PUm620)"><g><path d="M171.326,368h9.346M176,340v2m12.728,3.272l-1.414,1.414M194,358h-2m-32,0h-2m6.686-11.314l-1.414-1.414m5.656,19.8c-1.398-1.399-2.35-3.181-2.736-5.12-.386-1.94-.187-3.951.569-5.778.757-1.827,2.039-3.389,3.684-4.487c1.644-1.099,3.577-1.685,5.555-1.685s3.911.586,5.555,1.685c1.645,1.098,2.927,2.66,3.684,4.487.756,1.827.955,3.838.569,5.778-.386,1.939-1.338,3.721-2.736,5.12l-1.096,1.094c-.627.626-1.124,1.37-1.463,2.189s-.513,1.697-.513,2.583v1.062c0,1.061-.421,2.078-1.172,2.828-.75.75-1.767,1.172-2.828,1.172s-2.078-.422-2.828-1.172c-.751-.75-1.172-1.767-1.172-2.828v-1.062c0-1.79-.712-3.508-1.976-4.772l-1.096-1.094Z" fill="none" stroke="url(#e4ED5R9PUm619-stroke)" stroke-width="2.5" stroke-linecap="round" stroke-linejoin="round"/></g><clipPath id="e4ED5R9PUm620"><rect width="40" height="40" rx="0" ry="0" transform="translate(156 338)" fill="#fff"/></clipPath></g></g><g id="e4ED5R9PUm622" transform="translate(.000001 0.000001)"><path d="M339.466,456.793c1.985,0,3.844-.526,6-1.503c2.126-.963,4.611-2.398,7.837-4.26l.047-.028l43.141-24.907.047-.027c3.227-1.863,5.711-3.298,7.608-4.657c1.925-1.379,3.31-2.726,4.302-4.445.993-1.719,1.466-3.592,1.698-5.948.229-2.322.229-5.192.229-8.917v-.054-49.815-.054c0-3.726,0-6.595-.229-8.918-.232-2.356-.705-4.228-1.698-5.948-.992-1.719-2.377-3.065-4.302-4.444-1.897-1.36-4.381-2.794-7.607-4.657l-.048-.027-43.141-24.908-.047-.027c-3.226-1.863-5.711-3.297-7.837-4.26-2.156-.977-4.015-1.503-6-1.503s-3.843.526-6,1.503c-2.126.963-4.611,2.398-7.837,4.26l-.047.027-43.141,24.908-.047.027c-3.226,1.863-5.711,3.297-7.608,4.657-1.924,1.379-3.31,2.725-4.302,4.444-.993,1.72-1.466,3.592-1.698,5.948-.229,2.323-.229,5.192-.229,8.918v.054v49.815.054c0,3.725,0,6.595.229,8.917.232,2.356.705,4.229,1.698,5.948.992,1.719,2.378,3.066,4.302,4.445c1.897,1.36,4.382,2.794,7.608,4.657l.047.027l43.141,24.907.047.027c3.226,1.863,5.711,3.298,7.837,4.261c2.157.977,4.015,1.503,6,1.503Z" fill="url(#e4ED5R9PUm623-fill)" stroke="url(#e4ED5R9PUm623-stroke)" stroke-width="2"/><path d="M302,391.593c-1.26,0-2.4-.276-3.42-.828-1.008-.564-1.8-1.332-2.376-2.304-.576-.984-.864-2.088-.864-3.312s.288-2.322.864-3.294c.576-.984,1.374-1.752,2.394-2.304c1.02-.564,2.16-.846,3.42-.846.984,0,1.884.168,2.7.504.816.324,1.512.81,2.088,1.458l-1.17,1.134c-.948-.996-2.13-1.494-3.546-1.494-.936,0-1.782.21-2.538.63s-1.35,1.002-1.782,1.746c-.42.732-.63,1.554-.63,2.466s.21,1.74.63,2.484c.432.732,1.026,1.308,1.782,1.728s1.602.63,2.538.63c1.404,0,2.586-.504,3.546-1.512l1.17,1.134c-.576.648-1.278,1.14-2.106,1.476-.816.336-1.716.504-2.7.504Zm15.715-9.684v9.54h-1.638v-1.44c-.348.492-.81.876-1.386,1.152-.564.264-1.182.396-1.854.396-1.272,0-2.274-.348-3.006-1.044-.732-.708-1.098-1.746-1.098-3.114v-5.49h1.728v5.292c0,.924.222,1.626.666,2.106.444.468,1.08.702,1.908.702.912,0,1.632-.276,2.16-.828s.792-1.332.792-2.34v-4.932h1.728Zm6.025,9.648c-.78,0-1.53-.102-2.25-.306-.72-.216-1.284-.486-1.692-.81l.72-1.368c.42.3.93.54,1.53.72s1.206.27,1.818.27c1.512,0,2.268-.432,2.268-1.296c0-.288-.102-.516-.306-.684s-.462-.288-.774-.36c-.3-.084-.732-.174-1.296-.27-.768-.12-1.398-.258-1.89-.414-.48-.156-.894-.42-1.242-.792s-.522-.894-.522-1.566c0-.864.36-1.554,1.08-2.07.72-.528,1.686-.792,2.898-.792.636,0,1.272.078,1.908.234s1.158.366,1.566.63l-.738,1.368c-.78-.504-1.698-.756-2.754-.756-.732,0-1.29.12-1.674.36s-.576.558-.576.954c0,.312.108.558.324.738s.48.312.792.396c.324.084.774.18,1.35.288.768.132,1.386.276,1.854.432.48.144.888.396,1.224.756s.504.864.504,1.512c0,.864-.372,1.554-1.116,2.07-.732.504-1.734.756-3.006.756Zm11.646-.666c-.252.216-.564.384-.936.504-.372.108-.756.162-1.152.162-.96,0-1.704-.258-2.232-.774s-.792-1.254-.792-2.214v-5.238h-1.62v-1.422h1.62v-2.088h1.728v2.088h2.736v1.422h-2.736v5.166c0,.516.126.912.378,1.188.264.276.636.414,1.116.414.528,0,.978-.15,1.35-.45l.54,1.242Zm5.859.666c-.948,0-1.8-.21-2.556-.63s-1.35-.996-1.782-1.728c-.42-.744-.63-1.584-.63-2.52s.21-1.77.63-2.502c.432-.744,1.026-1.32,1.782-1.728.756-.42,1.608-.63,2.556-.63s1.794.21,2.538.63c.756.408,1.344.984,1.764,1.728.432.732.648,1.566.648,2.502s-.216,1.776-.648,2.52c-.42.732-1.008,1.308-1.764,1.728-.744.42-1.59.63-2.538.63Zm0-1.512c.612,0,1.158-.138,1.638-.414.492-.288.876-.684,1.152-1.188.276-.516.414-1.104.414-1.764s-.138-1.242-.414-1.746c-.276-.516-.66-.912-1.152-1.188-.48-.276-1.026-.414-1.638-.414s-1.164.138-1.656.414c-.48.276-.864.672-1.152,1.188-.276.504-.414,1.086-.414,1.746s.138,1.248.414,1.764c.288.504.672.9,1.152,1.188.492.276,1.044.414,1.656.414Zm19.273-8.226c1.2,0,2.148.348,2.844,1.044.708.696,1.062,1.728,1.062,3.096v5.49h-1.728v-5.292c0-.924-.216-1.62-.648-2.088-.42-.468-1.026-.702-1.818-.702-.876,0-1.572.276-2.088.828-.516.54-.774,1.32-.774,2.34v4.914h-1.728v-5.292c0-.924-.216-1.62-.648-2.088-.42-.468-1.026-.702-1.818-.702-.876,0-1.572.276-2.088.828-.516.54-.774,1.32-.774,2.34v4.914h-1.728v-9.54h1.656v1.422c.348-.492.804-.864,1.368-1.116.564-.264,1.206-.396,1.926-.396.744,0,1.404.15,1.98.45s1.02.738,1.332,1.314c.36-.552.858-.984,1.494-1.296.648-.312,1.374-.468,2.178-.468Zm15.761,4.914c0,.132-.012.306-.036.522h-7.74c.108.84.474,1.518,1.098,2.034.636.504,1.422.756,2.358.756c1.14,0,2.058-.384,2.754-1.152l.954,1.116c-.432.504-.972.888-1.62,1.152-.636.264-1.35.396-2.142.396-1.008,0-1.902-.204-2.682-.612-.78-.42-1.386-1.002-1.818-1.746-.42-.744-.63-1.584-.63-2.52c0-.924.204-1.758.612-2.502.42-.744.99-1.32,1.71-1.728.732-.42,1.554-.63,2.466-.63s1.722.21,2.43.63c.72.408,1.278.984,1.674,1.728.408.744.612,1.596.612,2.556Zm-4.716-3.456c-.828,0-1.524.252-2.088.756-.552.504-.876,1.164-.972,1.98h6.12c-.096-.804-.426-1.458-.99-1.962-.552-.516-1.242-.774-2.07-.774Zm8.771.234c.3-.552.744-.972,1.332-1.26s1.302-.432,2.142-.432v1.674c-.096-.012-.228-.018-.396-.018-.936,0-1.674.282-2.214.846-.528.552-.792,1.344-.792,2.376v4.752h-1.728v-9.54h1.656v1.602Zm-66.311,32.082c-1.26,0-2.4-.276-3.42-.828-1.008-.564-1.8-1.332-2.376-2.304-.576-.984-.864-2.088-.864-3.312s.288-2.322.864-3.294c.576-.984,1.374-1.752,2.394-2.304c1.02-.564,2.16-.846,3.42-.846.984,0,1.884.168,2.7.504.816.324,1.512.81,2.088,1.458l-1.17,1.134c-.948-.996-2.13-1.494-3.546-1.494-.936,0-1.782.21-2.538.63s-1.35,1.002-1.782,1.746c-.42.732-.63,1.554-.63,2.466s.21,1.74.63,2.484c.432.732,1.026,1.308,1.782,1.728s1.602.63,2.538.63c1.404,0,2.586-.504,3.546-1.512l1.17,1.134c-.576.648-1.278,1.14-2.106,1.476-.816.336-1.716.504-2.7.504Zm15.34-4.86c0,.132-.012.306-.036.522h-7.74c.108.84.474,1.518,1.098,2.034.636.504,1.422.756,2.358.756c1.14,0,2.058-.384,2.754-1.152l.954,1.116c-.432.504-.972.888-1.62,1.152-.636.264-1.35.396-2.142.396-1.008,0-1.902-.204-2.682-.612-.78-.42-1.386-1.002-1.818-1.746-.42-.744-.63-1.584-.63-2.52c0-.924.204-1.758.612-2.502.42-.744.99-1.32,1.71-1.728.732-.42,1.554-.63,2.466-.63s1.722.21,2.43.63c.72.408,1.278.984,1.674,1.728.408.744.612,1.596.612,2.556Zm-4.716-3.456c-.828,0-1.524.252-2.088.756-.552.504-.876,1.164-.972,1.98h6.12c-.096-.804-.426-1.458-.99-1.962-.552-.516-1.242-.774-2.07-.774Zm12.209-1.458c1.212,0,2.172.354,2.88,1.062.72.696,1.08,1.722,1.08,3.078v5.49h-1.728v-5.292c0-.924-.222-1.62-.666-2.088s-1.08-.702-1.908-.702c-.936,0-1.674.276-2.214.828-.54.54-.81,1.32-.81,2.34v4.914h-1.728v-9.54h1.656v1.44c.348-.492.816-.87,1.404-1.134.6-.264,1.278-.396,2.034-.396Zm12.522,9.072c-.252.216-.564.384-.936.504-.372.108-.756.162-1.152.162-.96,0-1.704-.258-2.232-.774s-.792-1.254-.792-2.214v-5.238h-1.62v-1.422h1.62v-2.088h1.728v2.088h2.736v1.422h-2.736v5.166c0,.516.126.912.378,1.188.264.276.636.414,1.116.414.528,0,.978-.15,1.35-.45l.54,1.242Zm3.745-7.38c.3-.552.744-.972,1.332-1.26s1.302-.432,2.142-.432v1.674c-.096-.012-.228-.018-.396-.018-.936,0-1.674.282-2.214.846-.528.552-.792,1.344-.792,2.376v4.752h-1.728v-9.54h1.656v1.602Zm5.604-1.602h1.728v9.54h-1.728v-9.54Zm.864-1.836c-.336,0-.618-.108-.846-.324-.216-.216-.324-.48-.324-.792s.108-.576.324-.792c.228-.228.51-.342.846-.342s.612.108.828.324c.228.204.342.462.342.774c0,.324-.114.6-.342.828-.216.216-.492.324-.828.324Zm8.321,11.484c-.972,0-1.842-.21-2.61-.63-.756-.42-1.35-.996-1.782-1.728-.432-.744-.648-1.584-.648-2.52s.216-1.77.648-2.502c.432-.744,1.026-1.32,1.782-1.728.768-.42,1.638-.63,2.61-.63.864,0,1.632.174,2.304.522.684.348,1.212.852,1.584,1.512l-1.314.846c-.3-.456-.672-.798-1.116-1.026s-.936-.342-1.476-.342c-.624,0-1.188.138-1.692.414-.492.276-.882.672-1.17,1.188-.276.504-.414,1.086-.414,1.746c0,.672.138,1.266.414,1.782.288.504.678.894,1.17,1.17.504.276,1.068.414,1.692.414.54,0,1.032-.114,1.476-.342s.816-.57,1.116-1.026l1.314.828c-.372.66-.9,1.17-1.584,1.53-.672.348-1.44.522-2.304.522Z" fill="#18265a"/><path d="M339,330c1.236,0,2.445.367,3.472,1.053c1.028.687,1.829,1.663,2.302,2.805s.597,2.399.356,3.611c-.241,1.213-.837,2.326-1.711,3.2s-1.987,1.47-3.2,1.711c-1.212.241-2.469.117-3.611-.356s-2.118-1.274-2.805-2.302c-.686-1.027-1.053-2.236-1.053-3.472c0-1.658.658-3.247,1.831-4.419C335.753,330.658,337.342,330,339,330Zm0-2.5c-1.731,0-3.422.513-4.861,1.475-1.439.961-2.561,2.328-3.223,3.927-.662,1.598-.835,3.358-.498,5.055.338,1.697,1.171,3.256,2.395,4.48s2.783,2.057,4.48,2.395c1.697.337,3.457.164,5.055-.498c1.599-.662,2.966-1.784,3.927-3.223.962-1.439,1.475-3.13,1.475-4.861c0-2.321-.922-4.546-2.563-6.187s-3.866-2.563-6.187-2.563Zm12.5,35h-2.5v-6.25c0-1.658-.658-3.247-1.831-4.419-1.172-1.173-2.761-1.831-4.419-1.831h-7.5c-1.658,0-3.247.658-4.419,1.831-1.173,1.172-1.831,2.761-1.831,4.419v6.25h-2.5v-6.25c0-2.321.922-4.546,2.563-6.187s3.866-2.563,6.187-2.563h7.5c2.321,0,4.546.922,6.187,2.563s2.563,3.866,2.563,6.187v6.25Zm3.75-17.275l-3.237-3.237-1.763,1.762l5,5L364,340l-1.763-1.762-6.987,6.987Z" fill="url(#e4ED5R9PUm625-fill)"/></g><g id="e4ED5R9PUm626" transform="translate(.000001 0)"><path d="M420.725,316.282c1.985,0,3.843-.526,6-1.503c2.126-.963,4.611-2.398,7.837-4.261l.047-.027l43.141-24.907.047-.027c3.226-1.863,5.711-3.298,7.608-4.657c1.924-1.379,3.31-2.726,4.302-4.445.993-1.719,1.466-3.592,1.698-5.948.229-2.323.229-5.192.229-8.917v-.054-49.815-.055c0-3.725,0-6.594-.229-8.917-.232-2.356-.705-4.229-1.698-5.948-.992-1.719-2.378-3.065-4.302-4.444-1.897-1.36-4.382-2.794-7.608-4.657l-.047-.027-43.141-24.908-.048-.027c-3.226-1.863-5.71-3.297-7.836-4.26-2.157-.977-4.015-1.504-6-1.504s-3.844.527-6,1.504c-2.126.963-4.611,2.397-7.837,4.26l-.047.027L363.7,187.673l-.048.027c-3.226,1.863-5.71,3.297-7.607,4.657-1.925,1.379-3.31,2.725-4.302,4.444-.993,1.719-1.466,3.592-1.698,5.948-.229,2.323-.229,5.192-.229,8.918v.054v49.815.054c0,3.725,0,6.594.229,8.917.232,2.356.705,4.229,1.698,5.948.992,1.719,2.377,3.066,4.302,4.445c1.897,1.359,4.382,2.794,7.608,4.657l.047.027l43.141,24.907.047.027c3.226,1.863,5.711,3.298,7.837,4.261c2.156.977,4.015,1.503,6,1.503Z" fill="url(#e4ED5R9PUm627-fill)" stroke="url(#e4ED5R9PUm627-stroke)" stroke-width="2"/><path d="M392.641,249.849c1.632,0,2.916.39,3.852,1.17s1.404,1.854,1.404,3.222-.468,2.442-1.404,3.222-2.22,1.17-3.852,1.17h-3.114v3.816h-1.8v-12.6h4.914Zm-.054,7.218c1.14,0,2.01-.24,2.61-.72.6-.492.9-1.194.9-2.106s-.3-1.608-.9-2.088c-.6-.492-1.47-.738-2.61-.738h-3.06v5.652h3.06Zm11.088-4.248c1.32,0,2.328.324,3.024.972.708.648,1.062,1.614,1.062,2.898v5.76h-1.638v-1.26c-.288.444-.702.786-1.242,1.026-.528.228-1.158.342-1.89.342-1.068,0-1.926-.258-2.574-.774-.636-.516-.954-1.194-.954-2.034s.306-1.512.918-2.016c.612-.516,1.584-.774,2.916-.774h2.736v-.342c0-.744-.216-1.314-.648-1.71s-1.068-.594-1.908-.594c-.564,0-1.116.096-1.656.288-.54.18-.996.426-1.368.738l-.72-1.296c.492-.396,1.08-.696,1.764-.9.684-.216,1.41-.324,2.178-.324Zm-.396,8.406c.66,0,1.23-.144,1.71-.432.48-.3.828-.72,1.044-1.26v-1.332h-2.664c-1.464,0-2.196.492-2.196,1.476c0,.48.186.858.558,1.134s.888.414,1.548.414Zm10.416,1.332c-.78,0-1.53-.102-2.25-.306-.72-.216-1.284-.486-1.692-.81l.72-1.368c.42.3.93.54,1.53.72s1.206.27,1.818.27c1.512,0,2.268-.432,2.268-1.296c0-.288-.102-.516-.306-.684s-.462-.288-.774-.36c-.3-.084-.732-.174-1.296-.27-.768-.12-1.398-.258-1.89-.414-.48-.156-.894-.42-1.242-.792s-.522-.894-.522-1.566c0-.864.36-1.554,1.08-2.07.72-.528,1.686-.792,2.898-.792.636,0,1.272.078,1.908.234s1.158.366,1.566.63l-.738,1.368c-.78-.504-1.698-.756-2.754-.756-.732,0-1.29.12-1.674.36s-.576.558-.576.954c0,.312.108.558.324.738s.48.312.792.396c.324.084.774.18,1.35.288.768.132,1.386.276,1.854.432.48.144.888.396,1.224.756s.504.864.504,1.512c0,.864-.372,1.554-1.116,2.07-.732.504-1.734.756-3.006.756Zm9.018,0c-.78,0-1.53-.102-2.25-.306-.72-.216-1.284-.486-1.692-.81l.72-1.368c.42.3.93.54,1.53.72s1.206.27,1.818.27c1.512,0,2.268-.432,2.268-1.296c0-.288-.102-.516-.306-.684s-.462-.288-.774-.36c-.3-.084-.732-.174-1.296-.27-.768-.12-1.398-.258-1.89-.414-.48-.156-.894-.42-1.242-.792s-.522-.894-.522-1.566c0-.864.36-1.554,1.08-2.07.72-.528,1.686-.792,2.898-.792.636,0,1.272.078,1.908.234s1.158.366,1.566.63l-.738,1.368c-.78-.504-1.698-.756-2.754-.756-.732,0-1.29.12-1.674.36s-.576.558-.576.954c0,.312.108.558.324.738s.48.312.792.396c.324.084.774.18,1.35.288.768.132,1.386.276,1.854.432.48.144.888.396,1.224.756s.504.864.504,1.512c0,.864-.372,1.554-1.116,2.07-.732.504-1.734.756-3.006.756Zm6.281-9.648h1.728v9.54h-1.728v-9.54Zm.864-1.836c-.336,0-.618-.108-.846-.324-.216-.216-.324-.48-.324-.792s.108-.576.324-.792c.228-.228.51-.342.846-.342s.612.108.828.324c.228.204.342.462.342.774c0,.324-.114.6-.342.828-.216.216-.492.324-.828.324Zm8.25,11.484c-.948,0-1.8-.21-2.556-.63s-1.35-.996-1.782-1.728c-.42-.744-.63-1.584-.63-2.52s.21-1.77.63-2.502c.432-.744,1.026-1.32,1.782-1.728.756-.42,1.608-.63,2.556-.63s1.794.21,2.538.63c.756.408,1.344.984,1.764,1.728.432.732.648,1.566.648,2.502s-.216,1.776-.648,2.52c-.42.732-1.008,1.308-1.764,1.728-.744.42-1.59.63-2.538.63Zm0-1.512c.612,0,1.158-.138,1.638-.414.492-.288.876-.684,1.152-1.188.276-.516.414-1.104.414-1.764s-.138-1.242-.414-1.746c-.276-.516-.66-.912-1.152-1.188-.48-.276-1.026-.414-1.638-.414s-1.164.138-1.656.414c-.48.276-.864.672-1.152,1.188-.276.504-.414,1.086-.414,1.746s.138,1.248.414,1.764c.288.504.672.9,1.152,1.188.492.276,1.044.414,1.656.414Zm12.434-8.226c1.212,0,2.172.354,2.88,1.062.72.696,1.08,1.722,1.08,3.078v5.49h-1.728v-5.292c0-.924-.222-1.62-.666-2.088s-1.08-.702-1.908-.702c-.936,0-1.674.276-2.214.828-.54.54-.81,1.32-.81,2.34v4.914h-1.728v-9.54h1.656v1.44c.348-.492.816-.87,1.404-1.134.6-.264,1.278-.396,2.034-.396Z" fill="#18265a"/><path d="M421,233c-1.075-.953-2.29-1.945-3.575-3h-.017c-4.525-3.7-9.653-7.887-11.918-12.903-.744-1.597-1.139-3.334-1.157-5.097-.002-1.197.234-2.382.696-3.486s1.14-2.104,1.994-2.943c.854-.838,1.867-1.498,2.979-1.939c1.112-.442,2.301-.657,3.498-.632c1.968.003,3.893.572,5.546,1.638.727.472,1.385,1.042,1.954,1.695.573-.65,1.23-1.22,1.955-1.695c1.653-1.066,3.578-1.635,5.545-1.638c1.196-.025,2.386.19,3.498.632c1.112.441,2.125,1.101,2.979,1.939.854.839,1.532,1.839,1.993,2.943.462,1.104.699,2.289.696,3.486-.017,1.765-.411,3.505-1.156,5.105-2.265,5.017-7.392,9.202-11.917,12.895l-.017.013c-1.286,1.049-2.5,2.04-3.575,3L421,233Zm-7.5-26.667c-1.553-.019-3.05.575-4.167,1.654-.532.523-.954,1.148-1.241,1.837-.286.689-.431,1.429-.426,2.176.019,1.283.31,2.55.854,3.713c1.069,2.165,2.512,4.124,4.261,5.787c1.652,1.667,3.552,3.28,5.195,4.637.455.375.919.753,1.382,1.131l.292.239c.445.363.905.74,1.35,1.11l.021-.02.01-.009h.01l.015-.011h.017l.03-.025.068-.055.012-.01.018-.014h.01l.015-.013l1.107-.908.29-.239c.468-.381.932-.76,1.387-1.135c1.643-1.356,3.545-2.968,5.196-4.643c1.751-1.662,3.193-3.621,4.262-5.785.553-1.173.85-2.453.867-3.75.003-.744-.143-1.482-.429-2.169-.287-.687-.708-1.31-1.24-1.831-1.114-1.084-2.612-1.683-4.166-1.667-.938-.008-1.867.183-2.726.559-.859.377-1.628.931-2.258,1.626l-2.516,2.9-2.517-2.9c-.629-.695-1.399-1.249-2.258-1.626-.859-.376-1.787-.567-2.725-.559Z" fill="url(#e4ED5R9PUm629-fill)"/></g><g id="e4ED5R9PUm630"><path d="M94.7239,316.282c1.9851,0,3.8436-.526,6.0001-1.503c2.126-.963,4.611-2.398,7.837-4.261l.047-.027l43.141-24.907.047-.027c3.226-1.863,5.711-3.298,7.608-4.657c1.924-1.379,3.31-2.726,4.302-4.445.993-1.719,1.466-3.592,1.698-5.948.229-2.323.229-5.192.229-8.917v-.054-49.815-.055c0-3.725,0-6.594-.229-8.917-.232-2.356-.705-4.229-1.698-5.948-.992-1.719-2.378-3.065-4.302-4.444-1.897-1.36-4.381-2.794-7.608-4.657l-.047-.027-43.141-24.908-.048-.027c-3.225-1.863-5.71-3.297-7.836-4.26-2.1565-.977-4.015-1.504-6.0001-1.504-1.985,0-3.8436.527-6,1.504-2.1261.963-4.6108,2.397-7.8371,4.26l-.0469.027-43.1412,24.908-.0472.027c-3.2261,1.863-5.7108,3.297-7.6079,4.657-1.9242,1.379-3.3094,2.725-4.3019,4.444s-1.4659,3.592-1.6981,5.948c-.229,2.323-.229,5.192-.229,8.918v.054v49.815.054c0,3.725,0,6.594.229,8.917.2322,2.356.7056,4.229,1.6981,5.948s2.3777,3.066,4.3019,4.445c1.8972,1.359,4.382,2.794,7.6083,4.657l.0468.027l43.1412,24.907.0468.027c3.2263,1.863,5.7111,3.298,7.8372,4.261c2.1565.977,4.015,1.503,6,1.503Z" fill="url(#e4ED5R9PUm631-fill)" stroke="url(#e4ED5R9PUm631-stroke)" stroke-width="2"/><path d="M57.8246,249.849h1.8v12.6h-1.8v-12.6Zm10.4142,2.97c1.212,0,2.172.354,2.88,1.062.72.696,1.08,1.722,1.08,3.078v5.49h-1.728v-5.292c0-.924-.222-1.62-.666-2.088s-1.08-.702-1.908-.702c-.936,0-1.674.276-2.214.828-.54.54-.81,1.32-.81,2.34v4.914h-1.728v-9.54h1.656v1.44c.348-.492.816-.87,1.404-1.134.6-.264,1.278-.396,2.034-.396Zm12.522,9.072c-.252.216-.564.384-.936.504-.372.108-.756.162-1.152.162-.96,0-1.704-.258-2.232-.774s-.792-1.254-.792-2.214v-5.238h-1.62v-1.422h1.62v-2.088h1.728v2.088h2.736v1.422h-2.736v5.166c0,.516.126.912.378,1.188.264.276.636.414,1.116.414.528,0,.978-.15,1.35-.45l.54,1.242Zm10.3947-4.158c0,.132-.012.306-.036.522h-7.74c.108.84.474,1.518,1.098,2.034.636.504,1.422.756,2.358.756c1.14,0,2.058-.384,2.754-1.152l.954,1.116c-.432.504-.972.888-1.62,1.152-.636.264-1.35.396-2.142.396-1.008,0-1.902-.204-2.682-.612-.78-.42-1.386-1.002-1.818-1.746-.42-.744-.63-1.584-.63-2.52c0-.924.204-1.758.612-2.502.42-.744.99-1.32,1.71-1.728.732-.42,1.554-.63,2.466-.63s1.722.21,2.43.63c.72.408,1.278.984,1.674,1.728.408.744.612,1.596.612,2.556Zm-4.716-3.456c-.828,0-1.524.252-2.088.756-.552.504-.876,1.164-.972,1.98h6.12c-.096-.804-.426-1.458-.99-1.962-.552-.516-1.242-.774-2.07-.774Zm16.2415-1.368v8.244c0,1.668-.414,2.898-1.242,3.69-.828.804-2.064,1.206-3.708,1.206-.9,0-1.758-.126-2.574-.378-.816-.24-1.476-.588-1.98-1.044l.828-1.332c.444.384.99.684,1.638.9.66.228,1.338.342,2.034.342c1.116,0,1.938-.264,2.466-.792.54-.528.81-1.332.81-2.412v-.756c-.408.492-.912.864-1.512,1.116-.588.24-1.23.36-1.926.36-.912,0-1.74-.192-2.484-.576-.732-.396-1.308-.942-1.728-1.638-.42-.708-.63-1.512-.63-2.412s.21-1.698.63-2.394c.42-.708.996-1.254,1.728-1.638.744-.384,1.572-.576,2.484-.576.72,0,1.386.132,1.998.396.624.264,1.134.654,1.53,1.17v-1.476h1.638Zm-4.968,7.632c.624,0,1.182-.132,1.674-.396.504-.264.894-.63,1.17-1.098.288-.48.432-1.02.432-1.62c0-.924-.306-1.668-.918-2.232-.612-.576-1.398-.864-2.358-.864-.972,0-1.764.288-2.376.864-.612.564-.918,1.308-.918,2.232c0,.6.138,1.14.414,1.62.288.468.678.834,1.17,1.098.504.264,1.074.396,1.71.396Zm9.926-6.03c.3-.552.744-.972,1.332-1.26s1.302-.432,2.142-.432v1.674c-.096-.012-.228-.018-.396-.018-.936,0-1.674.282-2.214.846-.528.552-.792,1.344-.792,2.376v4.752h-1.728v-9.54h1.656v1.602Zm5.603-1.602h1.728v9.54h-1.728v-9.54Zm.864-1.836c-.336,0-.618-.108-.846-.324-.216-.216-.324-.48-.324-.792s.108-.576.324-.792c.228-.228.51-.342.846-.342s.612.108.828.324c.228.204.342.462.342.774c0,.324-.114.6-.342.828-.216.216-.492.324-.828.324Zm9.528,10.818c-.252.216-.564.384-.936.504-.372.108-.756.162-1.152.162-.96,0-1.704-.258-2.232-.774s-.792-1.254-.792-2.214v-5.238h-1.62v-1.422h1.62v-2.088h1.728v2.088h2.736v1.422h-2.736v5.166c0,.516.126.912.378,1.188.264.276.636.414,1.116.414.528,0,.978-.15,1.35-.45l.54,1.242Zm10.355-8.982l-4.626,10.494c-.408.972-.888,1.656-1.44,2.052-.54.396-1.194.594-1.962.594-.468,0-.924-.078-1.368-.234-.432-.144-.792-.36-1.08-.648l.738-1.296c.492.468,1.062.702,1.71.702.42,0,.768-.114,1.044-.342.288-.216.546-.594.774-1.134l.306-.666-4.212-9.522h1.8l3.33,7.632l3.294-7.632h1.692Z" fill="#18265a"/><g clip-path="url(#e4ED5R9PUm637)"><g><path d="M107.033,209.633c-.836-.839-1.829-1.505-2.923-1.959s-2.267-.688-3.452-.688c-1.184,0-2.3569.234-3.4509.688s-2.0875,1.12-2.9236,1.959l-1.2834,1.3-1.2833-1.3c-.8361-.839-1.8297-1.505-2.9236-1.959s-2.2669-.688-3.4514-.688-2.3574.234-3.4514.688-2.0875,1.12-2.9236,1.959c-3.5333,3.533-3.75,9.5.7,14.033L93.0001,237l13.3329-13.334c4.45-4.533,4.234-10.5.7-14.033Z" fill="none" stroke="url(#e4ED5R9PUm635-stroke)" stroke-width="2.5" stroke-linecap="round" stroke-linejoin="round"/><path d="M93.0002,210.933l-5.2167,5.233c-.6595.665-1.0296,1.564-1.0296,2.5c0,.937.3701,1.836,1.0296,2.5v0c.6649.66,1.5635,1.03,2.5,1.03s1.8351-.37,2.5-1.03l3.7667-3.683c.9361-.926,2.1998-1.446,3.5168-1.446s2.58.52,3.516,1.446l4,4M103,227l-3.3332-3.334M98.0002,232l-3.3334-3.334" fill="none" stroke="url(#e4ED5R9PUm636-stroke)" stroke-width="2.5" stroke-linecap="round" stroke-linejoin="round"/></g><clipPath id="e4ED5R9PUm637"><rect width="40" height="40" rx="0" ry="0" transform="translate(73 198)" fill="#fff"/></clipPath></g></g><rect width="72" height="94" rx="0" ry="0" transform="translate(223 189)" fill="none"/>
<script><![CDATA[
(function(s,i,u,o,c,w,d,t,n,x,e,p,a,b){(a=document.getElementById(i.root)).svgatorPlayer={ready:(function(a){b=[];return function(c){return c?(b.push(c),a.svgatorPlayer):b}})(a)};w[o]=w[o]||{};w[o][s]=w[o][s]||[];w[o][s].push(i);e=d.createElementNS(n,t);e.async=true;e.setAttributeNS(x,'href',[u,s,'.','j','s','?','v','=',c].join(''));e.setAttributeNS(null,'src',[u,s,'.','j','s','?','v','=',c].join(''));p=d.getElementsByTagName(t)[0];p.parentNode.insertBefore(e,p);})('91c80d77',{"root":"e4ED5R9PUm61","version":"2022-05-04","animations":[{"elements":{"e4ED5R9PUm62":{"transform":{"data":{"t":{"x":-175.723999,"y":-98.588202}},"keys":{"o":[{"t":0,"v":{"x":175.723999,"y":98.588202,"type":"corner"}},{"t":1000,"v":{"x":171.723999,"y":94.588202,"type":"corner"}},{"t":2000,"v":{"x":175.723999,"y":98.588202,"type":"corner"}}]}}},"e4ED5R9PUm610":{"transform":{"data":{"t":{"x":-338.723999,"y":-97.724302}},"keys":{"o":[{"t":0,"v":{"x":338.723999,"y":97.724303,"type":"corner"}},{"t":1000,"v":{"x":342.723999,"y":93.724303,"type":"corner"}},{"t":2000,"v":{"x":338.723999,"y":97.724303,"type":"corner"}}]}}},"e4ED5R9PUm614":{"transform":{"data":{"t":{"x":-176.275497,"y":-377.139495}},"keys":{"o":[{"t":0,"v":{"x":176.275498,"y":377.139496,"type":"corner"}},{"t":1000,"v":{"x":172.275498,"y":381.139496,"type":"corner"}},{"t":2000,"v":{"x":176.275498,"y":377.139496,"type":"corner"}}]}}},"e4ED5R9PUm622":{"transform":{"data":{"t":{"x":-339.466003,"y":-377.139495}},"keys":{"o":[{"t":0,"v":{"x":339.466004,"y":377.139496,"type":"corner"}},{"t":1000,"v":{"x":343.466004,"y":381.139496,"type":"corner"}},{"t":2000,"v":{"x":339.466004,"y":377.139496,"type":"corner"}}]}}},"e4ED5R9PUm626":{"transform":{"data":{"t":{"x":-420.725006,"y":-236.628006}},"keys":{"o":[{"t":0,"v":{"x":420.725007,"y":236.628006,"type":"corner"}},{"t":1000,"v":{"x":424.725007,"y":236.628006,"type":"corner"}},{"t":2000,"v":{"x":420.725007,"y":236.628006,"type":"corner"}}]}}},"e4ED5R9PUm630":{"transform":{"data":{"t":{"x":-94.723795,"y":-236.628006}},"keys":{"o":[{"t":0,"v":{"x":94.723795,"y":236.628006,"type":"corner"}},{"t":1000,"v":{"x":90.723795,"y":236.628006,"type":"corner"}},{"t":2000,"v":{"x":94.723795,"y":236.628006,"type":"corner"}}]}}}},"s":"MDXA1ZGEyNDk4YSjljOTk4ODliMWDkwOTY5NTQC5NjFWNTk1NzJU3NTc1MzQ5OIGI5MDk5OGM4YYTliSzkwOTYA5NTQ5NjE1ODEUzTDQ5OTA5YQjhjOTk4ODliYOTA5Njk1OWEL0OTYxNTc1M0Qs0OThkOTA5MS005MzQ5NjE1JODUzNDk4ODkBzOWI4Y085OTXk1ODg5YjhjNVDk2MThkODg5SMzlhOGM1MzQF5OWFLOTc4YzLhjOGI0OTYxNXTg1MzQ5RjhkLOTc5YTQ5NjFMYNTg1NzU3YTGQ/"}],"options":"MDTAxODhhMzFLOSDI4MzcwTjgxXODMzMTQ5MzEE3ZjgxN2U3NjXgxNzA3YzdjNWzA4Mzc4NzIzBMThj"},'https://cdn.svgator.com/ply/','__SVGATOR_PLAYER__','2022-05-04',window,document,'script','http://www.w3.org/2000/svg','http://www.w3.org/1999/xlink')
]]>


document.getElementById("e4ED5R9PUm61").svgatorPlayer.play();
document.getElementById("e4ED5R9PUm61").svgatorPlayer.set('iterations', 0);

</script>
</svg>
