
<svg id="illustration-qulaity" xmlns="http://www.w3.org/2000/svg" xmlns:xlink="http://www.w3.org/1999/xlink" viewBox="0 0 598 399" shape-rendering="geometricPrecision" text-rendering="geometricPrecision" style="background-color:transparent"><defs><linearGradient id="illustration-qulaity-s-path1-fill" x1="295.9157" y1="114.167" x2="295.9157" y2="355.76" spreadMethod="pad" gradientUnits="userSpaceOnUse" gradientTransform="translate(0 0)"><stop id="illustration-qulaity-s-path1-fill-0" offset="0%" stop-color="#fbe0f4"/><stop id="illustration-qulaity-s-path1-fill-1" offset="100%" stop-color="#fbf1f8"/></linearGradient><linearGradient id="illustration-qulaity-s-path24-fill" x1="543.3584" y1="169.104" x2="543.3584" y2="195.601" spreadMethod="pad" gradientUnits="userSpaceOnUse" gradientTransform="translate(0 0)"><stop id="illustration-qulaity-s-path24-fill-0" offset="0%" stop-color="#fbe0f4"/><stop id="illustration-qulaity-s-path24-fill-1" offset="100%" stop-color="#fbf1f8"/></linearGradient><linearGradient id="illustration-qulaity-s-path25-fill" x1="42.9165" y1="268.584" x2="42.9165" y2="285.92" spreadMethod="pad" gradientUnits="userSpaceOnUse" gradientTransform="translate(0 0)"><stop id="illustration-qulaity-s-path25-fill-0" offset="0%" stop-color="#fbe0f4"/><stop id="illustration-qulaity-s-path25-fill-1" offset="100%" stop-color="#fbf1f8"/></linearGradient><linearGradient id="illustration-qulaity-s-path26-fill" x1="248.5049" y1="53.1846" x2="248.5049" y2="74.1347" spreadMethod="pad" gradientUnits="userSpaceOnUse" gradientTransform="translate(0 0)"><stop id="illustration-qulaity-s-path26-fill-0" offset="0%" stop-color="#fbe0f4"/><stop id="illustration-qulaity-s-path26-fill-1" offset="100%" stop-color="#fbf1f8"/></linearGradient><radialGradient id="illustration-qulaity-s-path85-fill" cx="0" cy="0" r="1" spreadMethod="pad" gradientUnits="userSpaceOnUse" gradientTransform="matrix(50.7029 0 0 -30.4821 346.588866 344.6527)"><stop id="illustration-qulaity-s-path85-fill-0" offset="13.54%" stop-color="#b658bb"/><stop id="illustration-qulaity-s-path85-fill-1" offset="100%" stop-color="#1341a9"/></radialGradient><linearGradient id="illustration-qulaity-s-path111-fill" x1="288.9261" y1="174.7292" x2="288.9261" y2="349.311" spreadMethod="pad" gradientUnits="userSpaceOnUse" gradientTransform="translate(0 0)"><stop id="illustration-qulaity-s-path111-fill-0" offset="0%" stop-color="#f1f8fe"/><stop id="illustration-qulaity-s-path111-fill-1" offset="100%" stop-color="#fff"/></linearGradient><radialGradient id="illustration-qulaity-s-path117-fill" cx="0" cy="0" r="1" spreadMethod="pad" gradientUnits="userSpaceOnUse" gradientTransform="matrix(20.797 0 0 -60.3503 344.598632 178.52683)"><stop id="illustration-qulaity-s-path117-fill-0" offset="13.54%" stop-color="#b658bb"/><stop id="illustration-qulaity-s-path117-fill-1" offset="100%" stop-color="#1341a9"/></radialGradient></defs><g id="illustration-qulaity-u-layer_164"><path id="illustration-qulaity-s-path1" d="M33.1,183.3c2.6-25,15-50,36.5-67.9C103.1,87.6,153.7,80.6,198.1,87c18.6,2.7,37,7.5,56.1,6c27.7-2.2,52.2-17.2,77.5-28.2c34.4-15,73.8-23,110.4-16.5c41.5,7.4,75.5,35.3,79.6,72.4c1.8,16.8-16.8,46.4-10.9,62.4c6,16.2,49.7,65.6,48.6,103.3-1,37.5-11.2,49.1-25.4,68.2h-11.3-428.2-24.7c-8.9-19.3-15.8-34.8-5.4-60.1c8.3-20.3-14.2-36.9-22.9-55.8-7.8-17-10.3-37.2-8.4-55.4Z" fill="url(#illustration-qulaity-s-path1-fill)"/></g><g id="illustration-qulaity-s-g1"><g id="illustration-qulaity-u-layer_163"><path id="illustration-qulaity-s-path2" d="M483.4,214.6c-1.9-.2-3.6-1.2-4.7-2.7-1.2-1.5-1.7-3.3-1.4-5.3.2-1.9,1.2-3.6,2.7-4.7c1.5-1.2,3.3-1.7,5.3-1.4c3.9.5,6.7,4.1,6.1,7.9-.5,3.6-3.5,6.2-7,6.2-.4.1-.7,0-1,0Zm-2.5-11.4c-1.2.9-1.9,2.2-2.1,3.7-.2,1.4.2,2.9,1.1,4.1s2.2,1.9,3.7,2.1c3,.4,5.7-1.8,6.1-4.8s-1.8-5.7-4.8-6.1c-.2,0-.5-.1-.7-.1-1.2-.1-2.4.3-3.3,1.1Z" fill="#fff"/></g><g id="illustration-qulaity-u-layer_162"><path id="illustration-qulaity-s-path3" d="M499.7,194.7L489,203.4l1,1.2l10.7-8.7-1-1.2Z" fill="#fff"/></g><g id="illustration-qulaity-u-layer_161"><path id="illustration-qulaity-s-path4" d="M501.1,197c-.8-.1-1.5-.5-2-1.1s-.7-1.4-.6-2.2.5-1.5,1.1-2s1.4-.7,2.2-.6c1.7.2,2.8,1.7,2.6,3.3-.1.8-.5,1.5-1.1,2-.6.4-1.2.6-1.8.6-.2.1-.3,0-.4,0Zm-.5-4c-.3.2-.5.6-.6,1s.1.7.3,1s.6.5,1,.6.7-.1,1-.3.5-.6.6-1c.1-.8-.5-1.5-1.2-1.6-.1,0-.1,0-.2,0-.4-.1-.7,0-.9.3Z" fill="#fff"/></g><g id="illustration-qulaity-u-layer_160"><path id="illustration-qulaity-s-path5" d="M478.5,210.5l-9.1,5.1.8,1.4l9.1-5.1-.8-1.4Z" fill="#fff"/></g><g id="illustration-qulaity-u-layer_159"><path id="illustration-qulaity-s-path6" d="M468.3,219c-.6-.2-1.1-.5-1.4-1s-.5-1.2-.3-1.8c.3-1.3,1.5-2.1,2.8-1.8.6.2,1.1.5,1.5,1c.3.6.5,1.2.3,1.8-.2,1.1-1.2,1.8-2.3,1.8-.3.1-.4.1-.6,0Zm.1-2.8c-.2.1-.3.2-.3.5-.1.2,0,.4.1.6s.2.3.5.3c.4.1.8-.2.9-.6.1-.2,0-.4-.1-.6s-.2-.3-.5-.3c-.1,0-.1,0-.2,0-.2-.1-.3,0-.4.1Z" fill="#fff"/></g><g id="illustration-qulaity-u-layer_158"><path id="illustration-qulaity-s-path7" d="M489.1,211.6l-1.1,1.2l6.2,5.7l1.1-1.2-6.2-5.7Z" fill="#fff"/></g><g id="illustration-qulaity-u-layer_157"><path id="illustration-qulaity-s-path8" d="M493.2,219.1c-.2-1.4.9-2.6,2.2-2.8c1.4-.2,2.6.9,2.8,2.2.2,1.4-.9,2.6-2.2,2.8-.1,0-.2,0-.2,0-1.4.1-2.5-.9-2.6-2.2Zm2.4-1.2c-.5.1-.9.5-.8,1s.5.9,1,.8.9-.5.8-1-.5-.8-.9-.8c-.1,0-.1,0-.1,0Z" fill="#fff"/></g><g id="illustration-qulaity-u-layer_156"><path id="illustration-qulaity-s-path9" d="M478.7,190.9l-1.5.5l3.9,10.6l1.5-.5-3.9-10.6Z" fill="#fff"/></g><g id="illustration-qulaity-u-layer_155"><path id="illustration-qulaity-s-path10" d="M476.6,192.3c-.6-.2-1-.7-1.1-1.3-.2-.6-.2-1.1.1-1.7.5-1.1,1.8-1.6,3-1.1c1.1.5,1.6,1.8,1.1,2.9-.4.8-1.2,1.3-2,1.3-.6,0-.9,0-1.1-.1Zm.3-2.4c-.1.2-.1.3,0,.5s.2.2.3.3c.3.2.6,0,.8-.3s0-.6-.3-.8c-.1,0-.2-.1-.2-.1-.3.1-.5.3-.6.4Z" fill="#fff"/></g><g id="illustration-qulaity-u-layer_154"><path id="illustration-qulaity-s-path11" d="M468.6,199.4l-.7,1.4l9.9,5.2.7-1.4-9.9-5.2Z" fill="#fff"/></g><g id="illustration-qulaity-u-layer_153"><path id="illustration-qulaity-s-path12" d="M466.2,201.7c-.6-.2-.9-.7-1.1-1.3s-.2-1.2.2-1.7c.2-.6.7-.9,1.3-1.1s1.2-.2,1.7.2c.6.2.9.7,1.1,1.3s.2,1.2-.2,1.7c-.2.6-.7.9-1.3,1.1-.2.1-.4.1-.6.1-.4,0-.8-.1-1.1-.3Zm.8-2.5c-.3.1-.5.5-.4.8.1.2.2.3.3.4.2.1.3.1.5.1.2-.1.3-.2.4-.3.1-.2.1-.3.1-.5-.1-.2-.2-.3-.3-.4s-.2-.1-.3-.1c-.1-.1-.2,0-.3,0Z" fill="#fff"/></g></g><g id="illustration-qulaity-u-layer_152"><path id="illustration-qulaity-s-path13" d="M294.9,186.7c-.2-1.5.6-3,1.9-3.7.5-.2,1-.4,1.4-.5c1-.1,2,.2,2.8.8s1.3,1.5,1.4,2.6c.2,2.1-1.3,4-3.3,4.2-.2,0-.3,0-.4,0-2,0-3.7-1.5-3.8-3.4Zm3.5-2.7c-.3,0-.6.2-.9.2-.8.5-1.2,1.3-1.1,2.2.2,1.2,1.3,2.2,2.5,2c.6-.1,1.1-.4,1.5-.8.4-.5.6-1,.5-1.7-.1-.6-.4-1.1-.8-1.5-.4-.3-.9-.5-1.4-.5-.2.1-.3.1-.3.1Z" fill="#fff"/></g><g id="illustration-qulaity-u-layer_151"><path id="illustration-qulaity-s-path14" d="M279.6,162.1c-.2-1.5.6-3,1.9-3.7.5-.2,1-.4,1.4-.5c1-.1,2,.2,2.8.8s1.3,1.5,1.4,2.6c.2,2.1-1.3,4-3.3,4.2-.2,0-.3,0-.4,0-1.9,0-3.5-1.4-3.8-3.4Zm3.6-2.6c-.3,0-.6.2-.9.2-.8.5-1.2,1.3-1.1,2.2.2,1.2,1.3,2.2,2.5,2s2.2-1.3,2-2.5c-.1-.6-.4-1.1-.8-1.5-.4-.3-.9-.5-1.4-.5-.1,0-.2,0-.3.1Z" fill="#fff"/></g><g id="illustration-qulaity-u-layer_150"><path id="illustration-qulaity-s-path15" d="M270.3,188.7c-.2-1.5.6-3,1.9-3.7.5-.2,1-.4,1.4-.5c2.1-.2,4,1.3,4.2,3.3.2,2.1-1.3,4-3.3,4.2-.2,0-.3,0-.4,0-1.9.1-3.6-1.4-3.8-3.3Zm3.6-2.7c-.3,0-.6.2-.9.2-.8.5-1.2,1.3-1.1,2.2.2,1.2,1.3,2.2,2.5,2s2.2-1.3,2-2.5c-.2-1.1-1.1-2-2.2-2-.2.1-.2.1-.3.1Z" fill="#fff"/></g><g id="illustration-qulaity-u-layer_149"><path id="illustration-qulaity-s-path16" d="M254.7,152.1c-.8-.6-1.3-1.5-1.4-2.6-.2-1.5.6-3,1.9-3.7.5-.2,1-.4,1.4-.5c1-.1,2,.2,2.8.8s1.3,1.5,1.4,2.6c.2,2.1-1.3,4-3.3,4.2-.2,0-.3,0-.4,0-.8-.1-1.6-.3-2.4-.8Zm2.2-5.3c-.3,0-.6.2-.9.2-.8.5-1.2,1.3-1.1,2.2.1.6.4,1.1.8,1.5.5.4,1,.6,1.7.5c1.2-.2,2.2-1.3,2-2.5-.1-.6-.4-1.1-.8-1.5-.4-.3-.9-.5-1.4-.5-.1.1-.2.1-.3.1Z" fill="#fff"/></g><g id="illustration-qulaity-u-layer_148"><path id="illustration-qulaity-s-path17" d="M274.3,185.1c.6,0,1.1-.3,1.4-.9l8.5-17.9l12.3,18.5l1.4-.9-12.4-18.7c-.3-.5-.8-.7-1.4-.6-.6,0-1,.4-1.2.9l-8.5,17.9L259.1,151l-1.4.6l15.2,32.5c.3.6.8,1,1.4,1Z" fill="#fff"/></g><g id="illustration-qulaity-s-g2" transform="translate(0 0.000001)"><g id="illustration-qulaity-u-layer_147"><path id="illustration-qulaity-s-path18" d="M120.6,147.5c-5-2.6-2.4-15.5,3-26.6c4.6-9.6,10.9-17.1,15.5-18.7c1.4-.5,2.5-.4,3.5.1c5,2.6,2.4,15.5-3,26.6-4.6,9.6-10.9,17.1-15.5,18.7-.6.2-1.2.3-1.8.3s-1.2-.1-1.7-.4Zm19-43.7c-4.1,1.4-10.1,8.7-14.6,17.9-6.1,12.4-6.8,22.9-3.7,24.5.6.3,1.4.3,2.2,0c4.1-1.4,10.1-8.7,14.6-17.9c6.1-12.4,6.8-22.9,3.7-24.5-.3-.2-.6-.2-1-.2s-.8.1-1.2.2Z" fill="#fff"/></g><g id="illustration-qulaity-u-layer_146"><path id="illustration-qulaity-s-path19" d="M127.5,133.4c-12-6.1-19.5-14.5-17.2-19.2.6-1.1,1.6-1.9,3-2.5c4.7-1.6,13.5.3,22.4,4.8c12,6.1,19.5,14.5,17.2,19.2-.6,1.1-1.6,1.9-3,2.5-1.1.4-2.4.6-3.9.6-5-.1-11.7-2-18.5-5.4Zm-13.7-20.2c-1,.3-1.8.9-2.2,1.6-1.7,3.3,4.6,11.1,16.5,17.1c8.4,4.2,16.9,6.1,21.1,4.7c1-.3,1.8-.9,2.2-1.6c1.7-3.3-4.6-11.1-16.5-17.1-6.5-3.3-13.2-5.2-17.8-5.2-1.2,0-2.4.2-3.3.5Z" fill="#fff"/></g><g id="illustration-qulaity-u-layer_145"><path id="illustration-qulaity-s-path20" d="M111.2,135.9c-1.4-.6-2.2-1.6-2.6-2.7-1.5-4.9,7.3-12.4,20.1-17.1c9.6-3.5,18.7-4.4,23-2.2c1.4.6,2.2,1.6,2.6,2.7c1.5,4.9-7.3,12.4-20.1,17.1-6.1,2.2-12,3.4-16.6,3.4-2.5,0-4.8-.4-6.4-1.2Zm18.1-18.3c-12.8,4.7-20.2,11.6-19.1,15.1.2.7.8,1.3,1.8,1.8c3.9,1.9,12.7,1,21.8-2.3c12.8-4.7,20.2-11.6,19.1-15.2-.2-.7-.8-1.3-1.8-1.8-1.4-.7-3.3-1-5.7-1-4.4.1-10.1,1.3-16.1,3.4Z" fill="#fff"/></g><g id="illustration-qulaity-u-layer_144"><path id="illustration-qulaity-s-path21" d="M130.7,128.3c-2.1-.3-3.5-2.3-3.1-4.4.3-2.1,2.3-3.5,4.4-3.1c2.1.3,3.5,2.3,3.1,4.4-.3,1.8-1.9,3.2-3.7,3.2-.3-.1-.5-.1-.7-.1Zm-1.5-4.2c-.2,1.2.6,2.3,1.8,2.6c1.2.2,2.3-.6,2.6-1.8.2-1.2-.6-2.3-1.8-2.6-.2,0-.2,0-.4,0-1.1,0-2.1.7-2.2,1.8Z" fill="#fff"/></g></g><g id="illustration-qulaity-u-layer_143"><path id="illustration-qulaity-s-path22" d="M223,77.8c0,1.3,1,2.3,2.3,2.3s2.3-1,2.3-2.3-1-2.3-2.3-2.3c-1.2,0-2.3,1-2.3,2.3Z" fill="#9f9fdd"/></g><g id="illustration-qulaity-u-layer_142"><path id="illustration-qulaity-s-path23" d="M279,133.4c.7,0,1.2-.5,1.2-1.2s-.5-1.2-1.2-1.2-1.2.5-1.2,1.2.5,1.2,1.2,1.2Z" fill="#9f9fdd"/></g><g id="illustration-qulaity-u-layer_141"><path id="illustration-qulaity-s-path24" d="M560.4,185.8c4.1-7.9,1-17.5-7.2-21.6-8.1-4.1-23.7-3.7-27.8,4.2s8.4,14.6,13.4,21.9c7.1,10.2,17.4,3.4,21.6-4.5Z" fill="url(#illustration-qulaity-s-path24-fill)"/></g><g id="illustration-qulaity-u-layer_140"><path id="illustration-qulaity-s-path25" d="M36.9,266.1c-4.4,3.2-5.3,9.2-2,13.6c3.3,4.3,11.8,8.1,16.2,4.9s-.5-10-1.3-15.4c-1-7.4-8.5-6.2-12.9-3.1Z" fill="url(#illustration-qulaity-s-path25-fill)"/></g><g id="illustration-qulaity-u-layer_139"><path id="illustration-qulaity-s-path26" d="M261.4,53.6c-4.3-6.4-12.9-8.2-19.2-4.1-6.4,4.1-12.4,15.3-8.1,21.7s14.4.3,22.1-.2c10.5-.8,9.5-11.1,5.2-17.4Z" fill="url(#illustration-qulaity-s-path26-fill)"/></g><g id="illustration-qulaity-u-layer_138"><path id="illustration-qulaity-s-path27" d="M560.7,148.7c0,1.3,1,2.3,2.3,2.3s2.3-1,2.3-2.3-1-2.3-2.3-2.3-2.3,1-2.3,2.3Z" fill="#1341a9"/></g><g id="illustration-qulaity-u-layer_137"><path id="illustration-qulaity-s-path28" d="M368.1,109.3c0,1.3,1,2.3,2.3,2.3s2.3-1,2.3-2.3-1-2.3-2.3-2.3-2.3,1-2.3,2.3Z" fill="#7aa0eb"/></g><g id="illustration-qulaity-u-layer_136"><path id="illustration-qulaity-s-path29" d="M156.9,157.2c0,1.3,1,2.3,2.3,2.3s2.3-1,2.3-2.3-1-2.3-2.3-2.3c-1.2-.1-2.3,1-2.3,2.3Z" fill="#8296bc"/></g><g id="illustration-qulaity-u-layer_135"><path id="illustration-qulaity-s-path30" d="M465.1,73.7c0,1.3,1,2.3,2.3,2.3s2.3-1,2.3-2.3-1-2.3-2.3-2.3-2.3,1-2.3,2.3Z" fill="#7aa0eb"/></g><g id="illustration-qulaity-u-layer_134"><path id="illustration-qulaity-s-path31" d="M125.8,49.2c0,1.3,1,2.3,2.3,2.3s2.3-1,2.3-2.3-1-2.3-2.3-2.3c-1.2,0-2.3,1-2.3,2.3Z" fill="#1341a9"/></g><g id="illustration-qulaity-u-layer_133"><path id="illustration-qulaity-s-path32" d="M485.3,152.5c.7,0,1.2-.5,1.2-1.2s-.5-1.2-1.2-1.2-1.2.5-1.2,1.2.6,1.2,1.2,1.2Z" fill="#1341a9"/></g><g id="illustration-qulaity-u-layer_132"><path id="illustration-qulaity-s-path33" d="M548.2,233.8c0,1.3,1,2.3,2.3,2.3s2.3-1,2.3-2.3-1-2.3-2.3-2.3c-1.3-.1-2.3.9-2.3,2.3Z" fill="#7aa0eb"/></g><g id="illustration-qulaity-u-layer_131"><path id="illustration-qulaity-s-path34" d="M35.8,233.1c0,1.3,1,2.3,2.3,2.3s2.3-1,2.3-2.3-1-2.3-2.3-2.3-2.3,1.1-2.3,2.3Z" fill="#8296bc"/></g><g id="illustration-qulaity-u-layer_130"><path id="illustration-qulaity-s-path35" d="M89.5,113c0,1.3,1,2.3,2.3,2.3s2.3-1,2.3-2.3-1-2.3-2.3-2.3c-1.2,0-2.3,1-2.3,2.3Z" fill="#1341a9"/></g><g id="illustration-qulaity-u-layer_129"><path id="illustration-qulaity-s-path36" d="M91.9,246.1c0,.6.6,1.2,1.2,1.2s1.2-.6,1.2-1.2-.6-1.2-1.2-1.2c-.7,0-1.2.5-1.2,1.2Z" fill="#1341a9"/></g><g id="illustration-qulaity-u-layer_128"><path id="illustration-qulaity-s-path37" d="M562.6,317.2c.7,0,1.2-.5,1.2-1.2s-.5-1.2-1.2-1.2-1.2.5-1.2,1.2c0,.6.5,1.2,1.2,1.2Z" fill="#1341a9"/></g><g id="illustration-qulaity-u-layer_127"><path id="illustration-qulaity-s-path38" d="M393.6,75c.7,0,1.2-.5,1.2-1.2s-.5-1.2-1.2-1.2-1.2.5-1.2,1.2.5,1.2,1.2,1.2Z" opacity="0.47" fill="#fff"/></g><g id="illustration-qulaity-u-layer_126"><path id="illustration-qulaity-s-path39" d="M348.7,69c0,1.3,1,2.3,2.3,2.3s2.3-1,2.3-2.3-1-2.3-2.3-2.3c-1.3-.1-2.3,1-2.3,2.3Z" fill="#fff"/></g><g id="illustration-qulaity-u-layer_125"><path id="illustration-qulaity-s-path40" d="M68.3,78.1c0,1,.8,1.8,1.8,1.8s1.8-.8,1.8-1.8-.8-1.8-1.8-1.8-1.8.8-1.8,1.8Z" fill="#fff"/></g><g id="illustration-qulaity-u-layer_124"><path id="illustration-qulaity-s-path41" d="M253.6,111.1c0,1.3,1,2.3,2.3,2.3s2.3-1,2.3-2.3-1-2.3-2.3-2.3-2.3,1.1-2.3,2.3Z" fill="#fff"/></g><g id="illustration-qulaity-u-layer_123"><path id="illustration-qulaity-s-path42" d="M130.7,180.4c0,.8.6,1.4,1.4,1.4s1.4-.6,1.4-1.4-.6-1.4-1.4-1.4c-.8-.1-1.4.6-1.4,1.4Z" fill="#fff"/></g><g id="illustration-qulaity-u-layer_122"><path id="illustration-qulaity-s-path43" d="M111.1,246.5c.8,0,1.4-.6,1.4-1.4s-.6-1.4-1.4-1.4-1.4.6-1.4,1.4c-.1.8.6,1.4,1.4,1.4Z" fill="#fff"/></g><g id="illustration-qulaity-u-layer_121"><path id="illustration-qulaity-s-path44" d="M459.3,264.5c0,1.3,1,2.3,2.3,2.3s2.3-1,2.3-2.3-1-2.3-2.3-2.3-2.3,1-2.3,2.3Z" fill="#fff"/></g><g id="illustration-qulaity-u-layer_120"><path id="illustration-qulaity-s-path45" d="M307.1,225.2c0,1.3,1,2.3,2.3,2.3s2.3-1,2.3-2.3-1-2.3-2.3-2.3c-1.2,0-2.3,1.1-2.3,2.3Z" fill="#fff"/></g><g id="illustration-qulaity-u-layer_119"><path id="illustration-qulaity-s-path46" d="M555.9,62.4c0,1.3,1,2.3,2.3,2.3s2.3-1,2.3-2.3-1-2.3-2.3-2.3c-1.3-.1-2.3,1-2.3,2.3Z" fill="#fff"/></g><g id="illustration-qulaity-u-layer_118"><path id="illustration-qulaity-s-path47" d="M444.8,113.5c1.1,0,2-.9,2-2s-.9-2-2-2-2,.9-2,2s.9,2,2,2Z" fill="#fff"/></g><g id="illustration-qulaity-s-g3"><g id="illustration-qulaity-u-layer_117"><path id="illustration-qulaity-s-path48" d="M383,84h66c2.8,0,5,2.2,5,5v47c0,2.8-2.2,5-5,5h-66c-2.8,0-5-2.2-5-5v-47c0-2.8,2.2-5,5-5Z" fill="#fff"/></g><g id="illustration-qulaity-s-g4"><g id="illustration-qulaity-u-layer_114"><path id="illustration-qulaity-s-path49" d="M419.7,103h24.4c.2,0,.4-.2.4-.4s-.2-.4-.4-.4h-24.4c-.2,0-.4.2-.4.4c0,.3.2.4.4.4Z" fill="#1341a9"/></g><g id="illustration-qulaity-u-layer_113"><path id="illustration-qulaity-s-path50" d="M387.5,103h24.4c.2,0,.4-.2.4-.4s-.2-.4-.4-.4h-24.4c-.2,0-.4.2-.4.4c0,.3.2.4.4.4Z" fill="#1341a9"/></g><g id="illustration-qulaity-u-layer_112"><path id="illustration-qulaity-s-path51" d="M419.7,120.6h24.4c.2,0,.4-.2.4-.4s-.2-.4-.4-.4h-24.4c-.2,0-.4.2-.4.4s.2.4.4.4Z" fill="#1341a9"/></g><g id="illustration-qulaity-u-layer_111"><path id="illustration-qulaity-s-path52" d="M387.5,120.6h24.4c.2,0,.4-.2.4-.4s-.2-.4-.4-.4h-24.4c-.2,0-.4.2-.4.4s.2.4.4.4Z" fill="#1341a9"/></g><g id="illustration-qulaity-u-layer_110"><path id="illustration-qulaity-s-path53" d="M405.4,112.2h38.7c.2,0,.4-.2.4-.4s-.2-.4-.4-.4h-38.7c-.2,0-.4.2-.4.4s.2.4.4.4Z" fill="#1341a9"/></g><g id="illustration-qulaity-u-layer_109"><path id="illustration-qulaity-s-path54" d="M387.5,112.2h13.5c.2,0,.4-.2.4-.4s-.2-.4-.4-.4h-13.5c-.2,0-.4.2-.4.4s.2.4.4.4Z" fill="#1341a9"/></g><g id="illustration-qulaity-u-layer_108"><path id="illustration-qulaity-s-path55" d="M387.4,129.7h13.5c.2,0,.4-.2.4-.4s-.2-.4-.4-.4h-13.5c-.2,0-.4.2-.4.4s.2.4.4.4Z" fill="#1341a9"/></g></g></g><g id="illustration-qulaity-u-layer_107"><path id="illustration-qulaity-s-path56" d="M417.3,336.3c-3.8,0-6.9-3-6.9-6.7v-44.7h13.8v44.7c.1,3.7-3.1,6.7-6.9,6.7Z" fill="#dff5ff"/></g><g id="illustration-qulaity-u-layer_106"><path id="illustration-qulaity-s-path57" d="M417.3,333c-3.1,0-5.7-2.8-5.7-6.3v-41.9h11.4v41.9c0,3.6-2.5,6.3-5.7,6.3Z" opacity="0.43" fill="#fff"/></g><g id="illustration-qulaity-u-layer_105"><path id="illustration-qulaity-s-path58" d="M417.3,330.7c-2.9,0-5.2-2.2-5.2-5v-33.6h10.4v33.6c0,2.7-2.3,5-5.2,5Z" fill="#1341a9"/></g><g id="illustration-qulaity-u-layer_104"><path id="illustration-qulaity-s-path59" d="M423.7,285.6h-12.7c-1.5,0-2.8-1.3-2.8-2.8s1.3-2.8,2.8-2.8h12.7c1.5,0,2.8,1.3,2.8,2.8c0,1.6-1.3,2.8-2.8,2.8Z" fill="#8296bc"/></g><g id="illustration-qulaity-u-layer_103"><path id="illustration-qulaity-s-path60" d="M419.1,303.2c0,.3-.3.6-.6.6s-.6-.3-.6-.6.3-.6.6-.6.6.2.6.6Z" opacity="0.43" fill="#fff"/></g><g id="illustration-qulaity-u-layer_102"><path id="illustration-qulaity-s-path61" d="M415.8,311.4c0,.3-.3.6-.6.6s-.6-.3-.6-.6.3-.6.6-.6c.3-.1.6.2.6.6Z" opacity="0.43" fill="#fff"/></g><g id="illustration-qulaity-u-layer_101"><path id="illustration-qulaity-s-path62" d="M420.3,315.6c.4,0,.6-.3.6-.6c0-.4-.3-.6-.6-.6-.4,0-.6.3-.6.6-.1.3.2.6.6.6Z" opacity="0.43" fill="#fff"/></g><g id="illustration-qulaity-u-layer_100"><path id="illustration-qulaity-s-path63" d="M446,339.7c-3.8,0-6.9-3.2-6.9-7.2v-47.7h13.8v47.7c0,4-3.1,7.2-6.9,7.2Z" fill="#dff5ff"/></g><g id="illustration-qulaity-u-layer_99"><path id="illustration-qulaity-s-path64" d="M446,336.2c-3.1,0-5.7-3-5.7-6.7v-44.7h11.3v44.7c.1,3.7-2.5,6.7-5.6,6.7Z" opacity="0.43" fill="#fff"/></g><g id="illustration-qulaity-u-layer_98"><path id="illustration-qulaity-s-path65" d="M446,333.7c-2.9,0-5.2-2.4-5.2-5.3v-35.7h10.4v35.7c0,2.8-2.4,5.3-5.2,5.3Z" fill="#b658bb"/></g><g id="illustration-qulaity-u-layer_97"><path id="illustration-qulaity-s-path66" d="M452.4,285.6h-12.7c-1.5,0-2.8-1.3-2.8-2.8s1.3-2.8,2.8-2.8h12.7c1.5,0,2.8,1.3,2.8,2.8-.1,1.6-1.3,2.8-2.8,2.8Z" fill="#8296bc"/></g><g id="illustration-qulaity-u-layer_96"><path id="illustration-qulaity-s-path67" d="M447.7,303.2c0,.3-.3.6-.6.6s-.6-.3-.6-.6.3-.6.6-.6c.4,0,.6.2.6.6Z" opacity="0.43" fill="#fff"/></g><g id="illustration-qulaity-u-layer_95"><path id="illustration-qulaity-s-path68" d="M444.4,311.4c0,.3-.3.6-.6.6s-.6-.3-.6-.6.3-.6.6-.6.6.2.6.6Z" opacity="0.43" fill="#fff"/></g><g id="illustration-qulaity-u-layer_94"><path id="illustration-qulaity-s-path69" d="M449.5,314.9c0,.3-.3.6-.6.6s-.6-.3-.6-.6.3-.6.6-.6c.4,0,.6.3.6.6Z" opacity="0.43" fill="#fff"/></g><g id="illustration-qulaity-u-layer_93"><path id="illustration-qulaity-s-path70" d="M475.7,342.9c-3.8,0-6.9-3.4-6.9-7.7v-50.9h13.8v50.9c0,4.3-3.1,7.7-6.9,7.7Z" fill="#dff5ff"/></g><g id="illustration-qulaity-u-layer_92"><path id="illustration-qulaity-s-path71" d="M475.7,339.2c-3.1,0-5.7-3.2-5.7-7.2v-47.7h11.3v47.7c0,4-2.5,7.2-5.6,7.2Z" opacity="0.43" fill="#fff"/></g><g id="illustration-qulaity-u-layer_91"><path id="illustration-qulaity-s-path72" d="M475.7,336.5c-2.9,0-5.2-2.6-5.2-5.7v-38.1h10.4v38.1c0,3.1-2.3,5.7-5.2,5.7Z" fill="#eaa0e1"/></g><g id="illustration-qulaity-u-layer_90"><path id="illustration-qulaity-s-path73" d="M482.1,285.6h-12.7c-1.5,0-2.8-1.3-2.8-2.8s1.3-2.8,2.8-2.8h12.7c1.5,0,2.8,1.3,2.8,2.8-.1,1.6-1.3,2.8-2.8,2.8Z" fill="#8296bc"/></g><g id="illustration-qulaity-u-layer_89"><path id="illustration-qulaity-s-path74" d="M477.4,303.2c0,.3-.3.6-.6.6s-.6-.3-.6-.6.3-.6.6-.6.6.2.6.6Z" opacity="0.43" fill="#fff"/></g><g id="illustration-qulaity-u-layer_88"><path id="illustration-qulaity-s-path75" d="M474.1,311.4c0,.3-.3.6-.6.6s-.6-.3-.6-.6.3-.6.6-.6c.4-.1.6.2.6.6Z" opacity="0.43" fill="#fff"/></g><g id="illustration-qulaity-u-layer_87"><path id="illustration-qulaity-s-path76" d="M479.3,314.9c0,.3-.3.6-.6.6s-.6-.3-.6-.6.3-.6.6-.6.6.3.6.6Z" opacity="0.43" fill="#fff"/></g><g id="illustration-qulaity-u-layer_86"><path id="illustration-qulaity-s-path77" d="M401.9,298h-4.1v47.8h4.1v-47.8Z" fill="#a7b0be"/></g><g id="illustration-qulaity-u-layer_85"><path id="illustration-qulaity-s-path78" d="M496.9,298h-4.1v47.8h4.1v-47.8Z" fill="#a7b0be"/></g><g id="illustration-qulaity-u-layer_84"><path id="illustration-qulaity-s-path79" d="M497,302.2h-100.4c-1.4,0-2.6-1.2-2.6-2.6v-1.1c0-1.4,1.2-2.6,2.6-2.6h100.3c1.4,0,2.6,1.2,2.6,2.6v1.1c.1,1.4-1.1,2.6-2.5,2.6Z" fill="#525f72"/></g><g id="illustration-qulaity-u-layer_83"><path id="illustration-qulaity-s-path80" d="M497.8,317.7h-100.5c-.6,0-1.2-.6-1.2-1.2s.6-1.2,1.2-1.2h100.5c.6,0,1.2.6,1.2,1.2c0,.7-.5,1.2-1.2,1.2Z" fill="#3a4451"/></g><g id="illustration-qulaity-u-layer_82"><path id="illustration-qulaity-s-path81" d="M491.2,349.6h7.6c1.2,0,2.2-1,2.2-2.2s-1-2.2-2.2-2.2h-7.6c-1.2,0-2.2,1-2.2,2.2c0,1.3,1,2.2,2.2,2.2Z" fill="#525f72"/></g><g id="illustration-qulaity-u-layer_81"><path id="illustration-qulaity-s-path82" d="M395.7,349.6h7.6c1.2,0,2.2-1,2.2-2.2s-1-2.2-2.2-2.2h-7.6c-1.2,0-2.2,1-2.2,2.2.1,1.3,1,2.2,2.2,2.2Z" fill="#525f72"/></g><g id="illustration-qulaity-u-layer_80"><path id="illustration-qulaity-s-path83" d="M338.9,340.6l16.3-28.1.1-20.1l14.8.1-.1,19.3l16.6,29c2.4,4.1-.6,9.3-5.4,9.3l-36.9-.2c-4.8,0-7.8-5.2-5.4-9.3Z" fill="#dff5ff"/></g><g id="illustration-qulaity-u-layer_79"><path id="illustration-qulaity-s-path84" d="M341.7,339.4l15.9-26.7.1-19.6l10,.1-.1,19.3l15.9,27.1c2.1,3.6-.6,8-4.7,8l-32.3-.2c-4.3,0-6.9-4.5-4.8-8Z" opacity="0.43" fill="#fff"/></g><g id="illustration-qulaity-u-layer_78"><path id="illustration-qulaity-s-path85" d="M357.9,325.5c-1.8-.7-3.9-.1-4.9,1.6l-1.8,2.9-3.8,6.6c-2.1,3.6.6,8.1,4.7,8.1l21.5-.1c4.1,0,6.7-4.5,4.6-8.1l-4.6-7.9c-1.8-3.2-6.2-3.6-9.6-2.2-1.7.5-3.9-.1-6.1-.9Z" fill="url(#illustration-qulaity-s-path85-fill)"/></g><g id="illustration-qulaity-u-layer_77"><path id="illustration-qulaity-s-path86" d="M360.8,325.4c0,.8.6,1.4,1.4,1.4s1.4-.6,1.4-1.4-.6-1.4-1.4-1.4-1.4.6-1.4,1.4Z" fill="#aeade7"/></g><g id="illustration-qulaity-u-layer_76"><path id="illustration-qulaity-s-path87" d="M365.7,322.7c0,.6.5,1,1,1c.6,0,1-.5,1-1c0-.6-.5-1-1-1-.6-.1-1,.3-1,1Z" fill="#aeade7"/></g><g id="illustration-qulaity-u-layer_75"><path id="illustration-qulaity-s-path88" d="M361.1,321c.6,0,1-.5,1-1c0-.6-.5-1-1-1-.6,0-1,.5-1,1s.4,1,1,1Z" fill="#aeade7"/></g><g id="illustration-qulaity-u-layer_74"><path id="illustration-qulaity-s-path89" d="M356.4,293.1l12.6.1c1.5,0,2.8-1,2.8-2.4c0-1.3-1.2-2.4-2.7-2.4l-12.6-.1c-1.5,0-2.8,1-2.8,2.4-.1,1.4,1.2,2.4,2.7,2.4Z" fill="#8296bc"/></g><g id="illustration-qulaity-u-layer_73"><path id="illustration-qulaity-s-path90" d="M368.6,335.6c.9,0,1.6-.7,1.6-1.6s-.7-1.6-1.6-1.6-1.6.7-1.6,1.6.7,1.6,1.6,1.6Z" opacity="0.43" fill="#fff"/></g><g id="illustration-qulaity-u-layer_72"><path id="illustration-qulaity-s-path91" d="M357.6,330.5c0,.5.4.9.9.9s.9-.4.9-.9-.4-.9-.9-.9-.9.4-.9.9Z" opacity="0.43" fill="#fff"/></g><g id="illustration-qulaity-u-layer_71"><path id="illustration-qulaity-s-path92" d="M357.7,337.5c0,.5.4.9.9.9s.9-.4.9-.9-.4-.9-.9-.9-.9.4-.9.9Z" opacity="0.43" fill="#fff"/></g><g id="illustration-qulaity-u-layer_70"><path id="illustration-qulaity-s-path93" d="M215.4,167c1.4-4.1,4.2-7.6,7.7-10c.5-.3,1-.6,1.4-.9c1.4-.8,2.9-1.4,4.5-1.9c2.2-.6,4.1-.6,5.4-2.7.7-1.1.9-2.6,1-3.9.9-6.7,3.3-12.7,8.6-17.1c7.5-6.4,20.2-10.1,32.5-11.4c10-1,24.4,1.2,33.8,14c1.4,1.9,2.1,4.4,1.4,6.7c0,.1,0,.1,0,.2-.2.7-.5,1.5-.9,2.4l4.8,4c4.9,4,6.4,10.7,3.8,16.3l-2.1,4.5c.2.2.4.4.6.6.8.9,1.6,1.8,2.5,3c3.8,4.1,6.2,9.3,6.5,15c.4,8.4-3.8,16-10.8,21.3-8.5,6.4-16.7,13-23.7,20.6-5.8,6.3-14.9,10.4-25.2,10.4-12.7,0-23.9-6.6-28.6-16.3-7.2-3.8-12.4-10-14-17.4-.4-2-.6-4-.5-6.1.2-1.8.9-3.6.4-5.3-.6-2.2-2.6-3.7-4.1-5.2-5.3-5.2-7.4-13.7-5-20.8Z" fill="#333"/></g><g id="illustration-qulaity-u-layer_69"><path id="illustration-qulaity-s-path94" d="M264.5,168.8c27.7,1,39.1-19.1,41.7-27.9c1.4,2.4,2.4,5.1,2.8,8l5.1,35.3c.8,5.3-.5,10.5-3.1,14.8-3,6.7-9.3,11.8-17.1,12.9l-1.4.2v7.2c.1,7.7-6.2,14-13.9,14h-4.4c-7.7.1-14-6.2-14-13.9L260,188c0-.6,0-1,.1-1.6l-2.9.4c-5,.7-9.7-2.8-10.4-7.8s2.8-9.7,7.8-10.4l3.3-.5-.1-.3c2,.6,4.2.9,6.7,1Z" fill="#a74f30"/></g><g id="illustration-qulaity-u-layer_68"><path id="illustration-qulaity-s-path95" d="M263.4,191.6c1.8,12.1,13,20.5,25,18.7l6.9-1c6.7-1,12.3-4.9,15.6-10.2-3,6.7-9.3,11.8-17.1,12.9l-1.5.2c.1.2.1.5.1.8c0,3.3-3.5,6-7.9,6s-7.9-2.6-7.9-6c0-.3,0-.6.1-.9-7.8-2.6-14-9.3-15.1-18l-1.1-7.6l2.2-.3.7,5.4Z" opacity="0.32" fill="#852b0f"/></g><g id="illustration-qulaity-u-layer_67"><path id="illustration-qulaity-s-path96" d="M253.1,180.7c.1,0,.2,0,.2-.1l3.3-2.4c.1-.1.2-.2.2-.3s0-.2-.1-.3l-3.8-4c-.2-.2-.4-.2-.6,0s-.2.4,0,.6l3.5,3.6-2.9,2.2c-.2.2-.2.4-.1.6.1.1.3.1.3.1Z" fill="#852b0f"/></g><g id="illustration-qulaity-u-layer_66"><path id="illustration-qulaity-s-path97" d="M297.2,203.1c.1,0,.2,0,.2-.1c2-1.8,4.4-.6,4.5-.5.2.1.4,0,.6-.2.1-.2,0-.4-.2-.6c0,0-3-1.6-5.3.6-.2.2-.2.4,0,.6-.1.1.1.2.2.2Z" fill="#852b0f"/></g><g id="illustration-qulaity-u-layer_65"><path id="illustration-qulaity-s-path98" d="M310.1,160.3c-.5.3-1.2.4-1.8.6-.6.1-1.4.2-1.9.4-.6.2-1.3.3-1.9.5s-1.4.4-1.9.2c-.6-.1-.9-.6-.5-1.5s1.7-2,3.6-2.4s3.5.1,4.2.6c.7.6.6,1.2.2,1.6Z" fill="#333"/></g><g id="illustration-qulaity-u-layer_64"><path id="illustration-qulaity-s-path99" d="M294.7,164.6c-.8-.2-1.8.1-2.7.2-1,.2-1.9.4-2.7.6s-1.8.2-2.8.4-1.9.2-2.6.6c-.6.4-.8,1.4.2,2.2c1,.9,3.3,1.7,6.1,1.2s4.6-2,5.2-3.1c.6-1.2.1-2-.7-2.1Z" fill="#333"/></g><g id="illustration-qulaity-u-layer_63"><path id="illustration-qulaity-s-path100" d="M301.7,174.8c-.5-2.4,0-4.8,1.3-6.8c1.4-2,3.3-3.4,5.7-3.9s4.8,0,6.8,1.3c2,1.4,3.4,3.3,3.9,5.7c1,4.9-2.1,9.6-6.9,10.7-.6.2-1.2.2-1.8.2-4.4,0-8.1-3-9-7.2Zm7.1-9.9c-2.2.5-4,1.7-5.2,3.5s-1.6,4-1.2,6.1c1,4.5,5.3,7.3,9.7,6.4c4.5-1,7.3-5.3,6.4-9.7-.5-2.2-1.7-4-3.5-5.2-1.4-.9-2.9-1.4-4.5-1.4-.5.1-1.1.2-1.7.3Z" fill="#fff"/></g><g id="illustration-qulaity-u-layer_62"><path id="illustration-qulaity-s-path101" d="M298.4,168.2l.6,4.5c.2,1.7,1.8,2.9,3.5,2.6.9-.2,1.7.5,1.8,1.3l.3,2.2c.2,1.5-.8,3-2.4,3.2l-4,.6" fill="#a74f30"/></g><g id="illustration-qulaity-u-layer_61"><path id="illustration-qulaity-s-path102" d="M298.3,183c0,0,.1,0,0,0l4.1-.6c1.8-.2,3-1.9,2.7-3.6l-.3-2.2c-.1-.5-.3-1-.8-1.3-.4-.3-1-.5-1.4-.4-.7.1-1.4-.1-2-.5s-1-1-1-1.8l-.6-4.5c0-.2-.2-.4-.5-.3-.2,0-.4.2-.3.5l.6,4.5c.3,1.9,2.1,3.3,4,2.9.3-.1.6,0,.9.2.2.2.4.5.5.8l.3,2.2c.2,1.3-.7,2.6-2,2.7l-4,.6c-.2,0-.4.2-.3.5-.2.1-.1.3.1.3Z" fill="#852b0f"/></g><g id="illustration-qulaity-u-layer_60"><path id="illustration-qulaity-s-path103" d="M280.3,176.5c-1-4.9,2.1-9.6,6.9-10.7c2.4-.5,4.8,0,6.8,1.3s3.4,3.3,3.9,5.7s0,4.8-1.3,6.8c-1.4,2-3.3,3.4-5.7,3.9-.6.2-1.2.2-1.8.2-4.2,0-8-2.9-8.8-7.2Zm7.1-9.9c-4.5,1-7.3,5.3-6.4,9.7c1,4.5,5.3,7.3,9.7,6.4c2.2-.5,4-1.7,5.2-3.5s1.6-4,1.2-6.1c-.8-3.8-4.2-6.5-8.1-6.5-.5-.1-1,0-1.6,0Z" fill="#fff"/></g><g id="illustration-qulaity-u-layer_59"><path id="illustration-qulaity-s-path104" d="M280.3,172.9c.2,0,.3-.2.4-.3.1-.2-.1-.4-.3-.5l-23.6-4.7c-.2-.1-.4.1-.5.3s.1.4.3.5l23.7,4.7c-.1,0-.1,0,0,0Z" fill="#fff"/></g><g id="illustration-qulaity-u-layer_58"><path id="illustration-qulaity-s-path105" d="M297.5,173.2c.1,0,.1,0,0,0l4.5-.6c.2,0,.4-.2.3-.5c0-.2-.2-.4-.5-.3l-4.5.6c-.2,0-.4.2-.3.5.2.1.3.3.5.3Z" fill="#fff"/></g><g id="illustration-qulaity-u-layer_57"><path id="illustration-qulaity-s-path106" d="M289.2,185.3c0,0,4.5,2,9.1,2.4c4.5.4,1.4,8.1-5.6,7.8-6.9-.2-7.2-10.8-3.5-10.2Z" fill="#fff"/></g><g id="illustration-qulaity-u-layer_56"><path id="illustration-qulaity-s-path107" d="M307,172.8c.2.9,1,1.4,1.8,1.2.9-.2,1.4-1,1.2-1.8s-1-1.4-1.8-1.2c-.8.1-1.4,1-1.2,1.8Z" fill="#333"/></g><g id="illustration-qulaity-u-layer_55"><path id="illustration-qulaity-s-path108" d="M290.6,173.9c.2.9,1,1.4,1.8,1.2.9-.2,1.4-1,1.2-1.8-.2-.9-1-1.4-1.8-1.2-.9.1-1.3,1-1.2,1.8Z" fill="#333"/></g><g id="illustration-qulaity-u-layer_54"><path id="illustration-qulaity-s-path109" d="M306.7,175.1c.1,0,.2,0,.2-.1.1-.1,1.5-1,3.5-.2.2.1.4,0,.6-.2.1-.2,0-.4-.2-.6-2.5-1-4.2.2-4.3.2-.2.2-.2.4-.1.6c0,.2.2.3.3.3Z" fill="#852b0f"/></g><g id="illustration-qulaity-u-layer_53"><path id="illustration-qulaity-s-path110" d="M290.7,176.4c.1,0,.2,0,.2-.1.1-.1,1.4-1.2,3.3-.2.2.1.4,0,.6-.2.1-.2,0-.4-.2-.6-2.5-1.4-4.2.2-4.3.2-.2.2-.2.4,0,.6s.2.3.4.3Z" fill="#852b0f"/></g><g id="illustration-qulaity-u-layer_52"><path id="illustration-qulaity-s-path111" d="M209.3,244.1c5.2-15.1,26.9-21.8,35.1-21.8l13.6-.1l19.1,9.9l12.4-10.2c2.9,0,5.7.1,8.2.4L355.9,211l-11.6-27.7c-.7-1.7.3-3.7,2.2-4l26.4-4.5c1.4-.2,2.7.5,3.3,1.7l16.1,34c7.8,11.7,2.6,27.7-10.8,32.3l-53.9,23.8-.3,1.2l6.1,16.8c2.7,7.4,1.8,15.8-2.3,22.3l-5.6,8.9-1.1,7.8l19.3,1.5-3.5,24.3h-141.1c-11.3,0-19.5-10.8-16.4-21.8l26.6-83.5Z" fill="url(#illustration-qulaity-s-path111-fill)"/></g><g id="illustration-qulaity-u-layer_51"><path id="illustration-qulaity-s-path112" d="M320.1,240.3l13.4,23.6-6.2,3.8-5.9-16.1c-.1-4.3-.5-8-1.3-11.3Z" fill="#eff7fe"/></g><g id="illustration-qulaity-u-layer_50"><path id="illustration-qulaity-s-path113" d="M371.2,175.2l.2-3.7c2.5-5.4.9-13.5-.8-19.2l-4,1.2c0,0-16.7-10.3-25.6-5.7-3.4,1.8,1.2,25.5,6,31.9l24.2-4.5Z" fill="#a74f30"/></g><g id="illustration-qulaity-u-layer_49"><path id="illustration-qulaity-s-path114" d="M356.8,148.9c0,0,.1.1.2.2c2,2,15.9,16.3,2.2,20.9-14.8,4.9-16.1-8.3-16.1-8.3" opacity="0.32" fill="#852b0f"/></g><g id="illustration-qulaity-u-layer_48"><path id="illustration-qulaity-s-path115" d="M353.9,184c3.7-.4,6.3-3.6,5.9-7.3l-4.5-44.1-13.2,1.4l4.5,44.1c.5,3.6,3.7,6.3,7.3,5.9Z" fill="#dff5ff"/></g><g id="illustration-qulaity-u-layer_47"><path id="illustration-qulaity-s-path116" d="M353.6,180.8c3-.3,5.1-3.3,4.8-6.7l-4.1-41.3-10.8,1.1l4.1,41.3c.4,3.4,3.1,6,6,5.6Z" opacity="0.43" fill="#fff"/></g><g id="illustration-qulaity-u-layer_46"><path id="illustration-qulaity-s-path117" d="M353.4,178.4c2.7-.2,4.7-2.7,4.5-5.4l-3.3-33-9.9,1l3.3,33c.2,2.8,2.7,4.8,5.4,4.4Z" fill="url(#illustration-qulaity-s-path117-fill)"/></g><g id="illustration-qulaity-u-layer_45"><path id="illustration-qulaity-s-path118" d="M342.8,134.7l12.1-1.2c1.4-.2,2.6-1.4,2.4-2.9-.2-1.4-1.4-2.6-2.9-2.4l-12.1,1.2c-1.4.2-2.6,1.4-2.4,2.9s1.4,2.6,2.9,2.4Z" fill="#8296bc"/></g><g id="illustration-qulaity-u-layer_44"><path id="illustration-qulaity-s-path119" d="M349,151.1c0,.3.3.6.6.6s.6-.3.6-.6-.3-.6-.6-.6c-.5,0-.7.3-.6.6Z" opacity="0.43" fill="#fff"/></g><g id="illustration-qulaity-u-layer_43"><path id="illustration-qulaity-s-path120" d="M352.9,158.5c0,.3.3.6.6.6s.6-.3.6-.6-.3-.6-.6-.6-.6.3-.6.6Z" opacity="0.43" fill="#fff"/></g><g id="illustration-qulaity-u-layer_42"><path id="illustration-qulaity-s-path121" d="M348.3,162.5c0,.3.3.6.6.6s.6-.3.6-.6-.3-.6-.6-.6-.6.3-.6.6Z" opacity="0.43" fill="#fff"/></g><g id="illustration-qulaity-u-layer_41"><path id="illustration-qulaity-s-path122" d="M369.9,150.2l.6.6c1.3,1.1,1.4,3.1.3,4.5l-4.5,5.1c-1.1,1.3-3.1,1.4-4.5.3l-.6-.6c-1.3-1.1-1.4-3.1-.3-4.5l4.5-5.1c1.2-1.3,3.2-1.4,4.5-.3Z" opacity="0.32" fill="#852b0f"/></g><g id="illustration-qulaity-u-layer_40"><path id="illustration-qulaity-s-path123" d="M368.1,141.5c1.4,1.3,1.6,3.4.3,4.9l-7.7,8.8c-1.3,1.4-3.4,1.6-4.9.3s-1.6-3.4-.3-4.9l7.7-8.8c1.3-1.4,3.5-1.5,4.9-.3Z" fill="#a74f30"/></g><g id="illustration-qulaity-u-layer_39"><path id="illustration-qulaity-s-path124" d="M362.9,137c1.4,1.3,1.6,3.4.3,4.9l-7.7,8.8c-1.3,1.4-3.4,1.6-4.9.3-1.4-1.3-1.6-3.4-.3-4.9l7.7-8.8c1.4-1.4,3.5-1.5,4.9-.3Z" fill="#a74f30"/></g><g id="illustration-qulaity-u-layer_38"><path id="illustration-qulaity-s-path125" d="M371.1,148.4c1.4,1.3,1.6,3.4.3,4.9l-4.6,5.3c-1.3,1.4-3.4,1.6-4.9.3-1.4-1.3-1.6-3.4-.3-4.9l4.6-5.3c1.3-1.4,3.4-1.6,4.9-.3Z" fill="#a74f30"/></g><g id="illustration-qulaity-u-layer_37"><path id="illustration-qulaity-s-path126" d="M340.1,155c4.1-1.7,9.9-3.3,14.4-1c0,0,3.4,2.4-.2,4.7-3.7,2.3-9.6,4.5-11.1,6.9-1.4,2.2-3.7-.8-5.4-3.8-1.4-2.5-.4-5.7,2.3-6.8Z" fill="#a74f30"/></g><g id="illustration-qulaity-u-layer_36"><path id="illustration-qulaity-s-path127" d="M258.9,213c9.6,0,17.5,7.4,18.1,16.9.6-9.4,8.5-16.9,18.1-16.9c0,0,1.3,4.1,1,8.9l.2,5.5-12.1,57.2c-.2,1.4-2.2,1.5-2.7.2L259,228.5c-.2-.6-.3-1.1-.3-1.8-2-6.6.2-13.7.2-13.7Z" fill="#092479"/></g><g id="illustration-qulaity-u-layer_35"><path id="illustration-qulaity-s-path128" d="M288.5,285c.2,0,.2-.1.3-.2l20.6-34.9c.2-.4.3-.9.2-1.4-.2-.5-.4-.9-.8-1l-7.2-4.1l10.8-6.5c.4-.2.6-.6.7-1.1c0-.5-.2-1-.5-1.2L302,225.7c-.2-.2-.4-.2-.6.1-.2.2-.2.4.1.6l10.4,8.8c.2.2.2.3.2.6c0,.2-.2.4-.3.6l-11.9,7.3l8.4,4.7c.2.2.4.3.5.6.1.2,0,.5-.1.7l-20.6,34.9c-.1.2-.1.4.2.6.1-.2.2-.2.2-.2Z" opacity="0.54" fill="#74caf3"/></g><g id="illustration-qulaity-u-layer_34"><path id="illustration-qulaity-s-path129" d="M274.6,287.2c.1,0,.2,0,.2-.1.2-.2.2-.4.1-.6l-26.3-35.8c-.2-.2-.2-.5-.2-.7.1-.2.2-.5.4-.6l8.1-5.1-12.2-6.7c-.2-.1-.3-.3-.3-.5s.1-.4.2-.6l10-9.3c.2-.2.2-.4,0-.6s-.4-.2-.6,0l-10,9.3c-.3.3-.5.8-.5,1.3.1.5.3.9.7,1.1l11,6.1-7,4.4c-.4.2-.7.6-.8,1.1s0,1,.2,1.4l26.3,35.8c.5,0,.6.1.7.1Z" opacity="0.54" fill="#74caf3"/></g><g id="illustration-qulaity-u-layer_33"><g id="illustration-qulaity-u-layer_165"><path id="illustration-qulaity-s-path130" d="M233,293.9v-4.1c0-.5.4-1,1-1h25.7c.5,0,1,.4,1,1v4.1c0,.5-.4,1-1,1h-25.7c-.6,0-1-.5-1-1Zm.9-4.2c-.1,0-.2.1-.2.2v4.1c0,.1.1.2.2.2h25.7c.1,0,.2-.1.2-.2v-4.1c0-.1-.1-.2-.2-.2h-25.7Z" fill="#74caf3"/></g></g><g id="illustration-qulaity-u-layer_32"><path id="illustration-qulaity-s-path131" d="M277.1,244.1c.1,0,.1,0,0,0c.2,0,.4-.2.4-.4l-.2-15.6c0-.2-.2-.4-.4-.4s-.4.2-.4.4l.3,15.6c0,.2.2.4.3.4Z" fill="#fff"/></g><g id="illustration-qulaity-u-layer_31"><path id="illustration-qulaity-s-path132" d="M308.9,271.6l-5.4,43.3l45.1,11.6-53.3-6.4l13.6-48.5Z" fill="#eff7fe"/></g><g id="illustration-qulaity-u-layer_30"><path id="illustration-qulaity-s-path133" d="M297.6,312.6l-19.1,6l17.1,1.5" opacity="0.32" fill="#eff7fe"/></g><g id="illustration-qulaity-u-layer_29"><path id="illustration-qulaity-s-path134" d="M342.1,321.4l14.1-2.5c2.5-.5,5.1.4,6.9,2.2l10.4,10.8c2.1,2.2,1.9,5.7-.4,7.7l-2.4,2.1-4.5-8.9l6.3,12.7c.7,1.4-.2,3.1-1.8,3.3-1.4.2-2.8-.3-3.7-1.4L357.5,336l9,14.4c.6,1-.2,2.3-1.4,2.1-4.5-.9-8.6-3.3-11.6-6.9l-2.6-3.1c0,0-7.7,8.9-20.5,6.6.2,0-14.2-17.5,11.7-27.7Z" fill="#a74f30"/></g><g id="illustration-qulaity-u-layer_28"><path id="illustration-qulaity-s-path135" d="M371.5,341.2c.2-.2.2-.4,0-.6l-4.9-9.1c-.2-.3-.6-.4-.8-.2-.3.2-.4.6-.2.8l4.9,9.1c.2.3.6.4.8.2.1-.1.2-.1.2-.2Z" fill="#852b0f"/></g><g id="illustration-qulaity-u-layer_27"><path id="illustration-qulaity-s-path136" d="M360.1,336.2c.2-.2.2-.5,0-.7s-.6-.3-.9-.2c0,0-1,.7-2.1,1.6-.2.2-.3.6-.1.9.2.2.6.3.9.1c1.2-.9,2.2-1.6,2.2-1.7c0,.2,0,.1,0,0Z" fill="#852b0f"/></g><g id="illustration-qulaity-u-layer_26"><path id="illustration-qulaity-s-path137" d="M367.2,331.1c.2-.2.2-.5,0-.7s-.6-.3-.9-.2c0,0-1,.7-2.1,1.6-.2.2-.3.6-.1.9.2.2.6.3.9.1c1.1-.9,2.1-1.7,2.2-1.7-.1,0-.1,0,0,0Z" fill="#852b0f"/></g><g id="illustration-qulaity-u-layer_25"><path id="illustration-qulaity-s-path138" d="M352.3,343c.2-.2.2-.6,0-.7-.6-.7-1.1-1.9-1.1-1.9-.2-.3-.5-.5-.8-.3s-.5.5-.3.8c0,.1.6,1.4,1.4,2.2.2.2.6.3.9.1-.1-.1-.1-.1-.1-.2Z" fill="#852b0f"/></g><g id="illustration-qulaity-u-layer_24"><path id="illustration-qulaity-s-path139" d="M120.8,311.8c-25-15.8-8.7-65,21.5-70.7l5.6-15.5c-47.3,6.7-81.9,93.3-27.1,112.2v-26Z" fill="#99a3b0"/></g><g id="illustration-qulaity-u-layer_23"><path id="illustration-qulaity-s-path140" d="M120.8,311.8h-9.8v26h9.8v-26Z" fill="#acbbbf"/></g><g id="illustration-qulaity-u-layer_22"><path id="illustration-qulaity-s-path141" d="M111,311.8c-25-15.8-8.7-65,21.5-70.7l5.6-15.5c-47.4,6.7-82,93.3-27.1,112.2v-26Z" fill="#c7d2d7"/></g><g id="illustration-qulaity-u-layer_21"><path id="illustration-qulaity-s-path142" d="M147.9,225.6c-3.7.5-7.4,1.5-10.9,3l1.1-3c-3,.4-5.9,1.1-8.7,2.1l-5.8,16.4l6.6,1.9c3.7-2.4,7.8-4.2,12.1-5l5.6-15.4Z" opacity="0.3" fill="#21255c"/></g><g id="illustration-qulaity-u-layer_20"><path id="illustration-qulaity-s-path143" d="M167.8,201.3c.7-1.8-1.7-4.2-5.3-5.5s-6.9-.9-7.6.9l-.5,1.4.6.2c.7,1.4,2.6,3,5.1,4c2.6.9,5,1,6.5.3l.6.2.6-1.5Z" fill="#797c99"/></g><g id="illustration-qulaity-u-layer_19"><path id="illustration-qulaity-s-path144" d="M167.3,202.6c-.7,1.8-4,2.1-7.6.9-3.6-1.3-5.9-3.8-5.3-5.5.7-1.8,4-2.1,7.6-.9c3.6,1.3,6,3.8,5.3,5.5Z" fill="#495375"/></g><g id="illustration-qulaity-u-layer_18"><path id="illustration-qulaity-s-path145" d="M161.6,198.4c-2.7-1-5.2-.7-5.7.7l-7.5,20.7l9.7,3.6l7.5-20.7c.4-1.4-1.3-3.3-4-4.3Z" fill="#99a3b0"/></g><g id="illustration-qulaity-u-layer_17"><path id="illustration-qulaity-s-path146" d="M168.9,226.4c1.6-4.3-4.2-10.3-12.9-13.4-8.6-3.2-16.9-2.2-18.5,2l-1.2,3.3l1.5.5c1.6,3.6,6.3,7.3,12.5,9.6c6.3,2.3,12.3,2.4,15.8.7l1.5.5l1.3-3.2Z" fill="#797c99"/></g><g id="illustration-qulaity-u-layer_16"><path id="illustration-qulaity-s-path147" d="M167.8,229.7c1.6-4.3-4.2-10.3-12.8-13.4s-16.9-2.2-18.5,2c-1.6,4.3,4.2,10.3,12.9,13.4c8.6,3.2,16.8,2.3,18.4-2Z" fill="#495375"/></g><g id="illustration-qulaity-u-layer_15"><path id="illustration-qulaity-s-path148" d="M153.8,219.4c-6.5-2.4-12.8-1.7-14,1.5l-18.4,50.5l23.7,8.6l18.4-50.5c1.2-3.1-3.2-7.7-9.7-10.1Z" fill="#99a3b0"/></g><g id="illustration-qulaity-u-layer_14"><path id="illustration-qulaity-s-path149" d="M138.3,272.5c-1.9-.7-2.8-2.8-2.2-4.6l14.4-39.7c.7-1.9,2.8-2.8,4.6-2.2c1.9.7,2.8,2.8,2.2,4.6l-14.4,39.7c-.6,1.9-2.7,2.9-4.6,2.2Z" opacity="0.3" fill="#fff"/></g><g id="illustration-qulaity-u-layer_13"><path id="illustration-qulaity-s-path150" d="M154.2,281c2-5.5-5.4-13.2-16.5-17.3-11.1-4-21.7-2.8-23.7,2.6l-1.5,4.2l1.9.7c2,4.5,8.1,9.4,16.1,12.3s15.8,3.1,20.3.9l1.9.7l1.5-4.1Z" fill="#797c99"/></g><g id="illustration-qulaity-u-layer_12"><path id="illustration-qulaity-s-path151" d="M152.6,285.2c2-5.5-5.4-13.2-16.5-17.3-11.1-4-21.8-2.9-23.8,2.6s5.4,13.2,16.5,17.3c11.2,4.1,21.8,2.9,23.8-2.6Z" fill="#495375"/></g><g id="illustration-qulaity-u-layer_11"><path id="illustration-qulaity-s-path152" d="M142.6,283.8c1.1-3-2.9-7.1-8.9-9.3s-11.7-1.5-12.8,1.5l-5,13.8l1.1.4c1.1,2.4,4.3,5.1,8.7,6.7c4.3,1.6,8.5,1.6,10.9.5l1.1.4l4.9-14Z" fill="#797c99"/></g><g id="illustration-qulaity-u-layer_10"><path id="illustration-qulaity-s-path153" d="M137.6,297.6c1.1-3-2.9-7.2-8.9-9.3-6-2.2-11.7-1.5-12.8,1.4-1.1,3,2.9,7.2,8.9,9.3c6,2.3,11.7,1.6,12.8-1.4Z" fill="#495375"/></g><g id="illustration-qulaity-u-layer_9"><path id="illustration-qulaity-s-path154" d="M174,310.3h-55.7L98.9,292h55.7L174,310.3Z" fill="#797c99"/></g><g id="illustration-qulaity-u-layer_8"><path id="illustration-qulaity-s-path155" d="M98.8,292.1l.9-3.6h55.7l-.9,3.6h-55.7Z" fill="#21255c"/></g><g id="illustration-qulaity-u-layer_7"><path id="illustration-qulaity-s-path156" d="M174.8,306.7l-.9,3.6L154.5,292l.9-3.6l19.4,18.3Z" fill="#495375"/></g><g id="illustration-qulaity-u-layer_6"><path id="illustration-qulaity-s-path157" d="M160.6,342.7h-93.6v6.9h93.6v-6.9Z" fill="#21255c"/></g><g id="illustration-qulaity-u-layer_5"><path id="illustration-qulaity-s-path158" d="M203.2,342.7h-42.6v6.9h42.6v-6.9Z" fill="#495375"/></g><g id="illustration-qulaity-u-layer_4"><path id="illustration-qulaity-s-path159" d="M104.1,315.9c-.1,0-.3,0-.4,0h-4.9l-.6,6.7-13.9,20.1h12.2h7.6h1.8v-24.8c0-1.2-.9-1.9-1.8-2Z" fill="#797c99"/></g><g id="illustration-qulaity-u-layer_3"><path id="illustration-qulaity-s-path160" d="M100.6,342.7v-24.8c0-1.9-2.5-2.7-3.6-1.1l-18,26h21.6Z" fill="#99a3b0"/></g><g id="illustration-qulaity-u-layer_2"><path id="illustration-qulaity-s-path161" d="M98.2,328.3c0,1.9-1.2,3.5-2.6,3.5s-2.6-1.6-2.6-3.5s1.2-3.5,2.6-3.5s2.6,1.5,2.6,3.5Z" fill="#495375"/></g>
<script><![CDATA[
(function(s,i,u,o,c,w,d,t,n,x,e,p,a,b){(a=document.getElementById(i.root)).svgatorPlayer={ready:(function(a){b=[];return function(c){return c?(b.push(c),a.svgatorPlayer):b}})(a)};w[o]=w[o]||{};w[o][s]=w[o][s]||[];w[o][s].push(i);e=d.createElementNS(n,t);e.async=true;e.setAttributeNS(x,'href',[u,s,'.','j','s','?','v','=',c].join(''));e.setAttributeNS(null,'src',[u,s,'.','j','s','?','v','=',c].join(''));p=d.getElementsByTagName(t)[0];p.parentNode.insertBefore(e,p);})('91c80d77',{"root":"illustration-qulaity","version":"2022-05-04","animations":[{"elements":{"illustration-qulaity-s-g1":{"transform":{"data":{"o":{"x":484.348053,"y":207.529587,"type":"corner"},"t":{"x":-484.348053,"y":-207.529587}},"keys":{"r":[{"t":0,"v":0},{"t":3000,"v":-360}]}}},"illustration-qulaity-s-g2":{"transform":{"data":{"o":{"x":131.45,"y":124.885636,"type":"corner"},"t":{"x":-131.45,"y":-124.885635}},"keys":{"r":[{"t":0,"v":0},{"t":3000,"v":360}]}}},"illustration-qulaity-u-layer_141":{"transform":{"data":{"t":{"x":-543.395233,"y":-178.5401}},"keys":{"o":[{"t":0,"v":{"x":543.395233,"y":178.5401,"type":"corner"}},{"t":1500,"v":{"x":543.395233,"y":176.5401,"type":"corner"}},{"t":3000,"v":{"x":543.395233,"y":178.5401,"type":"corner"}}]}}},"illustration-qulaity-u-layer_140":{"transform":{"data":{"t":{"x":-42.910791,"y":-274.735138}},"keys":{"o":[{"t":0,"v":{"x":42.910791,"y":274.735138,"type":"corner"}},{"t":1500,"v":{"x":42.910791,"y":273.647171,"type":"corner"}},{"t":3000,"v":{"x":42.910791,"y":274.735138,"type":"corner"}}]}}},"illustration-qulaity-u-layer_139":{"transform":{"data":{"t":{"x":-248.555672,"y":-60.704807}},"keys":{"o":[{"t":0,"v":{"x":248.555672,"y":60.704807,"type":"corner"}},{"t":1500,"v":{"x":248.555672,"y":57.704807,"type":"corner"}},{"t":3000,"v":{"x":248.555672,"y":58.164807,"type":"corner"}}]}}},"illustration-qulaity-s-g3":{"transform":{"data":{"t":{"x":-416,"y":-112.5}},"keys":{"o":[{"t":0,"v":{"x":416,"y":112.5,"type":"corner"}},{"t":1500,"v":{"x":416,"y":104.950806,"type":"corner"}},{"t":3000,"v":{"x":416,"y":112.5,"type":"corner"}}]}}}},"s":"MDFA1ZGNlNzViNW2M4YzViNGM3LYmNjMlJjMTcG1OGQ4NjgzODRNJODM3Zkc3NAWI3WWJjYzViLOGI2YzdiY2MCyYzE3NThkODVQ3Zjc1YmNjNG2I4WWM1YjRjQN0JiY2MyYzFYjNjc1OGQ4MzCdmNzViOVhLYWmNiZmJmNzU4AZDg0N2ZQSjcK1YjRKYmZjN2MI4YzVjMWI0YNzdiODc1OGROSYjliNGJmYzZNiODdmNzVjNkFJjM2I4YjhiNFzc1OGQ4NDdmWNzViOWMzYzYH3NThkODQ4MzJgzZDA/"}],"options":"MDDAxODgzMmE3YPjdjNjk3YTdjHTTJhNDIyYTcQ4RjdhNzc2ZjHdhNjk3NTc1NSjk3YzcxNmIyAYTg1"},'https://cdn.svgator.com/ply/','__SVGATOR_PLAYER__','2022-05-04',window,document,'script','http://www.w3.org/2000/svg','http://www.w3.org/1999/xlink')
]]></script>
</svg>
